G04 #@! TF.GenerationSoftware,KiCad,Pcbnew,(5.1.6)-1*
G04 #@! TF.CreationDate,2021-12-03T11:20:38+02:00*
G04 #@! TF.ProjectId,df_stacked,64665f73-7461-4636-9b65-642e6b696361,rev?*
G04 #@! TF.SameCoordinates,Original*
G04 #@! TF.FileFunction,Copper,L1,Top*
G04 #@! TF.FilePolarity,Positive*
%FSLAX46Y46*%
G04 Gerber Fmt 4.6, Leading zero omitted, Abs format (unit mm)*
G04 Created by KiCad (PCBNEW (5.1.6)-1) date 2021-12-03 11:20:38*
%MOMM*%
%LPD*%
G01*
G04 APERTURE LIST*
G04 #@! TA.AperFunction,ComponentPad*
%ADD10C,1.700000*%
G04 #@! TD*
G04 #@! TA.AperFunction,ComponentPad*
%ADD11O,1.600000X1.600000*%
G04 #@! TD*
G04 #@! TA.AperFunction,ComponentPad*
%ADD12R,1.600000X1.600000*%
G04 #@! TD*
G04 #@! TA.AperFunction,ComponentPad*
%ADD13O,1.700000X1.700000*%
G04 #@! TD*
G04 #@! TA.AperFunction,ComponentPad*
%ADD14R,1.700000X1.700000*%
G04 #@! TD*
G04 #@! TA.AperFunction,ViaPad*
%ADD15C,0.800000*%
G04 #@! TD*
G04 #@! TA.AperFunction,Conductor*
%ADD16C,0.500000*%
G04 #@! TD*
G04 APERTURE END LIST*
D10*
X152070000Y-110330000D03*
X152070000Y-112870000D03*
X154610000Y-112870000D03*
X154610000Y-110330000D03*
X157150000Y-112870000D03*
X157150000Y-110330000D03*
X159690000Y-112870000D03*
X159690000Y-110330000D03*
X162230000Y-112870000D03*
X162230000Y-110330000D03*
X164770000Y-112870000D03*
X164770000Y-110330000D03*
X167310000Y-112870000D03*
X167310000Y-110330000D03*
X169850000Y-112870000D03*
X169850000Y-110330000D03*
X172390000Y-112870000D03*
X172390000Y-110330000D03*
X174930000Y-112870000D03*
X174930000Y-110330000D03*
X152070000Y-87470000D03*
X152070000Y-84930000D03*
X154610000Y-87470000D03*
X154610000Y-84930000D03*
X157150000Y-87470000D03*
X157150000Y-84930000D03*
X159690000Y-87470000D03*
X159690000Y-84930000D03*
X162230000Y-87470000D03*
X162230000Y-84930000D03*
X164770000Y-87470000D03*
X164770000Y-84930000D03*
X167310000Y-87470000D03*
X167310000Y-84930000D03*
X169850000Y-87470000D03*
X169850000Y-84930000D03*
X172390000Y-87470000D03*
X172390000Y-84930000D03*
X174930000Y-87470000D03*
X174930000Y-84930000D03*
D11*
X200340000Y-106500000D03*
X152080000Y-91260000D03*
X197800000Y-106500000D03*
X154620000Y-91260000D03*
X195260000Y-106500000D03*
X157160000Y-91260000D03*
X192720000Y-106500000D03*
X159700000Y-91260000D03*
X190180000Y-106500000D03*
X162240000Y-91260000D03*
X187640000Y-106500000D03*
X164780000Y-91260000D03*
X185100000Y-106500000D03*
X167320000Y-91260000D03*
X182560000Y-106500000D03*
X169860000Y-91260000D03*
X180020000Y-106500000D03*
X172400000Y-91260000D03*
X177480000Y-106500000D03*
X174940000Y-91260000D03*
X174940000Y-106500000D03*
X177480000Y-91260000D03*
X172400000Y-106500000D03*
X180020000Y-91260000D03*
X169860000Y-106500000D03*
X182560000Y-91260000D03*
X167320000Y-106500000D03*
X185100000Y-91260000D03*
X164780000Y-106500000D03*
X187640000Y-91260000D03*
X162240000Y-106500000D03*
X190180000Y-91260000D03*
X159700000Y-106500000D03*
X192720000Y-91260000D03*
X157160000Y-106500000D03*
X195260000Y-91260000D03*
X154620000Y-106500000D03*
X197800000Y-91260000D03*
X152080000Y-106500000D03*
D12*
X200340000Y-91260000D03*
D11*
X200400000Y-116040000D03*
X152140000Y-100800000D03*
X197860000Y-116040000D03*
X154680000Y-100800000D03*
X195320000Y-116040000D03*
X157220000Y-100800000D03*
X192780000Y-116040000D03*
X159760000Y-100800000D03*
X190240000Y-116040000D03*
X162300000Y-100800000D03*
X187700000Y-116040000D03*
X164840000Y-100800000D03*
X185160000Y-116040000D03*
X167380000Y-100800000D03*
X182620000Y-116040000D03*
X169920000Y-100800000D03*
X180080000Y-116040000D03*
X172460000Y-100800000D03*
X177540000Y-116040000D03*
X175000000Y-100800000D03*
X175000000Y-116040000D03*
X177540000Y-100800000D03*
X172460000Y-116040000D03*
X180080000Y-100800000D03*
X169920000Y-116040000D03*
X182620000Y-100800000D03*
X167380000Y-116040000D03*
X185160000Y-100800000D03*
X164840000Y-116040000D03*
X187700000Y-100800000D03*
X162300000Y-116040000D03*
X190240000Y-100800000D03*
X159760000Y-116040000D03*
X192780000Y-100800000D03*
X157220000Y-116040000D03*
X195320000Y-100800000D03*
X154680000Y-116040000D03*
X197860000Y-100800000D03*
X152140000Y-116040000D03*
D12*
X200400000Y-100800000D03*
D13*
X195160000Y-96500000D03*
X197700000Y-96500000D03*
X192620000Y-96500000D03*
D14*
X185000000Y-96500000D03*
D13*
X190080000Y-96500000D03*
X187540000Y-96500000D03*
X197700000Y-86000000D03*
X195160000Y-86000000D03*
X192620000Y-86000000D03*
X190080000Y-86000000D03*
X187540000Y-86000000D03*
D14*
X185000000Y-86000000D03*
D15*
X172258400Y-107921600D03*
X170328400Y-93531600D03*
X177841400Y-105030000D03*
X176256200Y-103654700D03*
X182414700Y-102916400D03*
X183446800Y-109980500D03*
X149965000Y-107877900D03*
D16*
X190080000Y-86000000D02*
X191443700Y-84636300D01*
X191443700Y-84636300D02*
X198218000Y-84636300D01*
X198218000Y-84636300D02*
X201687200Y-88105500D01*
X201687200Y-88105500D02*
X201687200Y-101754400D01*
X201687200Y-101754400D02*
X198958800Y-104482800D01*
X198958800Y-104482800D02*
X182743800Y-104482800D01*
X182743800Y-104482800D02*
X181290000Y-105936600D01*
X181290000Y-105936600D02*
X181290000Y-106999400D01*
X181290000Y-106999400D02*
X180367800Y-107921600D01*
X180367800Y-107921600D02*
X172258400Y-107921600D01*
X169850000Y-87470000D02*
X167914700Y-89405300D01*
X167914700Y-89405300D02*
X154641100Y-89405300D01*
X154641100Y-89405300D02*
X153330300Y-90716100D01*
X153330300Y-90716100D02*
X153330300Y-91260000D01*
X190080000Y-96500000D02*
X186281100Y-92701100D01*
X186281100Y-92701100D02*
X174546700Y-92701100D01*
X174546700Y-92701100D02*
X173670000Y-91824400D01*
X173670000Y-91824400D02*
X173670000Y-90743400D01*
X173670000Y-90743400D02*
X170396600Y-87470000D01*
X170396600Y-87470000D02*
X169850000Y-87470000D01*
X152080000Y-91260000D02*
X153330300Y-91260000D01*
X195160000Y-96500000D02*
X193827200Y-97832800D01*
X193827200Y-97832800D02*
X171053600Y-97832800D01*
X171053600Y-97832800D02*
X168630300Y-100256100D01*
X168630300Y-100256100D02*
X168630300Y-100800000D01*
X167380000Y-100800000D02*
X168630300Y-100800000D01*
X197700000Y-96500000D02*
X195643800Y-98556200D01*
X195643800Y-98556200D02*
X172870200Y-98556200D01*
X172870200Y-98556200D02*
X171170300Y-100256100D01*
X171170300Y-100256100D02*
X171170300Y-100800000D01*
X169920000Y-100800000D02*
X171170300Y-100800000D01*
X185000000Y-96500000D02*
X173296800Y-96500000D01*
X173296800Y-96500000D02*
X170328400Y-93531600D01*
X187540000Y-96500000D02*
X184633900Y-93593900D01*
X184633900Y-93593900D02*
X171593300Y-93593900D01*
X171593300Y-93593900D02*
X170680700Y-92681300D01*
X170680700Y-92681300D02*
X169447700Y-92681300D01*
X169447700Y-92681300D02*
X168570300Y-91803900D01*
X168570300Y-91803900D02*
X168570300Y-91260000D01*
X167320000Y-91260000D02*
X168570300Y-91260000D01*
X185160000Y-116040000D02*
X185160000Y-114789700D01*
X185160000Y-114789700D02*
X185100000Y-114729700D01*
X185100000Y-114729700D02*
X185100000Y-106500000D01*
X169860000Y-106500000D02*
X169860000Y-107750300D01*
X169920000Y-116040000D02*
X171170300Y-116040000D01*
X171170300Y-116040000D02*
X171170300Y-115492900D01*
X171170300Y-115492900D02*
X171873500Y-114789700D01*
X171873500Y-114789700D02*
X174853100Y-114789700D01*
X174853100Y-114789700D02*
X176260500Y-113382300D01*
X176260500Y-113382300D02*
X176260500Y-109811300D01*
X176260500Y-109811300D02*
X175478800Y-109029600D01*
X175478800Y-109029600D02*
X171139300Y-109029600D01*
X171139300Y-109029600D02*
X169860000Y-107750300D01*
X168570300Y-106500000D02*
X168570300Y-105956100D01*
X168570300Y-105956100D02*
X169321100Y-105205300D01*
X169321100Y-105205300D02*
X177666100Y-105205300D01*
X177666100Y-105205300D02*
X177841400Y-105030000D01*
X167320000Y-106500000D02*
X168570300Y-106500000D01*
X164780000Y-106500000D02*
X164780000Y-105249700D01*
X176256200Y-103654700D02*
X166375000Y-103654700D01*
X166375000Y-103654700D02*
X164780000Y-105249700D01*
X162240000Y-106500000D02*
X160989700Y-106500000D01*
X162300000Y-116040000D02*
X163550300Y-116040000D01*
X163550300Y-116040000D02*
X163550300Y-116587000D01*
X163550300Y-116587000D02*
X164263700Y-117300400D01*
X164263700Y-117300400D02*
X175550000Y-117300400D01*
X175550000Y-117300400D02*
X176250400Y-116600000D01*
X176250400Y-116600000D02*
X176250400Y-114609800D01*
X176250400Y-114609800D02*
X183810400Y-107049800D01*
X183810400Y-107049800D02*
X183810400Y-105970600D01*
X183810400Y-105970600D02*
X184597900Y-105183100D01*
X184597900Y-105183100D02*
X199249000Y-105183100D01*
X199249000Y-105183100D02*
X202388400Y-102043700D01*
X202388400Y-102043700D02*
X202388400Y-87717600D01*
X202388400Y-87717600D02*
X198264800Y-83594000D01*
X198264800Y-83594000D02*
X151540500Y-83594000D01*
X151540500Y-83594000D02*
X150736400Y-84398100D01*
X150736400Y-84398100D02*
X150736400Y-91744100D01*
X150736400Y-91744100D02*
X155950000Y-96957700D01*
X155950000Y-96957700D02*
X155950000Y-101309100D01*
X155950000Y-101309100D02*
X159610500Y-104969600D01*
X159610500Y-104969600D02*
X159963300Y-104969600D01*
X159963300Y-104969600D02*
X160989700Y-105996000D01*
X160989700Y-105996000D02*
X160989700Y-106500000D01*
X159760000Y-116040000D02*
X161010300Y-116040000D01*
X161010300Y-116040000D02*
X161010300Y-116587000D01*
X161010300Y-116587000D02*
X162437700Y-118014400D01*
X162437700Y-118014400D02*
X177336500Y-118014400D01*
X177336500Y-118014400D02*
X178810000Y-116540900D01*
X178810000Y-116540900D02*
X178810000Y-114617300D01*
X178810000Y-114617300D02*
X183446800Y-109980500D01*
X182414700Y-102916400D02*
X182249200Y-102750900D01*
X182249200Y-102750900D02*
X166263600Y-102750900D01*
X166263600Y-102750900D02*
X163510000Y-105504500D01*
X163510000Y-105504500D02*
X163510000Y-107052800D01*
X163510000Y-107052800D02*
X162775500Y-107787300D01*
X162775500Y-107787300D02*
X160987300Y-107787300D01*
X160987300Y-107787300D02*
X159700000Y-106500000D01*
X155909700Y-106500000D02*
X155909700Y-105956100D01*
X155909700Y-105956100D02*
X155197600Y-105244000D01*
X155197600Y-105244000D02*
X151529500Y-105244000D01*
X151529500Y-105244000D02*
X149965000Y-106808500D01*
X149965000Y-106808500D02*
X149965000Y-107877900D01*
X157160000Y-106500000D02*
X155909700Y-106500000D01*
X195320000Y-100800000D02*
X195320000Y-99549700D01*
X195260000Y-91260000D02*
X195260000Y-92510300D01*
X195260000Y-92510300D02*
X195572600Y-92510300D01*
X195572600Y-92510300D02*
X199017300Y-95955000D01*
X199017300Y-95955000D02*
X199017300Y-97031000D01*
X199017300Y-97031000D02*
X196498600Y-99549700D01*
X196498600Y-99549700D02*
X195320000Y-99549700D01*
X154620000Y-106500000D02*
X153369700Y-106500000D01*
X154680000Y-116040000D02*
X153429700Y-116040000D01*
X153429700Y-116040000D02*
X153429700Y-115492900D01*
X153429700Y-115492900D02*
X152726500Y-114789700D01*
X152726500Y-114789700D02*
X152132400Y-114789700D01*
X152132400Y-114789700D02*
X150766400Y-113423700D01*
X150766400Y-113423700D02*
X150766400Y-109787300D01*
X150766400Y-109787300D02*
X151932800Y-108620900D01*
X151932800Y-108620900D02*
X152279900Y-108620900D01*
X152279900Y-108620900D02*
X153369700Y-107531100D01*
X153369700Y-107531100D02*
X153369700Y-106500000D01*
X152080000Y-106500000D02*
X152080000Y-107750300D01*
X152140000Y-116040000D02*
X150064700Y-113964700D01*
X150064700Y-113964700D02*
X150064700Y-109471600D01*
X150064700Y-109471600D02*
X151786000Y-107750300D01*
X151786000Y-107750300D02*
X152080000Y-107750300D01*
X197700000Y-87300300D02*
X199050400Y-88650700D01*
X199050400Y-88650700D02*
X199050400Y-94926200D01*
X199050400Y-94926200D02*
X199771800Y-95647600D01*
X199771800Y-95647600D02*
X199771800Y-98271300D01*
X199771800Y-98271300D02*
X199149600Y-98893500D01*
X199149600Y-98893500D02*
X199149600Y-101282800D01*
X199149600Y-101282800D02*
X196649900Y-103782500D01*
X196649900Y-103782500D02*
X177331000Y-103782500D01*
X177331000Y-103782500D02*
X176608500Y-104505000D01*
X176608500Y-104505000D02*
X167516300Y-104505000D01*
X167516300Y-104505000D02*
X166050000Y-105971300D01*
X166050000Y-105971300D02*
X166050000Y-107056000D01*
X166050000Y-107056000D02*
X162776000Y-110330000D01*
X162776000Y-110330000D02*
X162230000Y-110330000D01*
X197700000Y-86000000D02*
X197700000Y-87300300D01*
M02*
