M48
; DRILL file {KiCad (5.1.6)-1} date 12/03/21 11:20:59
; FORMAT={-:-/ absolute / metric / decimal}
; #@! TF.CreationDate,2021-12-03T11:20:59+02:00
; #@! TF.GenerationSoftware,Kicad,Pcbnew,(5.1.6)-1
; #@! TF.FileFunction,Plated,1,2,PTH
FMAT,2
METRIC
T1C0.400
T2C0.800
T3C1.000
%
G90
G05
T1
X149.965Y-107.878
X170.328Y-93.532
X172.258Y-107.922
X176.256Y-103.655
X177.841Y-105.03
X182.415Y-102.916
X183.447Y-109.98
T2
X152.08Y-91.26
X152.08Y-106.5
X154.62Y-91.26
X154.62Y-106.5
X157.16Y-91.26
X157.16Y-106.5
X159.7Y-91.26
X159.7Y-106.5
X162.24Y-91.26
X162.24Y-106.5
X164.78Y-91.26
X164.78Y-106.5
X167.32Y-91.26
X167.32Y-106.5
X169.86Y-91.26
X169.86Y-106.5
X172.4Y-91.26
X172.4Y-106.5
X174.94Y-91.26
X174.94Y-106.5
X177.48Y-91.26
X177.48Y-106.5
X180.02Y-91.26
X180.02Y-106.5
X182.56Y-91.26
X182.56Y-106.5
X185.1Y-91.26
X185.1Y-106.5
X187.64Y-91.26
X187.64Y-106.5
X190.18Y-91.26
X190.18Y-106.5
X192.72Y-91.26
X192.72Y-106.5
X195.26Y-91.26
X195.26Y-106.5
X197.8Y-91.26
X197.8Y-106.5
X200.34Y-91.26
X200.34Y-106.5
X152.14Y-100.8
X152.14Y-116.04
X154.68Y-100.8
X154.68Y-116.04
X157.22Y-100.8
X157.22Y-116.04
X159.76Y-100.8
X159.76Y-116.04
X162.3Y-100.8
X162.3Y-116.04
X164.84Y-100.8
X164.84Y-116.04
X167.38Y-100.8
X167.38Y-116.04
X169.92Y-100.8
X169.92Y-116.04
X172.46Y-100.8
X172.46Y-116.04
X175.0Y-100.8
X175.0Y-116.04
X177.54Y-100.8
X177.54Y-116.04
X180.08Y-100.8
X180.08Y-116.04
X182.62Y-100.8
X182.62Y-116.04
X185.16Y-100.8
X185.16Y-116.04
X187.7Y-100.8
X187.7Y-116.04
X190.24Y-100.8
X190.24Y-116.04
X192.78Y-100.8
X192.78Y-116.04
X195.32Y-100.8
X195.32Y-116.04
X197.86Y-100.8
X197.86Y-116.04
X200.4Y-100.8
X200.4Y-116.04
T3
X152.07Y-84.93
X152.07Y-87.47
X152.07Y-110.33
X152.07Y-112.87
X154.61Y-84.93
X154.61Y-87.47
X154.61Y-110.33
X154.61Y-112.87
X157.15Y-84.93
X157.15Y-87.47
X157.15Y-110.33
X157.15Y-112.87
X159.69Y-84.93
X159.69Y-87.47
X159.69Y-110.33
X159.69Y-112.87
X162.23Y-84.93
X162.23Y-87.47
X162.23Y-110.33
X162.23Y-112.87
X164.77Y-84.93
X164.77Y-87.47
X164.77Y-110.33
X164.77Y-112.87
X167.31Y-84.93
X167.31Y-87.47
X167.31Y-110.33
X167.31Y-112.87
X169.85Y-84.93
X169.85Y-87.47
X169.85Y-110.33
X169.85Y-112.87
X172.39Y-84.93
X172.39Y-87.47
X172.39Y-110.33
X172.39Y-112.87
X174.93Y-84.93
X174.93Y-87.47
X174.93Y-110.33
X174.93Y-112.87
X185.0Y-86.0
X185.0Y-96.5
X187.54Y-86.0
X187.54Y-96.5
X190.08Y-86.0
X190.08Y-96.5
X192.62Y-86.0
X192.62Y-96.5
X195.16Y-86.0
X195.16Y-96.5
X197.7Y-86.0
X197.7Y-96.5
T0
M30
