M48
; DRILL file {KiCad (5.1.6)-1} date 10/27/21 15:34:49
; FORMAT={-:-/ absolute / metric / decimal}
; #@! TF.CreationDate,2021-10-27T15:34:49+03:00
; #@! TF.GenerationSoftware,Kicad,Pcbnew,(5.1.6)-1
; #@! TF.FileFunction,Plated,1,2,PTH
FMAT,2
METRIC
T1C1.000
%
G90
G05
T1
X108.3Y-79.25
X108.3Y-89.75
X110.84Y-79.25
X110.84Y-89.75
X113.38Y-79.25
X113.38Y-89.75
X115.92Y-79.25
X115.92Y-89.75
X118.46Y-79.25
X118.46Y-89.75
X121.0Y-79.25
X121.0Y-89.75
X75.32Y-62.78
X75.32Y-65.32
X75.32Y-88.18
X75.32Y-90.72
X77.86Y-62.78
X77.86Y-65.32
X77.86Y-88.18
X77.86Y-90.72
X80.4Y-62.78
X80.4Y-65.32
X80.4Y-88.18
X80.4Y-90.72
X82.94Y-62.78
X82.94Y-65.32
X82.94Y-88.18
X82.94Y-90.72
X85.48Y-62.78
X85.48Y-65.32
X85.48Y-88.18
X85.48Y-90.72
X88.02Y-62.78
X88.02Y-65.32
X88.02Y-88.18
X88.02Y-90.72
X90.56Y-62.78
X90.56Y-65.32
X90.56Y-88.18
X90.56Y-90.72
X93.1Y-62.78
X93.1Y-65.32
X93.1Y-88.18
X93.1Y-90.72
X95.64Y-62.78
X95.64Y-65.32
X95.64Y-88.18
X95.64Y-90.72
X98.18Y-62.78
X98.18Y-65.32
X98.18Y-88.18
X98.18Y-90.72
X75.24Y-116.75
X77.78Y-116.75
X80.32Y-116.75
X82.86Y-116.75
X85.4Y-116.75
X87.94Y-116.75
X90.48Y-116.75
X93.02Y-116.75
X95.56Y-116.75
X98.1Y-116.75
X100.64Y-116.75
X103.18Y-116.75
X105.72Y-116.75
X108.26Y-116.75
X110.8Y-116.75
X113.34Y-116.75
X115.88Y-116.75
X118.42Y-116.75
X120.96Y-116.75
X123.5Y-116.75
X75.25Y-97.5
X75.25Y-112.74
X77.79Y-97.5
X77.79Y-112.74
X80.33Y-97.5
X80.33Y-112.74
X82.87Y-97.5
X82.87Y-112.74
X85.41Y-97.5
X85.41Y-112.74
X87.95Y-97.5
X87.95Y-112.74
X90.49Y-97.5
X90.49Y-112.74
X93.03Y-97.5
X93.03Y-112.74
X95.57Y-97.5
X95.57Y-112.74
X98.11Y-97.5
X98.11Y-112.74
X100.65Y-97.5
X100.65Y-112.74
X103.19Y-97.5
X103.19Y-112.74
X105.73Y-97.5
X105.73Y-112.74
X108.27Y-97.5
X108.27Y-112.74
X110.81Y-97.5
X110.81Y-112.74
X113.35Y-97.5
X113.35Y-112.74
X115.89Y-97.5
X115.89Y-112.74
X118.43Y-97.5
X118.43Y-112.74
X120.97Y-97.5
X120.97Y-112.74
X123.51Y-97.5
X123.51Y-112.74
X75.24Y-101.5
X77.78Y-101.5
X80.32Y-101.5
X82.86Y-101.5
X85.4Y-101.5
X87.94Y-101.5
X90.48Y-101.5
X93.02Y-101.5
X95.56Y-101.5
X98.1Y-101.5
X100.64Y-101.5
X103.18Y-101.5
X105.72Y-101.5
X108.26Y-101.5
X110.8Y-101.5
X113.34Y-101.5
X115.88Y-101.5
X118.42Y-101.5
X120.96Y-101.5
X123.5Y-101.5
T0
M30
