G04 #@! TF.GenerationSoftware,KiCad,Pcbnew,(5.1.6)-1*
G04 #@! TF.CreationDate,2021-10-27T15:33:21+03:00*
G04 #@! TF.ProjectId,df_selector,64665f73-656c-4656-9374-6f722e6b6963,rev?*
G04 #@! TF.SameCoordinates,Original*
G04 #@! TF.FileFunction,Soldermask,Top*
G04 #@! TF.FilePolarity,Negative*
%FSLAX46Y46*%
G04 Gerber Fmt 4.6, Leading zero omitted, Abs format (unit mm)*
G04 Created by KiCad (PCBNEW (5.1.6)-1) date 2021-10-27 15:33:21*
%MOMM*%
%LPD*%
G01*
G04 APERTURE LIST*
%ADD10O,1.700000X1.700000*%
%ADD11R,1.700000X1.700000*%
%ADD12C,1.700000*%
G04 APERTURE END LIST*
D10*
X110840000Y-89750000D03*
X108300000Y-89750000D03*
X113380000Y-89750000D03*
D11*
X121000000Y-89750000D03*
D10*
X115920000Y-89750000D03*
X118460000Y-89750000D03*
X108300000Y-79250000D03*
X110840000Y-79250000D03*
X113380000Y-79250000D03*
X115920000Y-79250000D03*
X118460000Y-79250000D03*
D11*
X121000000Y-79250000D03*
D12*
X75320000Y-88180000D03*
X75320000Y-90720000D03*
X77860000Y-90720000D03*
X77860000Y-88180000D03*
X80400000Y-90720000D03*
X80400000Y-88180000D03*
X82940000Y-90720000D03*
X82940000Y-88180000D03*
X85480000Y-90720000D03*
X85480000Y-88180000D03*
X88020000Y-90720000D03*
X88020000Y-88180000D03*
X90560000Y-90720000D03*
X90560000Y-88180000D03*
X93100000Y-90720000D03*
X93100000Y-88180000D03*
X95640000Y-90720000D03*
X95640000Y-88180000D03*
X98180000Y-90720000D03*
X98180000Y-88180000D03*
X75320000Y-65320000D03*
X75320000Y-62780000D03*
X77860000Y-65320000D03*
X77860000Y-62780000D03*
X80400000Y-65320000D03*
X80400000Y-62780000D03*
X82940000Y-65320000D03*
X82940000Y-62780000D03*
X85480000Y-65320000D03*
X85480000Y-62780000D03*
X88020000Y-65320000D03*
X88020000Y-62780000D03*
X90560000Y-65320000D03*
X90560000Y-62780000D03*
X93100000Y-65320000D03*
X93100000Y-62780000D03*
X95640000Y-65320000D03*
X95640000Y-62780000D03*
X98180000Y-65320000D03*
X98180000Y-62780000D03*
D10*
X123510000Y-112740000D03*
X75250000Y-97500000D03*
X120970000Y-112740000D03*
X77790000Y-97500000D03*
X118430000Y-112740000D03*
X80330000Y-97500000D03*
X115890000Y-112740000D03*
X82870000Y-97500000D03*
X113350000Y-112740000D03*
X85410000Y-97500000D03*
X110810000Y-112740000D03*
X87950000Y-97500000D03*
X108270000Y-112740000D03*
X90490000Y-97500000D03*
X105730000Y-112740000D03*
X93030000Y-97500000D03*
X103190000Y-112740000D03*
X95570000Y-97500000D03*
X100650000Y-112740000D03*
X98110000Y-97500000D03*
X98110000Y-112740000D03*
X100650000Y-97500000D03*
X95570000Y-112740000D03*
X103190000Y-97500000D03*
X93030000Y-112740000D03*
X105730000Y-97500000D03*
X90490000Y-112740000D03*
X108270000Y-97500000D03*
X87950000Y-112740000D03*
X110810000Y-97500000D03*
X85410000Y-112740000D03*
X113350000Y-97500000D03*
X82870000Y-112740000D03*
X115890000Y-97500000D03*
X80330000Y-112740000D03*
X118430000Y-97500000D03*
X77790000Y-112740000D03*
X120970000Y-97500000D03*
X75250000Y-112740000D03*
D11*
X123510000Y-97500000D03*
X123500000Y-101500000D03*
D10*
X120960000Y-101500000D03*
X118420000Y-101500000D03*
X115880000Y-101500000D03*
X113340000Y-101500000D03*
X110800000Y-101500000D03*
X108260000Y-101500000D03*
X105720000Y-101500000D03*
X103180000Y-101500000D03*
X100640000Y-101500000D03*
X98100000Y-101500000D03*
X95560000Y-101500000D03*
X93020000Y-101500000D03*
X90480000Y-101500000D03*
X87940000Y-101500000D03*
X85400000Y-101500000D03*
X82860000Y-101500000D03*
X80320000Y-101500000D03*
X77780000Y-101500000D03*
X75240000Y-101500000D03*
X75240000Y-116750000D03*
X77780000Y-116750000D03*
X80320000Y-116750000D03*
X82860000Y-116750000D03*
X85400000Y-116750000D03*
X87940000Y-116750000D03*
X90480000Y-116750000D03*
X93020000Y-116750000D03*
X95560000Y-116750000D03*
X98100000Y-116750000D03*
X100640000Y-116750000D03*
X103180000Y-116750000D03*
X105720000Y-116750000D03*
X108260000Y-116750000D03*
X110800000Y-116750000D03*
X113340000Y-116750000D03*
X115880000Y-116750000D03*
X118420000Y-116750000D03*
X120960000Y-116750000D03*
D11*
X123500000Y-116750000D03*
M02*
