G04 #@! TF.GenerationSoftware,KiCad,Pcbnew,(5.1.6)-1*
G04 #@! TF.CreationDate,2021-12-03T11:19:17+02:00*
G04 #@! TF.ProjectId,df_selector_inverted,64665f73-656c-4656-9374-6f725f696e76,rev?*
G04 #@! TF.SameCoordinates,Original*
G04 #@! TF.FileFunction,Legend,Bot*
G04 #@! TF.FilePolarity,Positive*
%FSLAX46Y46*%
G04 Gerber Fmt 4.6, Leading zero omitted, Abs format (unit mm)*
G04 Created by KiCad (PCBNEW (5.1.6)-1) date 2021-12-03 11:19:17*
%MOMM*%
%LPD*%
G01*
G04 APERTURE LIST*
%ADD10C,0.150000*%
%ADD11C,0.120000*%
%ADD12O,1.700000X1.700000*%
%ADD13R,1.700000X1.700000*%
%ADD14C,1.700000*%
G04 APERTURE END LIST*
D10*
X74702380Y-102859523D02*
X74702380Y-102383333D01*
X75178571Y-102335714D01*
X75130952Y-102383333D01*
X75083333Y-102478571D01*
X75083333Y-102716666D01*
X75130952Y-102811904D01*
X75178571Y-102859523D01*
X75273809Y-102907142D01*
X75511904Y-102907142D01*
X75607142Y-102859523D01*
X75654761Y-102811904D01*
X75702380Y-102716666D01*
X75702380Y-102478571D01*
X75654761Y-102383333D01*
X75607142Y-102335714D01*
X74702380Y-103192857D02*
X75702380Y-103526190D01*
X74702380Y-103859523D01*
X93414761Y-102180952D02*
X93462380Y-102323809D01*
X93462380Y-102561904D01*
X93414761Y-102657142D01*
X93367142Y-102704761D01*
X93271904Y-102752380D01*
X93176666Y-102752380D01*
X93081428Y-102704761D01*
X93033809Y-102657142D01*
X92986190Y-102561904D01*
X92938571Y-102371428D01*
X92890952Y-102276190D01*
X92843333Y-102228571D01*
X92748095Y-102180952D01*
X92652857Y-102180952D01*
X92557619Y-102228571D01*
X92510000Y-102276190D01*
X92462380Y-102371428D01*
X92462380Y-102609523D01*
X92510000Y-102752380D01*
X92938571Y-103180952D02*
X92938571Y-103514285D01*
X93462380Y-103657142D02*
X93462380Y-103180952D01*
X92462380Y-103180952D01*
X92462380Y-103657142D01*
X93462380Y-104561904D02*
X93462380Y-104085714D01*
X92462380Y-104085714D01*
X92462380Y-105085714D02*
X92462380Y-105180952D01*
X92510000Y-105276190D01*
X92557619Y-105323809D01*
X92652857Y-105371428D01*
X92843333Y-105419047D01*
X93081428Y-105419047D01*
X93271904Y-105371428D01*
X93367142Y-105323809D01*
X93414761Y-105276190D01*
X93462380Y-105180952D01*
X93462380Y-105085714D01*
X93414761Y-104990476D01*
X93367142Y-104942857D01*
X93271904Y-104895238D01*
X93081428Y-104847619D01*
X92843333Y-104847619D01*
X92652857Y-104895238D01*
X92557619Y-104942857D01*
X92510000Y-104990476D01*
X92462380Y-105085714D01*
X91054761Y-102180952D02*
X91102380Y-102323809D01*
X91102380Y-102561904D01*
X91054761Y-102657142D01*
X91007142Y-102704761D01*
X90911904Y-102752380D01*
X90816666Y-102752380D01*
X90721428Y-102704761D01*
X90673809Y-102657142D01*
X90626190Y-102561904D01*
X90578571Y-102371428D01*
X90530952Y-102276190D01*
X90483333Y-102228571D01*
X90388095Y-102180952D01*
X90292857Y-102180952D01*
X90197619Y-102228571D01*
X90150000Y-102276190D01*
X90102380Y-102371428D01*
X90102380Y-102609523D01*
X90150000Y-102752380D01*
X90578571Y-103180952D02*
X90578571Y-103514285D01*
X91102380Y-103657142D02*
X91102380Y-103180952D01*
X90102380Y-103180952D01*
X90102380Y-103657142D01*
X91102380Y-104561904D02*
X91102380Y-104085714D01*
X90102380Y-104085714D01*
X91102380Y-105419047D02*
X91102380Y-104847619D01*
X91102380Y-105133333D02*
X90102380Y-105133333D01*
X90245238Y-105038095D01*
X90340476Y-104942857D01*
X90388095Y-104847619D01*
D11*
X73910000Y-101630000D02*
X73910000Y-98970000D01*
X122230000Y-101630000D02*
X73910000Y-101630000D01*
X122230000Y-98970000D02*
X73910000Y-98970000D01*
X122230000Y-101630000D02*
X122230000Y-98970000D01*
X123500000Y-101630000D02*
X124830000Y-101630000D01*
X124830000Y-101630000D02*
X124830000Y-100300000D01*
X124830000Y-116880000D02*
X124830000Y-115550000D01*
X123500000Y-116880000D02*
X124830000Y-116880000D01*
X122230000Y-116880000D02*
X122230000Y-114220000D01*
X122230000Y-114220000D02*
X73910000Y-114220000D01*
X122230000Y-116880000D02*
X73910000Y-116880000D01*
X73910000Y-116880000D02*
X73910000Y-114220000D01*
D10*
%LPC*%
D12*
X119760000Y-123250000D03*
X122300000Y-123250000D03*
X117220000Y-123250000D03*
D13*
X109600000Y-123250000D03*
D12*
X114680000Y-123250000D03*
X112140000Y-123250000D03*
X122300000Y-133750000D03*
X119760000Y-133750000D03*
X117220000Y-133750000D03*
X114680000Y-133750000D03*
X112140000Y-133750000D03*
D13*
X109600000Y-133750000D03*
D14*
X76420000Y-147980000D03*
X76420000Y-150520000D03*
X78960000Y-150520000D03*
X78960000Y-147980000D03*
X81500000Y-150520000D03*
X81500000Y-147980000D03*
X84040000Y-150520000D03*
X84040000Y-147980000D03*
X86580000Y-150520000D03*
X86580000Y-147980000D03*
X89120000Y-150520000D03*
X89120000Y-147980000D03*
X91660000Y-150520000D03*
X91660000Y-147980000D03*
X94200000Y-150520000D03*
X94200000Y-147980000D03*
X96740000Y-150520000D03*
X96740000Y-147980000D03*
X99280000Y-150520000D03*
X99280000Y-147980000D03*
X76420000Y-125120000D03*
X76420000Y-122580000D03*
X78960000Y-125120000D03*
X78960000Y-122580000D03*
X81500000Y-125120000D03*
X81500000Y-122580000D03*
X84040000Y-125120000D03*
X84040000Y-122580000D03*
X86580000Y-125120000D03*
X86580000Y-122580000D03*
X89120000Y-125120000D03*
X89120000Y-122580000D03*
X91660000Y-125120000D03*
X91660000Y-122580000D03*
X94200000Y-125120000D03*
X94200000Y-122580000D03*
X96740000Y-125120000D03*
X96740000Y-122580000D03*
X99280000Y-125120000D03*
X99280000Y-122580000D03*
D12*
X123510000Y-111540000D03*
X75250000Y-96300000D03*
X120970000Y-111540000D03*
X77790000Y-96300000D03*
X118430000Y-111540000D03*
X80330000Y-96300000D03*
X115890000Y-111540000D03*
X82870000Y-96300000D03*
X113350000Y-111540000D03*
X85410000Y-96300000D03*
X110810000Y-111540000D03*
X87950000Y-96300000D03*
X108270000Y-111540000D03*
X90490000Y-96300000D03*
X105730000Y-111540000D03*
X93030000Y-96300000D03*
X103190000Y-111540000D03*
X95570000Y-96300000D03*
X100650000Y-111540000D03*
X98110000Y-96300000D03*
X98110000Y-111540000D03*
X100650000Y-96300000D03*
X95570000Y-111540000D03*
X103190000Y-96300000D03*
X93030000Y-111540000D03*
X105730000Y-96300000D03*
X90490000Y-111540000D03*
X108270000Y-96300000D03*
X87950000Y-111540000D03*
X110810000Y-96300000D03*
X85410000Y-111540000D03*
X113350000Y-96300000D03*
X82870000Y-111540000D03*
X115890000Y-96300000D03*
X80330000Y-111540000D03*
X118430000Y-96300000D03*
X77790000Y-111540000D03*
X120970000Y-96300000D03*
X75250000Y-111540000D03*
D13*
X123510000Y-96300000D03*
X123500000Y-100300000D03*
D12*
X120960000Y-100300000D03*
X118420000Y-100300000D03*
X115880000Y-100300000D03*
X113340000Y-100300000D03*
X110800000Y-100300000D03*
X108260000Y-100300000D03*
X105720000Y-100300000D03*
X103180000Y-100300000D03*
X100640000Y-100300000D03*
X98100000Y-100300000D03*
X95560000Y-100300000D03*
X93020000Y-100300000D03*
X90480000Y-100300000D03*
X87940000Y-100300000D03*
X85400000Y-100300000D03*
X82860000Y-100300000D03*
X80320000Y-100300000D03*
X77780000Y-100300000D03*
X75240000Y-100300000D03*
X75240000Y-115550000D03*
X77780000Y-115550000D03*
X80320000Y-115550000D03*
X82860000Y-115550000D03*
X85400000Y-115550000D03*
X87940000Y-115550000D03*
X90480000Y-115550000D03*
X93020000Y-115550000D03*
X95560000Y-115550000D03*
X98100000Y-115550000D03*
X100640000Y-115550000D03*
X103180000Y-115550000D03*
X105720000Y-115550000D03*
X108260000Y-115550000D03*
X110800000Y-115550000D03*
X113340000Y-115550000D03*
X115880000Y-115550000D03*
X118420000Y-115550000D03*
X120960000Y-115550000D03*
D13*
X123500000Y-115550000D03*
M02*
