G04 #@! TF.GenerationSoftware,KiCad,Pcbnew,(5.1.6)-1*
G04 #@! TF.CreationDate,2021-12-03T11:19:17+02:00*
G04 #@! TF.ProjectId,df_selector_inverted,64665f73-656c-4656-9374-6f725f696e76,rev?*
G04 #@! TF.SameCoordinates,Original*
G04 #@! TF.FileFunction,Legend,Top*
G04 #@! TF.FilePolarity,Positive*
%FSLAX46Y46*%
G04 Gerber Fmt 4.6, Leading zero omitted, Abs format (unit mm)*
G04 Created by KiCad (PCBNEW (5.1.6)-1) date 2021-12-03 11:19:17*
%MOMM*%
%LPD*%
G01*
G04 APERTURE LIST*
%ADD10C,0.150000*%
%ADD11C,0.120000*%
%ADD12C,0.100000*%
%ADD13C,0.010000*%
%ADD14O,1.700000X1.700000*%
%ADD15R,1.700000X1.700000*%
%ADD16C,1.700000*%
G04 APERTURE END LIST*
D10*
X74752380Y-98490476D02*
X74752380Y-98966666D01*
X75228571Y-99014285D01*
X75180952Y-98966666D01*
X75133333Y-98871428D01*
X75133333Y-98633333D01*
X75180952Y-98538095D01*
X75228571Y-98490476D01*
X75323809Y-98442857D01*
X75561904Y-98442857D01*
X75657142Y-98490476D01*
X75704761Y-98538095D01*
X75752380Y-98633333D01*
X75752380Y-98871428D01*
X75704761Y-98966666D01*
X75657142Y-99014285D01*
X74752380Y-98157142D02*
X75752380Y-97823809D01*
X74752380Y-97490476D01*
X93552380Y-146538095D02*
X93552380Y-145919047D01*
X93933333Y-146252380D01*
X93933333Y-146109523D01*
X93980952Y-146014285D01*
X94028571Y-145966666D01*
X94123809Y-145919047D01*
X94361904Y-145919047D01*
X94457142Y-145966666D01*
X94504761Y-146014285D01*
X94552380Y-146109523D01*
X94552380Y-146395238D01*
X94504761Y-146490476D01*
X94457142Y-146538095D01*
X93552380Y-145633333D02*
X94552380Y-145300000D01*
X93552380Y-144966666D01*
X93552380Y-144728571D02*
X93552380Y-144109523D01*
X93933333Y-144442857D01*
X93933333Y-144300000D01*
X93980952Y-144204761D01*
X94028571Y-144157142D01*
X94123809Y-144109523D01*
X94361904Y-144109523D01*
X94457142Y-144157142D01*
X94504761Y-144204761D01*
X94552380Y-144300000D01*
X94552380Y-144585714D01*
X94504761Y-144680952D01*
X94457142Y-144728571D01*
X93752380Y-127390476D02*
X93752380Y-127866666D01*
X94228571Y-127914285D01*
X94180952Y-127866666D01*
X94133333Y-127771428D01*
X94133333Y-127533333D01*
X94180952Y-127438095D01*
X94228571Y-127390476D01*
X94323809Y-127342857D01*
X94561904Y-127342857D01*
X94657142Y-127390476D01*
X94704761Y-127438095D01*
X94752380Y-127533333D01*
X94752380Y-127771428D01*
X94704761Y-127866666D01*
X94657142Y-127914285D01*
X93752380Y-127057142D02*
X94752380Y-126723809D01*
X93752380Y-126390476D01*
X89504761Y-144121428D02*
X89552380Y-143978571D01*
X89552380Y-143740476D01*
X89504761Y-143645238D01*
X89457142Y-143597619D01*
X89361904Y-143550000D01*
X89266666Y-143550000D01*
X89171428Y-143597619D01*
X89123809Y-143645238D01*
X89076190Y-143740476D01*
X89028571Y-143930952D01*
X88980952Y-144026190D01*
X88933333Y-144073809D01*
X88838095Y-144121428D01*
X88742857Y-144121428D01*
X88647619Y-144073809D01*
X88600000Y-144026190D01*
X88552380Y-143930952D01*
X88552380Y-143692857D01*
X88600000Y-143550000D01*
X89552380Y-142597619D02*
X89552380Y-143169047D01*
X89552380Y-142883333D02*
X88552380Y-142883333D01*
X88695238Y-142978571D01*
X88790476Y-143073809D01*
X88838095Y-143169047D01*
X89647619Y-142407142D02*
X89647619Y-141645238D01*
X88552380Y-141216666D02*
X88552380Y-141026190D01*
X88600000Y-140930952D01*
X88695238Y-140835714D01*
X88885714Y-140788095D01*
X89219047Y-140788095D01*
X89409523Y-140835714D01*
X89504761Y-140930952D01*
X89552380Y-141026190D01*
X89552380Y-141216666D01*
X89504761Y-141311904D01*
X89409523Y-141407142D01*
X89219047Y-141454761D01*
X88885714Y-141454761D01*
X88695238Y-141407142D01*
X88600000Y-141311904D01*
X88552380Y-141216666D01*
X88552380Y-140359523D02*
X89361904Y-140359523D01*
X89457142Y-140311904D01*
X89504761Y-140264285D01*
X89552380Y-140169047D01*
X89552380Y-139978571D01*
X89504761Y-139883333D01*
X89457142Y-139835714D01*
X89361904Y-139788095D01*
X88552380Y-139788095D01*
X88552380Y-139454761D02*
X88552380Y-138883333D01*
X89552380Y-139169047D02*
X88552380Y-139169047D01*
X87004761Y-144121428D02*
X87052380Y-143978571D01*
X87052380Y-143740476D01*
X87004761Y-143645238D01*
X86957142Y-143597619D01*
X86861904Y-143550000D01*
X86766666Y-143550000D01*
X86671428Y-143597619D01*
X86623809Y-143645238D01*
X86576190Y-143740476D01*
X86528571Y-143930952D01*
X86480952Y-144026190D01*
X86433333Y-144073809D01*
X86338095Y-144121428D01*
X86242857Y-144121428D01*
X86147619Y-144073809D01*
X86100000Y-144026190D01*
X86052380Y-143930952D01*
X86052380Y-143692857D01*
X86100000Y-143550000D01*
X86052380Y-142930952D02*
X86052380Y-142835714D01*
X86100000Y-142740476D01*
X86147619Y-142692857D01*
X86242857Y-142645238D01*
X86433333Y-142597619D01*
X86671428Y-142597619D01*
X86861904Y-142645238D01*
X86957142Y-142692857D01*
X87004761Y-142740476D01*
X87052380Y-142835714D01*
X87052380Y-142930952D01*
X87004761Y-143026190D01*
X86957142Y-143073809D01*
X86861904Y-143121428D01*
X86671428Y-143169047D01*
X86433333Y-143169047D01*
X86242857Y-143121428D01*
X86147619Y-143073809D01*
X86100000Y-143026190D01*
X86052380Y-142930952D01*
X87147619Y-142407142D02*
X87147619Y-141645238D01*
X86052380Y-141216666D02*
X86052380Y-141026190D01*
X86100000Y-140930952D01*
X86195238Y-140835714D01*
X86385714Y-140788095D01*
X86719047Y-140788095D01*
X86909523Y-140835714D01*
X87004761Y-140930952D01*
X87052380Y-141026190D01*
X87052380Y-141216666D01*
X87004761Y-141311904D01*
X86909523Y-141407142D01*
X86719047Y-141454761D01*
X86385714Y-141454761D01*
X86195238Y-141407142D01*
X86100000Y-141311904D01*
X86052380Y-141216666D01*
X86052380Y-140359523D02*
X86861904Y-140359523D01*
X86957142Y-140311904D01*
X87004761Y-140264285D01*
X87052380Y-140169047D01*
X87052380Y-139978571D01*
X87004761Y-139883333D01*
X86957142Y-139835714D01*
X86861904Y-139788095D01*
X86052380Y-139788095D01*
X86052380Y-139454761D02*
X86052380Y-138883333D01*
X87052380Y-139169047D02*
X86052380Y-139169047D01*
X84504761Y-143954761D02*
X84552380Y-143811904D01*
X84552380Y-143573809D01*
X84504761Y-143478571D01*
X84457142Y-143430952D01*
X84361904Y-143383333D01*
X84266666Y-143383333D01*
X84171428Y-143430952D01*
X84123809Y-143478571D01*
X84076190Y-143573809D01*
X84028571Y-143764285D01*
X83980952Y-143859523D01*
X83933333Y-143907142D01*
X83838095Y-143954761D01*
X83742857Y-143954761D01*
X83647619Y-143907142D01*
X83600000Y-143859523D01*
X83552380Y-143764285D01*
X83552380Y-143526190D01*
X83600000Y-143383333D01*
X84552380Y-142430952D02*
X84552380Y-143002380D01*
X84552380Y-142716666D02*
X83552380Y-142716666D01*
X83695238Y-142811904D01*
X83790476Y-142907142D01*
X83838095Y-143002380D01*
X84647619Y-142240476D02*
X84647619Y-141478571D01*
X84552380Y-141240476D02*
X83552380Y-141240476D01*
X84552380Y-140764285D02*
X83552380Y-140764285D01*
X84552380Y-140192857D01*
X83552380Y-140192857D01*
X81754761Y-143954761D02*
X81802380Y-143811904D01*
X81802380Y-143573809D01*
X81754761Y-143478571D01*
X81707142Y-143430952D01*
X81611904Y-143383333D01*
X81516666Y-143383333D01*
X81421428Y-143430952D01*
X81373809Y-143478571D01*
X81326190Y-143573809D01*
X81278571Y-143764285D01*
X81230952Y-143859523D01*
X81183333Y-143907142D01*
X81088095Y-143954761D01*
X80992857Y-143954761D01*
X80897619Y-143907142D01*
X80850000Y-143859523D01*
X80802380Y-143764285D01*
X80802380Y-143526190D01*
X80850000Y-143383333D01*
X80802380Y-142764285D02*
X80802380Y-142669047D01*
X80850000Y-142573809D01*
X80897619Y-142526190D01*
X80992857Y-142478571D01*
X81183333Y-142430952D01*
X81421428Y-142430952D01*
X81611904Y-142478571D01*
X81707142Y-142526190D01*
X81754761Y-142573809D01*
X81802380Y-142669047D01*
X81802380Y-142764285D01*
X81754761Y-142859523D01*
X81707142Y-142907142D01*
X81611904Y-142954761D01*
X81421428Y-143002380D01*
X81183333Y-143002380D01*
X80992857Y-142954761D01*
X80897619Y-142907142D01*
X80850000Y-142859523D01*
X80802380Y-142764285D01*
X81897619Y-142240476D02*
X81897619Y-141478571D01*
X81802380Y-141240476D02*
X80802380Y-141240476D01*
X81802380Y-140764285D02*
X80802380Y-140764285D01*
X81802380Y-140192857D01*
X80802380Y-140192857D01*
X115397619Y-136261904D02*
X115397619Y-136880952D01*
X115016666Y-136547619D01*
X115016666Y-136690476D01*
X114969047Y-136785714D01*
X114921428Y-136833333D01*
X114826190Y-136880952D01*
X114588095Y-136880952D01*
X114492857Y-136833333D01*
X114445238Y-136785714D01*
X114397619Y-136690476D01*
X114397619Y-136404761D01*
X114445238Y-136309523D01*
X114492857Y-136261904D01*
X115397619Y-137166666D02*
X114397619Y-137500000D01*
X115397619Y-137833333D01*
X115397619Y-138071428D02*
X115397619Y-138690476D01*
X115016666Y-138357142D01*
X115016666Y-138500000D01*
X114969047Y-138595238D01*
X114921428Y-138642857D01*
X114826190Y-138690476D01*
X114588095Y-138690476D01*
X114492857Y-138642857D01*
X114445238Y-138595238D01*
X114397619Y-138500000D01*
X114397619Y-138214285D01*
X114445238Y-138119047D01*
X114492857Y-138071428D01*
X115247619Y-119709523D02*
X115247619Y-119233333D01*
X114771428Y-119185714D01*
X114819047Y-119233333D01*
X114866666Y-119328571D01*
X114866666Y-119566666D01*
X114819047Y-119661904D01*
X114771428Y-119709523D01*
X114676190Y-119757142D01*
X114438095Y-119757142D01*
X114342857Y-119709523D01*
X114295238Y-119661904D01*
X114247619Y-119566666D01*
X114247619Y-119328571D01*
X114295238Y-119233333D01*
X114342857Y-119185714D01*
X115247619Y-120042857D02*
X114247619Y-120376190D01*
X115247619Y-120709523D01*
X112428571Y-149741666D02*
X112904761Y-149741666D01*
X112333333Y-150027380D02*
X112666666Y-149027380D01*
X113000000Y-150027380D01*
X113809523Y-149027380D02*
X113333333Y-149027380D01*
X113285714Y-149503571D01*
X113333333Y-149455952D01*
X113428571Y-149408333D01*
X113666666Y-149408333D01*
X113761904Y-149455952D01*
X113809523Y-149503571D01*
X113857142Y-149598809D01*
X113857142Y-149836904D01*
X113809523Y-149932142D01*
X113761904Y-149979761D01*
X113666666Y-150027380D01*
X113428571Y-150027380D01*
X113333333Y-149979761D01*
X113285714Y-149932142D01*
X114476190Y-149027380D02*
X114571428Y-149027380D01*
X114666666Y-149075000D01*
X114714285Y-149122619D01*
X114761904Y-149217857D01*
X114809523Y-149408333D01*
X114809523Y-149646428D01*
X114761904Y-149836904D01*
X114714285Y-149932142D01*
X114666666Y-149979761D01*
X114571428Y-150027380D01*
X114476190Y-150027380D01*
X114380952Y-149979761D01*
X114333333Y-149932142D01*
X114285714Y-149836904D01*
X114238095Y-149646428D01*
X114238095Y-149408333D01*
X114285714Y-149217857D01*
X114333333Y-149122619D01*
X114380952Y-149075000D01*
X114476190Y-149027380D01*
X115428571Y-149027380D02*
X115523809Y-149027380D01*
X115619047Y-149075000D01*
X115666666Y-149122619D01*
X115714285Y-149217857D01*
X115761904Y-149408333D01*
X115761904Y-149646428D01*
X115714285Y-149836904D01*
X115666666Y-149932142D01*
X115619047Y-149979761D01*
X115523809Y-150027380D01*
X115428571Y-150027380D01*
X115333333Y-149979761D01*
X115285714Y-149932142D01*
X115238095Y-149836904D01*
X115190476Y-149646428D01*
X115190476Y-149408333D01*
X115238095Y-149217857D01*
X115285714Y-149122619D01*
X115333333Y-149075000D01*
X115428571Y-149027380D01*
X116952380Y-150027380D02*
X116952380Y-149027380D01*
X116952380Y-149408333D02*
X117047619Y-149360714D01*
X117238095Y-149360714D01*
X117333333Y-149408333D01*
X117380952Y-149455952D01*
X117428571Y-149551190D01*
X117428571Y-149836904D01*
X117380952Y-149932142D01*
X117333333Y-149979761D01*
X117238095Y-150027380D01*
X117047619Y-150027380D01*
X116952380Y-149979761D01*
X118000000Y-150027380D02*
X117904761Y-149979761D01*
X117857142Y-149932142D01*
X117809523Y-149836904D01*
X117809523Y-149551190D01*
X117857142Y-149455952D01*
X117904761Y-149408333D01*
X118000000Y-149360714D01*
X118142857Y-149360714D01*
X118238095Y-149408333D01*
X118285714Y-149455952D01*
X118333333Y-149551190D01*
X118333333Y-149836904D01*
X118285714Y-149932142D01*
X118238095Y-149979761D01*
X118142857Y-150027380D01*
X118000000Y-150027380D01*
X118904761Y-150027380D02*
X118809523Y-149979761D01*
X118761904Y-149932142D01*
X118714285Y-149836904D01*
X118714285Y-149551190D01*
X118761904Y-149455952D01*
X118809523Y-149408333D01*
X118904761Y-149360714D01*
X119047619Y-149360714D01*
X119142857Y-149408333D01*
X119190476Y-149455952D01*
X119238095Y-149551190D01*
X119238095Y-149836904D01*
X119190476Y-149932142D01*
X119142857Y-149979761D01*
X119047619Y-150027380D01*
X118904761Y-150027380D01*
X119523809Y-149360714D02*
X119904761Y-149360714D01*
X119666666Y-149027380D02*
X119666666Y-149884523D01*
X119714285Y-149979761D01*
X119809523Y-150027380D01*
X119904761Y-150027380D01*
X121428571Y-150027380D02*
X121428571Y-149027380D01*
X121428571Y-149979761D02*
X121333333Y-150027380D01*
X121142857Y-150027380D01*
X121047619Y-149979761D01*
X121000000Y-149932142D01*
X120952380Y-149836904D01*
X120952380Y-149551190D01*
X121000000Y-149455952D01*
X121047619Y-149408333D01*
X121142857Y-149360714D01*
X121333333Y-149360714D01*
X121428571Y-149408333D01*
X121904761Y-150027380D02*
X121904761Y-149360714D01*
X121904761Y-149027380D02*
X121857142Y-149075000D01*
X121904761Y-149122619D01*
X121952380Y-149075000D01*
X121904761Y-149027380D01*
X121904761Y-149122619D01*
X122333333Y-149979761D02*
X122428571Y-150027380D01*
X122619047Y-150027380D01*
X122714285Y-149979761D01*
X122761904Y-149884523D01*
X122761904Y-149836904D01*
X122714285Y-149741666D01*
X122619047Y-149694047D01*
X122476190Y-149694047D01*
X122380952Y-149646428D01*
X122333333Y-149551190D01*
X122333333Y-149503571D01*
X122380952Y-149408333D01*
X122476190Y-149360714D01*
X122619047Y-149360714D01*
X122714285Y-149408333D01*
X123190476Y-150027380D02*
X123190476Y-149027380D01*
X123285714Y-149646428D02*
X123571428Y-150027380D01*
X123571428Y-149360714D02*
X123190476Y-149741666D01*
X111761904Y-151010714D02*
X111952380Y-151677380D01*
X112142857Y-151201190D01*
X112333333Y-151677380D01*
X112523809Y-151010714D01*
X112904761Y-151677380D02*
X112904761Y-151010714D01*
X112904761Y-150677380D02*
X112857142Y-150725000D01*
X112904761Y-150772619D01*
X112952380Y-150725000D01*
X112904761Y-150677380D01*
X112904761Y-150772619D01*
X113380952Y-151677380D02*
X113380952Y-151010714D01*
X113380952Y-151201190D02*
X113428571Y-151105952D01*
X113476190Y-151058333D01*
X113571428Y-151010714D01*
X113666666Y-151010714D01*
X114380952Y-151629761D02*
X114285714Y-151677380D01*
X114095238Y-151677380D01*
X114000000Y-151629761D01*
X113952380Y-151534523D01*
X113952380Y-151153571D01*
X114000000Y-151058333D01*
X114095238Y-151010714D01*
X114285714Y-151010714D01*
X114380952Y-151058333D01*
X114428571Y-151153571D01*
X114428571Y-151248809D01*
X113952380Y-151344047D01*
X115000000Y-151677380D02*
X114904761Y-151629761D01*
X114857142Y-151534523D01*
X114857142Y-150677380D01*
X115761904Y-151629761D02*
X115666666Y-151677380D01*
X115476190Y-151677380D01*
X115380952Y-151629761D01*
X115333333Y-151534523D01*
X115333333Y-151153571D01*
X115380952Y-151058333D01*
X115476190Y-151010714D01*
X115666666Y-151010714D01*
X115761904Y-151058333D01*
X115809523Y-151153571D01*
X115809523Y-151248809D01*
X115333333Y-151344047D01*
X116190476Y-151629761D02*
X116285714Y-151677380D01*
X116476190Y-151677380D01*
X116571428Y-151629761D01*
X116619047Y-151534523D01*
X116619047Y-151486904D01*
X116571428Y-151391666D01*
X116476190Y-151344047D01*
X116333333Y-151344047D01*
X116238095Y-151296428D01*
X116190476Y-151201190D01*
X116190476Y-151153571D01*
X116238095Y-151058333D01*
X116333333Y-151010714D01*
X116476190Y-151010714D01*
X116571428Y-151058333D01*
X117000000Y-151629761D02*
X117095238Y-151677380D01*
X117285714Y-151677380D01*
X117380952Y-151629761D01*
X117428571Y-151534523D01*
X117428571Y-151486904D01*
X117380952Y-151391666D01*
X117285714Y-151344047D01*
X117142857Y-151344047D01*
X117047619Y-151296428D01*
X117000000Y-151201190D01*
X117000000Y-151153571D01*
X117047619Y-151058333D01*
X117142857Y-151010714D01*
X117285714Y-151010714D01*
X117380952Y-151058333D01*
X118571428Y-151629761D02*
X118666666Y-151677380D01*
X118857142Y-151677380D01*
X118952380Y-151629761D01*
X119000000Y-151534523D01*
X119000000Y-151486904D01*
X118952380Y-151391666D01*
X118857142Y-151344047D01*
X118714285Y-151344047D01*
X118619047Y-151296428D01*
X118571428Y-151201190D01*
X118571428Y-151153571D01*
X118619047Y-151058333D01*
X118714285Y-151010714D01*
X118857142Y-151010714D01*
X118952380Y-151058333D01*
X119809523Y-151629761D02*
X119714285Y-151677380D01*
X119523809Y-151677380D01*
X119428571Y-151629761D01*
X119380952Y-151534523D01*
X119380952Y-151153571D01*
X119428571Y-151058333D01*
X119523809Y-151010714D01*
X119714285Y-151010714D01*
X119809523Y-151058333D01*
X119857142Y-151153571D01*
X119857142Y-151248809D01*
X119380952Y-151344047D01*
X120428571Y-151677380D02*
X120333333Y-151629761D01*
X120285714Y-151534523D01*
X120285714Y-150677380D01*
X121190476Y-151629761D02*
X121095238Y-151677380D01*
X120904761Y-151677380D01*
X120809523Y-151629761D01*
X120761904Y-151534523D01*
X120761904Y-151153571D01*
X120809523Y-151058333D01*
X120904761Y-151010714D01*
X121095238Y-151010714D01*
X121190476Y-151058333D01*
X121238095Y-151153571D01*
X121238095Y-151248809D01*
X120761904Y-151344047D01*
X122095238Y-151629761D02*
X122000000Y-151677380D01*
X121809523Y-151677380D01*
X121714285Y-151629761D01*
X121666666Y-151582142D01*
X121619047Y-151486904D01*
X121619047Y-151201190D01*
X121666666Y-151105952D01*
X121714285Y-151058333D01*
X121809523Y-151010714D01*
X122000000Y-151010714D01*
X122095238Y-151058333D01*
X122380952Y-151010714D02*
X122761904Y-151010714D01*
X122523809Y-150677380D02*
X122523809Y-151534523D01*
X122571428Y-151629761D01*
X122666666Y-151677380D01*
X122761904Y-151677380D01*
X123238095Y-151677380D02*
X123142857Y-151629761D01*
X123095238Y-151582142D01*
X123047619Y-151486904D01*
X123047619Y-151201190D01*
X123095238Y-151105952D01*
X123142857Y-151058333D01*
X123238095Y-151010714D01*
X123380952Y-151010714D01*
X123476190Y-151058333D01*
X123523809Y-151105952D01*
X123571428Y-151201190D01*
X123571428Y-151486904D01*
X123523809Y-151582142D01*
X123476190Y-151629761D01*
X123380952Y-151677380D01*
X123238095Y-151677380D01*
X124000000Y-151677380D02*
X124000000Y-151010714D01*
X124000000Y-151201190D02*
X124047619Y-151105952D01*
X124095238Y-151058333D01*
X124190476Y-151010714D01*
X124285714Y-151010714D01*
X74052380Y-151609523D02*
X73052380Y-151609523D01*
X74052380Y-151180952D02*
X73528571Y-151180952D01*
X73433333Y-151228571D01*
X73385714Y-151323809D01*
X73385714Y-151466666D01*
X73433333Y-151561904D01*
X73480952Y-151609523D01*
X73385714Y-150847619D02*
X73385714Y-150466666D01*
X73052380Y-150704761D02*
X73909523Y-150704761D01*
X74004761Y-150657142D01*
X74052380Y-150561904D01*
X74052380Y-150466666D01*
X73385714Y-150276190D02*
X73385714Y-149895238D01*
X73052380Y-150133333D02*
X73909523Y-150133333D01*
X74004761Y-150085714D01*
X74052380Y-149990476D01*
X74052380Y-149895238D01*
X73385714Y-149561904D02*
X74385714Y-149561904D01*
X73433333Y-149561904D02*
X73385714Y-149466666D01*
X73385714Y-149276190D01*
X73433333Y-149180952D01*
X73480952Y-149133333D01*
X73576190Y-149085714D01*
X73861904Y-149085714D01*
X73957142Y-149133333D01*
X74004761Y-149180952D01*
X74052380Y-149276190D01*
X74052380Y-149466666D01*
X74004761Y-149561904D01*
X74004761Y-148704761D02*
X74052380Y-148609523D01*
X74052380Y-148419047D01*
X74004761Y-148323809D01*
X73909523Y-148276190D01*
X73861904Y-148276190D01*
X73766666Y-148323809D01*
X73719047Y-148419047D01*
X73719047Y-148561904D01*
X73671428Y-148657142D01*
X73576190Y-148704761D01*
X73528571Y-148704761D01*
X73433333Y-148657142D01*
X73385714Y-148561904D01*
X73385714Y-148419047D01*
X73433333Y-148323809D01*
X73957142Y-147847619D02*
X74004761Y-147800000D01*
X74052380Y-147847619D01*
X74004761Y-147895238D01*
X73957142Y-147847619D01*
X74052380Y-147847619D01*
X73433333Y-147847619D02*
X73480952Y-147800000D01*
X73528571Y-147847619D01*
X73480952Y-147895238D01*
X73433333Y-147847619D01*
X73528571Y-147847619D01*
X73004761Y-146657142D02*
X74290476Y-147514285D01*
X73004761Y-145609523D02*
X74290476Y-146466666D01*
X73385714Y-144847619D02*
X74195238Y-144847619D01*
X74290476Y-144895238D01*
X74338095Y-144942857D01*
X74385714Y-145038095D01*
X74385714Y-145180952D01*
X74338095Y-145276190D01*
X74004761Y-144847619D02*
X74052380Y-144942857D01*
X74052380Y-145133333D01*
X74004761Y-145228571D01*
X73957142Y-145276190D01*
X73861904Y-145323809D01*
X73576190Y-145323809D01*
X73480952Y-145276190D01*
X73433333Y-145228571D01*
X73385714Y-145133333D01*
X73385714Y-144942857D01*
X73433333Y-144847619D01*
X74052380Y-144371428D02*
X73385714Y-144371428D01*
X73052380Y-144371428D02*
X73100000Y-144419047D01*
X73147619Y-144371428D01*
X73100000Y-144323809D01*
X73052380Y-144371428D01*
X73147619Y-144371428D01*
X73385714Y-144038095D02*
X73385714Y-143657142D01*
X73052380Y-143895238D02*
X73909523Y-143895238D01*
X74004761Y-143847619D01*
X74052380Y-143752380D01*
X74052380Y-143657142D01*
X74052380Y-143323809D02*
X73052380Y-143323809D01*
X74052380Y-142895238D02*
X73528571Y-142895238D01*
X73433333Y-142942857D01*
X73385714Y-143038095D01*
X73385714Y-143180952D01*
X73433333Y-143276190D01*
X73480952Y-143323809D01*
X73385714Y-141990476D02*
X74052380Y-141990476D01*
X73385714Y-142419047D02*
X73909523Y-142419047D01*
X74004761Y-142371428D01*
X74052380Y-142276190D01*
X74052380Y-142133333D01*
X74004761Y-142038095D01*
X73957142Y-141990476D01*
X74052380Y-141514285D02*
X73052380Y-141514285D01*
X73433333Y-141514285D02*
X73385714Y-141419047D01*
X73385714Y-141228571D01*
X73433333Y-141133333D01*
X73480952Y-141085714D01*
X73576190Y-141038095D01*
X73861904Y-141038095D01*
X73957142Y-141085714D01*
X74004761Y-141133333D01*
X74052380Y-141228571D01*
X74052380Y-141419047D01*
X74004761Y-141514285D01*
X73957142Y-140609523D02*
X74004761Y-140561904D01*
X74052380Y-140609523D01*
X74004761Y-140657142D01*
X73957142Y-140609523D01*
X74052380Y-140609523D01*
X74004761Y-139704761D02*
X74052380Y-139800000D01*
X74052380Y-139990476D01*
X74004761Y-140085714D01*
X73957142Y-140133333D01*
X73861904Y-140180952D01*
X73576190Y-140180952D01*
X73480952Y-140133333D01*
X73433333Y-140085714D01*
X73385714Y-139990476D01*
X73385714Y-139800000D01*
X73433333Y-139704761D01*
X74052380Y-139133333D02*
X74004761Y-139228571D01*
X73957142Y-139276190D01*
X73861904Y-139323809D01*
X73576190Y-139323809D01*
X73480952Y-139276190D01*
X73433333Y-139228571D01*
X73385714Y-139133333D01*
X73385714Y-138990476D01*
X73433333Y-138895238D01*
X73480952Y-138847619D01*
X73576190Y-138800000D01*
X73861904Y-138800000D01*
X73957142Y-138847619D01*
X74004761Y-138895238D01*
X74052380Y-138990476D01*
X74052380Y-139133333D01*
X74052380Y-138371428D02*
X73385714Y-138371428D01*
X73480952Y-138371428D02*
X73433333Y-138323809D01*
X73385714Y-138228571D01*
X73385714Y-138085714D01*
X73433333Y-137990476D01*
X73528571Y-137942857D01*
X74052380Y-137942857D01*
X73528571Y-137942857D02*
X73433333Y-137895238D01*
X73385714Y-137800000D01*
X73385714Y-137657142D01*
X73433333Y-137561904D01*
X73528571Y-137514285D01*
X74052380Y-137514285D01*
X73004761Y-136323809D02*
X74290476Y-137180952D01*
X74052380Y-135561904D02*
X73052380Y-135561904D01*
X74004761Y-135561904D02*
X74052380Y-135657142D01*
X74052380Y-135847619D01*
X74004761Y-135942857D01*
X73957142Y-135990476D01*
X73861904Y-136038095D01*
X73576190Y-136038095D01*
X73480952Y-135990476D01*
X73433333Y-135942857D01*
X73385714Y-135847619D01*
X73385714Y-135657142D01*
X73433333Y-135561904D01*
X73385714Y-135228571D02*
X73385714Y-134847619D01*
X73052380Y-135085714D02*
X73909523Y-135085714D01*
X74004761Y-135038095D01*
X74052380Y-134942857D01*
X74052380Y-134847619D01*
X74052380Y-134514285D02*
X73052380Y-134514285D01*
X74052380Y-134085714D02*
X73528571Y-134085714D01*
X73433333Y-134133333D01*
X73385714Y-134228571D01*
X73385714Y-134371428D01*
X73433333Y-134466666D01*
X73480952Y-134514285D01*
X74004761Y-133228571D02*
X74052380Y-133323809D01*
X74052380Y-133514285D01*
X74004761Y-133609523D01*
X73909523Y-133657142D01*
X73528571Y-133657142D01*
X73433333Y-133609523D01*
X73385714Y-133514285D01*
X73385714Y-133323809D01*
X73433333Y-133228571D01*
X73528571Y-133180952D01*
X73623809Y-133180952D01*
X73719047Y-133657142D01*
X74052380Y-132609523D02*
X74004761Y-132704761D01*
X73957142Y-132752380D01*
X73861904Y-132800000D01*
X73576190Y-132800000D01*
X73480952Y-132752380D01*
X73433333Y-132704761D01*
X73385714Y-132609523D01*
X73385714Y-132466666D01*
X73433333Y-132371428D01*
X73480952Y-132323809D01*
X73576190Y-132276190D01*
X73861904Y-132276190D01*
X73957142Y-132323809D01*
X74004761Y-132371428D01*
X74052380Y-132466666D01*
X74052380Y-132609523D01*
X74052380Y-131419047D02*
X73052380Y-131419047D01*
X74004761Y-131419047D02*
X74052380Y-131514285D01*
X74052380Y-131704761D01*
X74004761Y-131800000D01*
X73957142Y-131847619D01*
X73861904Y-131895238D01*
X73576190Y-131895238D01*
X73480952Y-131847619D01*
X73433333Y-131800000D01*
X73385714Y-131704761D01*
X73385714Y-131514285D01*
X73433333Y-131419047D01*
X74052380Y-130800000D02*
X74004761Y-130895238D01*
X73957142Y-130942857D01*
X73861904Y-130990476D01*
X73576190Y-130990476D01*
X73480952Y-130942857D01*
X73433333Y-130895238D01*
X73385714Y-130800000D01*
X73385714Y-130657142D01*
X73433333Y-130561904D01*
X73480952Y-130514285D01*
X73576190Y-130466666D01*
X73861904Y-130466666D01*
X73957142Y-130514285D01*
X74004761Y-130561904D01*
X74052380Y-130657142D01*
X74052380Y-130800000D01*
X74052380Y-130038095D02*
X73385714Y-130038095D01*
X73576190Y-130038095D02*
X73480952Y-129990476D01*
X73433333Y-129942857D01*
X73385714Y-129847619D01*
X73385714Y-129752380D01*
X73052380Y-129514285D02*
X73052380Y-128847619D01*
X74052380Y-129276190D01*
X74052380Y-128419047D02*
X74052380Y-128228571D01*
X74004761Y-128133333D01*
X73957142Y-128085714D01*
X73814285Y-127990476D01*
X73623809Y-127942857D01*
X73242857Y-127942857D01*
X73147619Y-127990476D01*
X73100000Y-128038095D01*
X73052380Y-128133333D01*
X73052380Y-128323809D01*
X73100000Y-128419047D01*
X73147619Y-128466666D01*
X73242857Y-128514285D01*
X73480952Y-128514285D01*
X73576190Y-128466666D01*
X73623809Y-128419047D01*
X73671428Y-128323809D01*
X73671428Y-128133333D01*
X73623809Y-128038095D01*
X73576190Y-127990476D01*
X73480952Y-127942857D01*
X124350000Y-121250000D02*
X124350000Y-135750000D01*
X107850000Y-121250000D02*
X124350000Y-121250000D01*
X107850000Y-135750000D02*
X107850000Y-121250000D01*
X124350000Y-135750000D02*
X107850000Y-135750000D01*
D11*
X123630000Y-135080000D02*
X123630000Y-132420000D01*
X110870000Y-135080000D02*
X123630000Y-135080000D01*
X110870000Y-132420000D02*
X123630000Y-132420000D01*
X110870000Y-135080000D02*
X110870000Y-132420000D01*
X109600000Y-135080000D02*
X108270000Y-135080000D01*
X108270000Y-135080000D02*
X108270000Y-133750000D01*
X108270000Y-124580000D02*
X108270000Y-123250000D01*
X109600000Y-124580000D02*
X108270000Y-124580000D01*
X110870000Y-124580000D02*
X110870000Y-121920000D01*
X110870000Y-124580000D02*
X123630000Y-124580000D01*
X123630000Y-124580000D02*
X123630000Y-121920000D01*
X110870000Y-121920000D02*
X123630000Y-121920000D01*
X75350000Y-151790000D02*
X75350000Y-121310000D01*
X100550000Y-149250000D02*
X105630000Y-149250000D01*
X75350000Y-121310000D02*
X105630000Y-121310000D01*
X75350000Y-151790000D02*
X100550000Y-151790000D01*
X100550000Y-151790000D02*
X100550000Y-149250000D01*
D12*
G36*
X104360000Y-150520000D02*
G01*
X101820000Y-150520000D01*
X101820000Y-149250000D01*
X104360000Y-149250000D01*
X104360000Y-150520000D01*
G37*
X104360000Y-150520000D02*
X101820000Y-150520000D01*
X101820000Y-149250000D01*
X104360000Y-149250000D01*
X104360000Y-150520000D01*
D11*
X105630000Y-149250000D02*
X105630000Y-121310000D01*
X124840000Y-110380000D02*
X124840000Y-104920000D01*
X73920000Y-110380000D02*
X124840000Y-110380000D01*
X73920000Y-97460000D02*
X73920000Y-110380000D01*
X124840000Y-97460000D02*
X73920000Y-97460000D01*
X124840000Y-102920000D02*
X124840000Y-97460000D01*
X124840000Y-104920000D02*
G75*
G02*
X124840000Y-102920000I0J1000000D01*
G01*
D13*
G36*
X88920083Y-146613301D02*
G01*
X88917967Y-145872446D01*
X88915850Y-145131590D01*
X88748633Y-145296509D01*
X88717072Y-145327562D01*
X88687001Y-145357004D01*
X88659015Y-145384262D01*
X88633709Y-145408764D01*
X88611679Y-145429936D01*
X88593521Y-145447206D01*
X88579830Y-145459998D01*
X88571200Y-145467742D01*
X88568717Y-145469715D01*
X88561893Y-145473996D01*
X88555719Y-145476902D01*
X88549508Y-145477974D01*
X88542574Y-145476748D01*
X88534230Y-145472763D01*
X88523791Y-145465557D01*
X88510569Y-145454669D01*
X88493879Y-145439637D01*
X88473035Y-145419999D01*
X88447349Y-145395294D01*
X88422928Y-145371644D01*
X88397417Y-145346715D01*
X88373720Y-145323171D01*
X88352565Y-145301767D01*
X88334681Y-145283254D01*
X88320796Y-145268388D01*
X88311639Y-145257919D01*
X88308018Y-145252824D01*
X88305051Y-145241531D01*
X88307477Y-145230902D01*
X88308793Y-145228002D01*
X88312297Y-145223986D01*
X88321426Y-145214504D01*
X88335734Y-145199991D01*
X88354776Y-145180885D01*
X88378107Y-145157622D01*
X88405282Y-145130638D01*
X88435855Y-145100370D01*
X88469382Y-145067254D01*
X88505417Y-145031725D01*
X88543514Y-144994222D01*
X88583230Y-144955180D01*
X88624118Y-144915036D01*
X88665734Y-144874226D01*
X88707632Y-144833186D01*
X88749366Y-144792353D01*
X88790493Y-144752163D01*
X88830566Y-144713053D01*
X88869141Y-144675458D01*
X88905772Y-144639817D01*
X88940014Y-144606564D01*
X88971422Y-144576136D01*
X88999551Y-144548970D01*
X89023955Y-144525502D01*
X89044189Y-144506169D01*
X89059809Y-144491407D01*
X89067505Y-144484258D01*
X89083019Y-144471876D01*
X89096278Y-144466440D01*
X89109129Y-144468008D01*
X89123418Y-144476639D01*
X89134689Y-144486375D01*
X89149100Y-144499925D01*
X89168238Y-144518158D01*
X89191659Y-144540636D01*
X89218918Y-144566926D01*
X89249571Y-144596589D01*
X89283173Y-144629192D01*
X89319280Y-144664298D01*
X89357447Y-144701472D01*
X89397230Y-144740277D01*
X89438184Y-144780278D01*
X89479865Y-144821039D01*
X89521828Y-144862124D01*
X89563629Y-144903098D01*
X89604824Y-144943525D01*
X89644967Y-144982968D01*
X89683614Y-145020993D01*
X89720322Y-145057164D01*
X89754644Y-145091044D01*
X89786138Y-145122198D01*
X89814358Y-145150191D01*
X89838860Y-145174585D01*
X89859199Y-145194947D01*
X89874931Y-145210839D01*
X89885611Y-145221826D01*
X89890795Y-145227473D01*
X89891207Y-145228049D01*
X89894880Y-145239395D01*
X89893042Y-145250135D01*
X89892068Y-145252618D01*
X89887663Y-145258869D01*
X89877973Y-145269934D01*
X89863856Y-145284984D01*
X89846169Y-145303188D01*
X89825768Y-145323717D01*
X89803511Y-145345741D01*
X89780254Y-145368429D01*
X89756855Y-145390952D01*
X89734170Y-145412480D01*
X89713056Y-145432183D01*
X89694371Y-145449231D01*
X89678971Y-145462794D01*
X89667713Y-145472041D01*
X89661454Y-145476144D01*
X89661182Y-145476229D01*
X89648993Y-145476602D01*
X89638610Y-145473999D01*
X89633512Y-145470162D01*
X89622988Y-145460913D01*
X89607617Y-145446804D01*
X89587981Y-145428386D01*
X89564661Y-145406211D01*
X89538240Y-145380831D01*
X89509298Y-145352799D01*
X89478417Y-145322666D01*
X89455600Y-145300266D01*
X89284150Y-145131527D01*
X89282034Y-145872414D01*
X89279917Y-146613301D01*
X89256161Y-146633733D01*
X88943839Y-146633733D01*
X88920083Y-146613301D01*
G37*
X88920083Y-146613301D02*
X88917967Y-145872446D01*
X88915850Y-145131590D01*
X88748633Y-145296509D01*
X88717072Y-145327562D01*
X88687001Y-145357004D01*
X88659015Y-145384262D01*
X88633709Y-145408764D01*
X88611679Y-145429936D01*
X88593521Y-145447206D01*
X88579830Y-145459998D01*
X88571200Y-145467742D01*
X88568717Y-145469715D01*
X88561893Y-145473996D01*
X88555719Y-145476902D01*
X88549508Y-145477974D01*
X88542574Y-145476748D01*
X88534230Y-145472763D01*
X88523791Y-145465557D01*
X88510569Y-145454669D01*
X88493879Y-145439637D01*
X88473035Y-145419999D01*
X88447349Y-145395294D01*
X88422928Y-145371644D01*
X88397417Y-145346715D01*
X88373720Y-145323171D01*
X88352565Y-145301767D01*
X88334681Y-145283254D01*
X88320796Y-145268388D01*
X88311639Y-145257919D01*
X88308018Y-145252824D01*
X88305051Y-145241531D01*
X88307477Y-145230902D01*
X88308793Y-145228002D01*
X88312297Y-145223986D01*
X88321426Y-145214504D01*
X88335734Y-145199991D01*
X88354776Y-145180885D01*
X88378107Y-145157622D01*
X88405282Y-145130638D01*
X88435855Y-145100370D01*
X88469382Y-145067254D01*
X88505417Y-145031725D01*
X88543514Y-144994222D01*
X88583230Y-144955180D01*
X88624118Y-144915036D01*
X88665734Y-144874226D01*
X88707632Y-144833186D01*
X88749366Y-144792353D01*
X88790493Y-144752163D01*
X88830566Y-144713053D01*
X88869141Y-144675458D01*
X88905772Y-144639817D01*
X88940014Y-144606564D01*
X88971422Y-144576136D01*
X88999551Y-144548970D01*
X89023955Y-144525502D01*
X89044189Y-144506169D01*
X89059809Y-144491407D01*
X89067505Y-144484258D01*
X89083019Y-144471876D01*
X89096278Y-144466440D01*
X89109129Y-144468008D01*
X89123418Y-144476639D01*
X89134689Y-144486375D01*
X89149100Y-144499925D01*
X89168238Y-144518158D01*
X89191659Y-144540636D01*
X89218918Y-144566926D01*
X89249571Y-144596589D01*
X89283173Y-144629192D01*
X89319280Y-144664298D01*
X89357447Y-144701472D01*
X89397230Y-144740277D01*
X89438184Y-144780278D01*
X89479865Y-144821039D01*
X89521828Y-144862124D01*
X89563629Y-144903098D01*
X89604824Y-144943525D01*
X89644967Y-144982968D01*
X89683614Y-145020993D01*
X89720322Y-145057164D01*
X89754644Y-145091044D01*
X89786138Y-145122198D01*
X89814358Y-145150191D01*
X89838860Y-145174585D01*
X89859199Y-145194947D01*
X89874931Y-145210839D01*
X89885611Y-145221826D01*
X89890795Y-145227473D01*
X89891207Y-145228049D01*
X89894880Y-145239395D01*
X89893042Y-145250135D01*
X89892068Y-145252618D01*
X89887663Y-145258869D01*
X89877973Y-145269934D01*
X89863856Y-145284984D01*
X89846169Y-145303188D01*
X89825768Y-145323717D01*
X89803511Y-145345741D01*
X89780254Y-145368429D01*
X89756855Y-145390952D01*
X89734170Y-145412480D01*
X89713056Y-145432183D01*
X89694371Y-145449231D01*
X89678971Y-145462794D01*
X89667713Y-145472041D01*
X89661454Y-145476144D01*
X89661182Y-145476229D01*
X89648993Y-145476602D01*
X89638610Y-145473999D01*
X89633512Y-145470162D01*
X89622988Y-145460913D01*
X89607617Y-145446804D01*
X89587981Y-145428386D01*
X89564661Y-145406211D01*
X89538240Y-145380831D01*
X89509298Y-145352799D01*
X89478417Y-145322666D01*
X89455600Y-145300266D01*
X89284150Y-145131527D01*
X89282034Y-145872414D01*
X89279917Y-146613301D01*
X89256161Y-146633733D01*
X88943839Y-146633733D01*
X88920083Y-146613301D01*
G36*
X86420083Y-146613301D02*
G01*
X86417967Y-145872446D01*
X86415850Y-145131590D01*
X86248633Y-145296509D01*
X86217072Y-145327562D01*
X86187001Y-145357004D01*
X86159015Y-145384262D01*
X86133709Y-145408764D01*
X86111679Y-145429936D01*
X86093521Y-145447206D01*
X86079830Y-145459998D01*
X86071200Y-145467742D01*
X86068717Y-145469715D01*
X86061893Y-145473996D01*
X86055719Y-145476902D01*
X86049508Y-145477974D01*
X86042574Y-145476748D01*
X86034230Y-145472763D01*
X86023791Y-145465557D01*
X86010569Y-145454669D01*
X85993879Y-145439637D01*
X85973035Y-145419999D01*
X85947349Y-145395294D01*
X85922928Y-145371644D01*
X85897417Y-145346715D01*
X85873720Y-145323171D01*
X85852565Y-145301767D01*
X85834681Y-145283254D01*
X85820796Y-145268388D01*
X85811639Y-145257919D01*
X85808018Y-145252824D01*
X85805051Y-145241531D01*
X85807477Y-145230902D01*
X85808793Y-145228002D01*
X85812297Y-145223986D01*
X85821426Y-145214504D01*
X85835734Y-145199991D01*
X85854776Y-145180885D01*
X85878107Y-145157622D01*
X85905282Y-145130638D01*
X85935855Y-145100370D01*
X85969382Y-145067254D01*
X86005417Y-145031725D01*
X86043514Y-144994222D01*
X86083230Y-144955180D01*
X86124118Y-144915036D01*
X86165734Y-144874226D01*
X86207632Y-144833186D01*
X86249366Y-144792353D01*
X86290493Y-144752163D01*
X86330566Y-144713053D01*
X86369141Y-144675458D01*
X86405772Y-144639817D01*
X86440014Y-144606564D01*
X86471422Y-144576136D01*
X86499551Y-144548970D01*
X86523955Y-144525502D01*
X86544189Y-144506169D01*
X86559809Y-144491407D01*
X86567505Y-144484258D01*
X86583019Y-144471876D01*
X86596278Y-144466440D01*
X86609129Y-144468008D01*
X86623418Y-144476639D01*
X86634689Y-144486375D01*
X86649100Y-144499925D01*
X86668238Y-144518158D01*
X86691659Y-144540636D01*
X86718918Y-144566926D01*
X86749571Y-144596589D01*
X86783173Y-144629192D01*
X86819280Y-144664298D01*
X86857447Y-144701472D01*
X86897230Y-144740277D01*
X86938184Y-144780278D01*
X86979865Y-144821039D01*
X87021828Y-144862124D01*
X87063629Y-144903098D01*
X87104824Y-144943525D01*
X87144967Y-144982968D01*
X87183614Y-145020993D01*
X87220322Y-145057164D01*
X87254644Y-145091044D01*
X87286138Y-145122198D01*
X87314358Y-145150191D01*
X87338860Y-145174585D01*
X87359199Y-145194947D01*
X87374931Y-145210839D01*
X87385611Y-145221826D01*
X87390795Y-145227473D01*
X87391207Y-145228049D01*
X87394880Y-145239395D01*
X87393042Y-145250135D01*
X87392068Y-145252618D01*
X87387663Y-145258869D01*
X87377973Y-145269934D01*
X87363856Y-145284984D01*
X87346169Y-145303188D01*
X87325768Y-145323717D01*
X87303511Y-145345741D01*
X87280254Y-145368429D01*
X87256855Y-145390952D01*
X87234170Y-145412480D01*
X87213056Y-145432183D01*
X87194371Y-145449231D01*
X87178971Y-145462794D01*
X87167713Y-145472041D01*
X87161454Y-145476144D01*
X87161182Y-145476229D01*
X87148993Y-145476602D01*
X87138610Y-145473999D01*
X87133512Y-145470162D01*
X87122988Y-145460913D01*
X87107617Y-145446804D01*
X87087981Y-145428386D01*
X87064661Y-145406211D01*
X87038240Y-145380831D01*
X87009298Y-145352799D01*
X86978417Y-145322666D01*
X86955600Y-145300266D01*
X86784150Y-145131527D01*
X86782034Y-145872414D01*
X86779917Y-146613301D01*
X86756161Y-146633733D01*
X86443839Y-146633733D01*
X86420083Y-146613301D01*
G37*
X86420083Y-146613301D02*
X86417967Y-145872446D01*
X86415850Y-145131590D01*
X86248633Y-145296509D01*
X86217072Y-145327562D01*
X86187001Y-145357004D01*
X86159015Y-145384262D01*
X86133709Y-145408764D01*
X86111679Y-145429936D01*
X86093521Y-145447206D01*
X86079830Y-145459998D01*
X86071200Y-145467742D01*
X86068717Y-145469715D01*
X86061893Y-145473996D01*
X86055719Y-145476902D01*
X86049508Y-145477974D01*
X86042574Y-145476748D01*
X86034230Y-145472763D01*
X86023791Y-145465557D01*
X86010569Y-145454669D01*
X85993879Y-145439637D01*
X85973035Y-145419999D01*
X85947349Y-145395294D01*
X85922928Y-145371644D01*
X85897417Y-145346715D01*
X85873720Y-145323171D01*
X85852565Y-145301767D01*
X85834681Y-145283254D01*
X85820796Y-145268388D01*
X85811639Y-145257919D01*
X85808018Y-145252824D01*
X85805051Y-145241531D01*
X85807477Y-145230902D01*
X85808793Y-145228002D01*
X85812297Y-145223986D01*
X85821426Y-145214504D01*
X85835734Y-145199991D01*
X85854776Y-145180885D01*
X85878107Y-145157622D01*
X85905282Y-145130638D01*
X85935855Y-145100370D01*
X85969382Y-145067254D01*
X86005417Y-145031725D01*
X86043514Y-144994222D01*
X86083230Y-144955180D01*
X86124118Y-144915036D01*
X86165734Y-144874226D01*
X86207632Y-144833186D01*
X86249366Y-144792353D01*
X86290493Y-144752163D01*
X86330566Y-144713053D01*
X86369141Y-144675458D01*
X86405772Y-144639817D01*
X86440014Y-144606564D01*
X86471422Y-144576136D01*
X86499551Y-144548970D01*
X86523955Y-144525502D01*
X86544189Y-144506169D01*
X86559809Y-144491407D01*
X86567505Y-144484258D01*
X86583019Y-144471876D01*
X86596278Y-144466440D01*
X86609129Y-144468008D01*
X86623418Y-144476639D01*
X86634689Y-144486375D01*
X86649100Y-144499925D01*
X86668238Y-144518158D01*
X86691659Y-144540636D01*
X86718918Y-144566926D01*
X86749571Y-144596589D01*
X86783173Y-144629192D01*
X86819280Y-144664298D01*
X86857447Y-144701472D01*
X86897230Y-144740277D01*
X86938184Y-144780278D01*
X86979865Y-144821039D01*
X87021828Y-144862124D01*
X87063629Y-144903098D01*
X87104824Y-144943525D01*
X87144967Y-144982968D01*
X87183614Y-145020993D01*
X87220322Y-145057164D01*
X87254644Y-145091044D01*
X87286138Y-145122198D01*
X87314358Y-145150191D01*
X87338860Y-145174585D01*
X87359199Y-145194947D01*
X87374931Y-145210839D01*
X87385611Y-145221826D01*
X87390795Y-145227473D01*
X87391207Y-145228049D01*
X87394880Y-145239395D01*
X87393042Y-145250135D01*
X87392068Y-145252618D01*
X87387663Y-145258869D01*
X87377973Y-145269934D01*
X87363856Y-145284984D01*
X87346169Y-145303188D01*
X87325768Y-145323717D01*
X87303511Y-145345741D01*
X87280254Y-145368429D01*
X87256855Y-145390952D01*
X87234170Y-145412480D01*
X87213056Y-145432183D01*
X87194371Y-145449231D01*
X87178971Y-145462794D01*
X87167713Y-145472041D01*
X87161454Y-145476144D01*
X87161182Y-145476229D01*
X87148993Y-145476602D01*
X87138610Y-145473999D01*
X87133512Y-145470162D01*
X87122988Y-145460913D01*
X87107617Y-145446804D01*
X87087981Y-145428386D01*
X87064661Y-145406211D01*
X87038240Y-145380831D01*
X87009298Y-145352799D01*
X86978417Y-145322666D01*
X86955600Y-145300266D01*
X86784150Y-145131527D01*
X86782034Y-145872414D01*
X86779917Y-146613301D01*
X86756161Y-146633733D01*
X86443839Y-146633733D01*
X86420083Y-146613301D01*
G36*
X84279917Y-144486699D02*
G01*
X84282033Y-145227554D01*
X84284150Y-145968410D01*
X84451367Y-145803491D01*
X84482928Y-145772438D01*
X84512999Y-145742996D01*
X84540985Y-145715738D01*
X84566291Y-145691236D01*
X84588321Y-145670064D01*
X84606479Y-145652794D01*
X84620170Y-145640002D01*
X84628800Y-145632258D01*
X84631283Y-145630285D01*
X84638107Y-145626004D01*
X84644281Y-145623098D01*
X84650492Y-145622026D01*
X84657426Y-145623252D01*
X84665770Y-145627237D01*
X84676209Y-145634443D01*
X84689431Y-145645331D01*
X84706121Y-145660363D01*
X84726965Y-145680001D01*
X84752651Y-145704706D01*
X84777072Y-145728356D01*
X84802583Y-145753285D01*
X84826280Y-145776829D01*
X84847435Y-145798233D01*
X84865319Y-145816746D01*
X84879204Y-145831612D01*
X84888361Y-145842081D01*
X84891982Y-145847176D01*
X84894949Y-145858469D01*
X84892523Y-145869098D01*
X84891207Y-145871998D01*
X84887703Y-145876014D01*
X84878574Y-145885496D01*
X84864266Y-145900009D01*
X84845224Y-145919115D01*
X84821893Y-145942378D01*
X84794718Y-145969362D01*
X84764145Y-145999630D01*
X84730618Y-146032746D01*
X84694583Y-146068275D01*
X84656486Y-146105778D01*
X84616770Y-146144820D01*
X84575882Y-146184964D01*
X84534266Y-146225774D01*
X84492368Y-146266814D01*
X84450634Y-146307647D01*
X84409507Y-146347837D01*
X84369434Y-146386947D01*
X84330859Y-146424542D01*
X84294228Y-146460183D01*
X84259986Y-146493436D01*
X84228578Y-146523864D01*
X84200449Y-146551030D01*
X84176045Y-146574498D01*
X84155811Y-146593831D01*
X84140191Y-146608593D01*
X84132495Y-146615742D01*
X84116981Y-146628124D01*
X84103722Y-146633560D01*
X84090871Y-146631992D01*
X84076582Y-146623361D01*
X84065311Y-146613625D01*
X84050900Y-146600075D01*
X84031762Y-146581842D01*
X84008341Y-146559364D01*
X83981082Y-146533074D01*
X83950429Y-146503411D01*
X83916827Y-146470808D01*
X83880720Y-146435702D01*
X83842553Y-146398528D01*
X83802770Y-146359723D01*
X83761816Y-146319722D01*
X83720135Y-146278961D01*
X83678172Y-146237876D01*
X83636371Y-146196902D01*
X83595176Y-146156475D01*
X83555033Y-146117032D01*
X83516386Y-146079007D01*
X83479678Y-146042836D01*
X83445356Y-146008956D01*
X83413862Y-145977802D01*
X83385642Y-145949809D01*
X83361140Y-145925415D01*
X83340801Y-145905053D01*
X83325069Y-145889161D01*
X83314389Y-145878174D01*
X83309205Y-145872527D01*
X83308793Y-145871951D01*
X83305120Y-145860605D01*
X83306958Y-145849865D01*
X83307932Y-145847382D01*
X83312337Y-145841131D01*
X83322027Y-145830066D01*
X83336144Y-145815016D01*
X83353831Y-145796812D01*
X83374232Y-145776283D01*
X83396489Y-145754259D01*
X83419746Y-145731571D01*
X83443145Y-145709048D01*
X83465830Y-145687520D01*
X83486944Y-145667817D01*
X83505629Y-145650769D01*
X83521029Y-145637206D01*
X83532287Y-145627959D01*
X83538546Y-145623856D01*
X83538818Y-145623771D01*
X83551007Y-145623398D01*
X83561390Y-145626001D01*
X83566488Y-145629838D01*
X83577012Y-145639087D01*
X83592383Y-145653196D01*
X83612019Y-145671614D01*
X83635339Y-145693789D01*
X83661760Y-145719169D01*
X83690702Y-145747201D01*
X83721583Y-145777334D01*
X83744400Y-145799734D01*
X83915850Y-145968473D01*
X83917966Y-145227586D01*
X83920083Y-144486699D01*
X83943839Y-144466267D01*
X84256161Y-144466267D01*
X84279917Y-144486699D01*
G37*
X84279917Y-144486699D02*
X84282033Y-145227554D01*
X84284150Y-145968410D01*
X84451367Y-145803491D01*
X84482928Y-145772438D01*
X84512999Y-145742996D01*
X84540985Y-145715738D01*
X84566291Y-145691236D01*
X84588321Y-145670064D01*
X84606479Y-145652794D01*
X84620170Y-145640002D01*
X84628800Y-145632258D01*
X84631283Y-145630285D01*
X84638107Y-145626004D01*
X84644281Y-145623098D01*
X84650492Y-145622026D01*
X84657426Y-145623252D01*
X84665770Y-145627237D01*
X84676209Y-145634443D01*
X84689431Y-145645331D01*
X84706121Y-145660363D01*
X84726965Y-145680001D01*
X84752651Y-145704706D01*
X84777072Y-145728356D01*
X84802583Y-145753285D01*
X84826280Y-145776829D01*
X84847435Y-145798233D01*
X84865319Y-145816746D01*
X84879204Y-145831612D01*
X84888361Y-145842081D01*
X84891982Y-145847176D01*
X84894949Y-145858469D01*
X84892523Y-145869098D01*
X84891207Y-145871998D01*
X84887703Y-145876014D01*
X84878574Y-145885496D01*
X84864266Y-145900009D01*
X84845224Y-145919115D01*
X84821893Y-145942378D01*
X84794718Y-145969362D01*
X84764145Y-145999630D01*
X84730618Y-146032746D01*
X84694583Y-146068275D01*
X84656486Y-146105778D01*
X84616770Y-146144820D01*
X84575882Y-146184964D01*
X84534266Y-146225774D01*
X84492368Y-146266814D01*
X84450634Y-146307647D01*
X84409507Y-146347837D01*
X84369434Y-146386947D01*
X84330859Y-146424542D01*
X84294228Y-146460183D01*
X84259986Y-146493436D01*
X84228578Y-146523864D01*
X84200449Y-146551030D01*
X84176045Y-146574498D01*
X84155811Y-146593831D01*
X84140191Y-146608593D01*
X84132495Y-146615742D01*
X84116981Y-146628124D01*
X84103722Y-146633560D01*
X84090871Y-146631992D01*
X84076582Y-146623361D01*
X84065311Y-146613625D01*
X84050900Y-146600075D01*
X84031762Y-146581842D01*
X84008341Y-146559364D01*
X83981082Y-146533074D01*
X83950429Y-146503411D01*
X83916827Y-146470808D01*
X83880720Y-146435702D01*
X83842553Y-146398528D01*
X83802770Y-146359723D01*
X83761816Y-146319722D01*
X83720135Y-146278961D01*
X83678172Y-146237876D01*
X83636371Y-146196902D01*
X83595176Y-146156475D01*
X83555033Y-146117032D01*
X83516386Y-146079007D01*
X83479678Y-146042836D01*
X83445356Y-146008956D01*
X83413862Y-145977802D01*
X83385642Y-145949809D01*
X83361140Y-145925415D01*
X83340801Y-145905053D01*
X83325069Y-145889161D01*
X83314389Y-145878174D01*
X83309205Y-145872527D01*
X83308793Y-145871951D01*
X83305120Y-145860605D01*
X83306958Y-145849865D01*
X83307932Y-145847382D01*
X83312337Y-145841131D01*
X83322027Y-145830066D01*
X83336144Y-145815016D01*
X83353831Y-145796812D01*
X83374232Y-145776283D01*
X83396489Y-145754259D01*
X83419746Y-145731571D01*
X83443145Y-145709048D01*
X83465830Y-145687520D01*
X83486944Y-145667817D01*
X83505629Y-145650769D01*
X83521029Y-145637206D01*
X83532287Y-145627959D01*
X83538546Y-145623856D01*
X83538818Y-145623771D01*
X83551007Y-145623398D01*
X83561390Y-145626001D01*
X83566488Y-145629838D01*
X83577012Y-145639087D01*
X83592383Y-145653196D01*
X83612019Y-145671614D01*
X83635339Y-145693789D01*
X83661760Y-145719169D01*
X83690702Y-145747201D01*
X83721583Y-145777334D01*
X83744400Y-145799734D01*
X83915850Y-145968473D01*
X83917966Y-145227586D01*
X83920083Y-144486699D01*
X83943839Y-144466267D01*
X84256161Y-144466267D01*
X84279917Y-144486699D01*
G36*
X81779917Y-144486699D02*
G01*
X81782033Y-145227554D01*
X81784150Y-145968410D01*
X81951367Y-145803491D01*
X81982928Y-145772438D01*
X82012999Y-145742996D01*
X82040985Y-145715738D01*
X82066291Y-145691236D01*
X82088321Y-145670064D01*
X82106479Y-145652794D01*
X82120170Y-145640002D01*
X82128800Y-145632258D01*
X82131283Y-145630285D01*
X82138107Y-145626004D01*
X82144281Y-145623098D01*
X82150492Y-145622026D01*
X82157426Y-145623252D01*
X82165770Y-145627237D01*
X82176209Y-145634443D01*
X82189431Y-145645331D01*
X82206121Y-145660363D01*
X82226965Y-145680001D01*
X82252651Y-145704706D01*
X82277072Y-145728356D01*
X82302583Y-145753285D01*
X82326280Y-145776829D01*
X82347435Y-145798233D01*
X82365319Y-145816746D01*
X82379204Y-145831612D01*
X82388361Y-145842081D01*
X82391982Y-145847176D01*
X82394949Y-145858469D01*
X82392523Y-145869098D01*
X82391207Y-145871998D01*
X82387703Y-145876014D01*
X82378574Y-145885496D01*
X82364266Y-145900009D01*
X82345224Y-145919115D01*
X82321893Y-145942378D01*
X82294718Y-145969362D01*
X82264145Y-145999630D01*
X82230618Y-146032746D01*
X82194583Y-146068275D01*
X82156486Y-146105778D01*
X82116770Y-146144820D01*
X82075882Y-146184964D01*
X82034266Y-146225774D01*
X81992368Y-146266814D01*
X81950634Y-146307647D01*
X81909507Y-146347837D01*
X81869434Y-146386947D01*
X81830859Y-146424542D01*
X81794228Y-146460183D01*
X81759986Y-146493436D01*
X81728578Y-146523864D01*
X81700449Y-146551030D01*
X81676045Y-146574498D01*
X81655811Y-146593831D01*
X81640191Y-146608593D01*
X81632495Y-146615742D01*
X81616981Y-146628124D01*
X81603722Y-146633560D01*
X81590871Y-146631992D01*
X81576582Y-146623361D01*
X81565311Y-146613625D01*
X81550900Y-146600075D01*
X81531762Y-146581842D01*
X81508341Y-146559364D01*
X81481082Y-146533074D01*
X81450429Y-146503411D01*
X81416827Y-146470808D01*
X81380720Y-146435702D01*
X81342553Y-146398528D01*
X81302770Y-146359723D01*
X81261816Y-146319722D01*
X81220135Y-146278961D01*
X81178172Y-146237876D01*
X81136371Y-146196902D01*
X81095176Y-146156475D01*
X81055033Y-146117032D01*
X81016386Y-146079007D01*
X80979678Y-146042836D01*
X80945356Y-146008956D01*
X80913862Y-145977802D01*
X80885642Y-145949809D01*
X80861140Y-145925415D01*
X80840801Y-145905053D01*
X80825069Y-145889161D01*
X80814389Y-145878174D01*
X80809205Y-145872527D01*
X80808793Y-145871951D01*
X80805120Y-145860605D01*
X80806958Y-145849865D01*
X80807932Y-145847382D01*
X80812337Y-145841131D01*
X80822027Y-145830066D01*
X80836144Y-145815016D01*
X80853831Y-145796812D01*
X80874232Y-145776283D01*
X80896489Y-145754259D01*
X80919746Y-145731571D01*
X80943145Y-145709048D01*
X80965830Y-145687520D01*
X80986944Y-145667817D01*
X81005629Y-145650769D01*
X81021029Y-145637206D01*
X81032287Y-145627959D01*
X81038546Y-145623856D01*
X81038818Y-145623771D01*
X81051007Y-145623398D01*
X81061390Y-145626001D01*
X81066488Y-145629838D01*
X81077012Y-145639087D01*
X81092383Y-145653196D01*
X81112019Y-145671614D01*
X81135339Y-145693789D01*
X81161760Y-145719169D01*
X81190702Y-145747201D01*
X81221583Y-145777334D01*
X81244400Y-145799734D01*
X81415850Y-145968473D01*
X81417966Y-145227586D01*
X81420083Y-144486699D01*
X81443839Y-144466267D01*
X81756161Y-144466267D01*
X81779917Y-144486699D01*
G37*
X81779917Y-144486699D02*
X81782033Y-145227554D01*
X81784150Y-145968410D01*
X81951367Y-145803491D01*
X81982928Y-145772438D01*
X82012999Y-145742996D01*
X82040985Y-145715738D01*
X82066291Y-145691236D01*
X82088321Y-145670064D01*
X82106479Y-145652794D01*
X82120170Y-145640002D01*
X82128800Y-145632258D01*
X82131283Y-145630285D01*
X82138107Y-145626004D01*
X82144281Y-145623098D01*
X82150492Y-145622026D01*
X82157426Y-145623252D01*
X82165770Y-145627237D01*
X82176209Y-145634443D01*
X82189431Y-145645331D01*
X82206121Y-145660363D01*
X82226965Y-145680001D01*
X82252651Y-145704706D01*
X82277072Y-145728356D01*
X82302583Y-145753285D01*
X82326280Y-145776829D01*
X82347435Y-145798233D01*
X82365319Y-145816746D01*
X82379204Y-145831612D01*
X82388361Y-145842081D01*
X82391982Y-145847176D01*
X82394949Y-145858469D01*
X82392523Y-145869098D01*
X82391207Y-145871998D01*
X82387703Y-145876014D01*
X82378574Y-145885496D01*
X82364266Y-145900009D01*
X82345224Y-145919115D01*
X82321893Y-145942378D01*
X82294718Y-145969362D01*
X82264145Y-145999630D01*
X82230618Y-146032746D01*
X82194583Y-146068275D01*
X82156486Y-146105778D01*
X82116770Y-146144820D01*
X82075882Y-146184964D01*
X82034266Y-146225774D01*
X81992368Y-146266814D01*
X81950634Y-146307647D01*
X81909507Y-146347837D01*
X81869434Y-146386947D01*
X81830859Y-146424542D01*
X81794228Y-146460183D01*
X81759986Y-146493436D01*
X81728578Y-146523864D01*
X81700449Y-146551030D01*
X81676045Y-146574498D01*
X81655811Y-146593831D01*
X81640191Y-146608593D01*
X81632495Y-146615742D01*
X81616981Y-146628124D01*
X81603722Y-146633560D01*
X81590871Y-146631992D01*
X81576582Y-146623361D01*
X81565311Y-146613625D01*
X81550900Y-146600075D01*
X81531762Y-146581842D01*
X81508341Y-146559364D01*
X81481082Y-146533074D01*
X81450429Y-146503411D01*
X81416827Y-146470808D01*
X81380720Y-146435702D01*
X81342553Y-146398528D01*
X81302770Y-146359723D01*
X81261816Y-146319722D01*
X81220135Y-146278961D01*
X81178172Y-146237876D01*
X81136371Y-146196902D01*
X81095176Y-146156475D01*
X81055033Y-146117032D01*
X81016386Y-146079007D01*
X80979678Y-146042836D01*
X80945356Y-146008956D01*
X80913862Y-145977802D01*
X80885642Y-145949809D01*
X80861140Y-145925415D01*
X80840801Y-145905053D01*
X80825069Y-145889161D01*
X80814389Y-145878174D01*
X80809205Y-145872527D01*
X80808793Y-145871951D01*
X80805120Y-145860605D01*
X80806958Y-145849865D01*
X80807932Y-145847382D01*
X80812337Y-145841131D01*
X80822027Y-145830066D01*
X80836144Y-145815016D01*
X80853831Y-145796812D01*
X80874232Y-145776283D01*
X80896489Y-145754259D01*
X80919746Y-145731571D01*
X80943145Y-145709048D01*
X80965830Y-145687520D01*
X80986944Y-145667817D01*
X81005629Y-145650769D01*
X81021029Y-145637206D01*
X81032287Y-145627959D01*
X81038546Y-145623856D01*
X81038818Y-145623771D01*
X81051007Y-145623398D01*
X81061390Y-145626001D01*
X81066488Y-145629838D01*
X81077012Y-145639087D01*
X81092383Y-145653196D01*
X81112019Y-145671614D01*
X81135339Y-145693789D01*
X81161760Y-145719169D01*
X81190702Y-145747201D01*
X81221583Y-145777334D01*
X81244400Y-145799734D01*
X81415850Y-145968473D01*
X81417966Y-145227586D01*
X81420083Y-144486699D01*
X81443839Y-144466267D01*
X81756161Y-144466267D01*
X81779917Y-144486699D01*
D10*
X-1333333Y-952380D02*
X-1666666Y-476190D01*
X-1904761Y-952380D02*
X-1904761Y47619D01*
X-1523809Y47619D01*
X-1428571Y0D01*
X-1380952Y-47619D01*
X-1333333Y-142857D01*
X-1333333Y-285714D01*
X-1380952Y-380952D01*
X-1428571Y-428571D01*
X-1523809Y-476190D01*
X-1904761Y-476190D01*
X-904761Y-428571D02*
X-571428Y-428571D01*
X-428571Y-952380D02*
X-904761Y-952380D01*
X-904761Y47619D01*
X-428571Y47619D01*
X333333Y-428571D02*
X0Y-428571D01*
X0Y-952380D02*
X0Y47619D01*
X476190Y47619D01*
X999999Y47619D02*
X999999Y-190476D01*
X761904Y-95238D02*
X999999Y-190476D01*
X1238095Y-95238D01*
X857142Y-380952D02*
X999999Y-190476D01*
X1142857Y-380952D01*
X1761904Y47619D02*
X1761904Y-190476D01*
X1523809Y-95238D02*
X1761904Y-190476D01*
X1999999Y-95238D01*
X1619047Y-380952D02*
X1761904Y-190476D01*
X1904761Y-380952D01*
X85214761Y-137482380D02*
X85214761Y-136482380D01*
X85548095Y-137196666D01*
X85881428Y-136482380D01*
X85881428Y-137482380D01*
X86357619Y-137482380D02*
X86357619Y-136482380D01*
X86833809Y-137482380D02*
X86833809Y-136482380D01*
X87405238Y-137482380D01*
X87405238Y-136482380D01*
X87881428Y-137482380D02*
X87881428Y-136482380D01*
X89119523Y-136958571D02*
X89452857Y-136958571D01*
X89595714Y-137482380D02*
X89119523Y-137482380D01*
X89119523Y-136482380D01*
X89595714Y-136482380D01*
X89976666Y-137434761D02*
X90119523Y-137482380D01*
X90357619Y-137482380D01*
X90452857Y-137434761D01*
X90500476Y-137387142D01*
X90548095Y-137291904D01*
X90548095Y-137196666D01*
X90500476Y-137101428D01*
X90452857Y-137053809D01*
X90357619Y-137006190D01*
X90167142Y-136958571D01*
X90071904Y-136910952D01*
X90024285Y-136863333D01*
X89976666Y-136768095D01*
X89976666Y-136672857D01*
X90024285Y-136577619D01*
X90071904Y-136530000D01*
X90167142Y-136482380D01*
X90405238Y-136482380D01*
X90548095Y-136530000D01*
X90976666Y-137482380D02*
X90976666Y-136482380D01*
X91357619Y-136482380D01*
X91452857Y-136530000D01*
X91500476Y-136577619D01*
X91548095Y-136672857D01*
X91548095Y-136815714D01*
X91500476Y-136910952D01*
X91452857Y-136958571D01*
X91357619Y-137006190D01*
X90976666Y-137006190D01*
X91881428Y-136482380D02*
X92500476Y-136482380D01*
X92167142Y-136863333D01*
X92310000Y-136863333D01*
X92405238Y-136910952D01*
X92452857Y-136958571D01*
X92500476Y-137053809D01*
X92500476Y-137291904D01*
X92452857Y-137387142D01*
X92405238Y-137434761D01*
X92310000Y-137482380D01*
X92024285Y-137482380D01*
X91929047Y-137434761D01*
X91881428Y-137387142D01*
X92881428Y-136577619D02*
X92929047Y-136530000D01*
X93024285Y-136482380D01*
X93262380Y-136482380D01*
X93357619Y-136530000D01*
X93405238Y-136577619D01*
X93452857Y-136672857D01*
X93452857Y-136768095D01*
X93405238Y-136910952D01*
X92833809Y-137482380D01*
X93452857Y-137482380D01*
X103542380Y-148527619D02*
X103066190Y-148860952D01*
X103542380Y-149099047D02*
X102542380Y-149099047D01*
X102542380Y-148718095D01*
X102590000Y-148622857D01*
X102637619Y-148575238D01*
X102732857Y-148527619D01*
X102875714Y-148527619D01*
X102970952Y-148575238D01*
X103018571Y-148622857D01*
X103066190Y-148718095D01*
X103066190Y-149099047D01*
X103494761Y-148146666D02*
X103542380Y-148003809D01*
X103542380Y-147765714D01*
X103494761Y-147670476D01*
X103447142Y-147622857D01*
X103351904Y-147575238D01*
X103256666Y-147575238D01*
X103161428Y-147622857D01*
X103113809Y-147670476D01*
X103066190Y-147765714D01*
X103018571Y-147956190D01*
X102970952Y-148051428D01*
X102923333Y-148099047D01*
X102828095Y-148146666D01*
X102732857Y-148146666D01*
X102637619Y-148099047D01*
X102590000Y-148051428D01*
X102542380Y-147956190D01*
X102542380Y-147718095D01*
X102590000Y-147575238D01*
X102542380Y-147289523D02*
X102542380Y-146718095D01*
X103542380Y-147003809D02*
X102542380Y-147003809D01*
X103302380Y-137811904D02*
X104111904Y-137811904D01*
X104207142Y-137764285D01*
X104254761Y-137716666D01*
X104302380Y-137621428D01*
X104302380Y-137430952D01*
X104254761Y-137335714D01*
X104207142Y-137288095D01*
X104111904Y-137240476D01*
X103302380Y-137240476D01*
X104254761Y-136811904D02*
X104302380Y-136669047D01*
X104302380Y-136430952D01*
X104254761Y-136335714D01*
X104207142Y-136288095D01*
X104111904Y-136240476D01*
X104016666Y-136240476D01*
X103921428Y-136288095D01*
X103873809Y-136335714D01*
X103826190Y-136430952D01*
X103778571Y-136621428D01*
X103730952Y-136716666D01*
X103683333Y-136764285D01*
X103588095Y-136811904D01*
X103492857Y-136811904D01*
X103397619Y-136764285D01*
X103350000Y-136716666D01*
X103302380Y-136621428D01*
X103302380Y-136383333D01*
X103350000Y-136240476D01*
X103778571Y-135478571D02*
X103826190Y-135335714D01*
X103873809Y-135288095D01*
X103969047Y-135240476D01*
X104111904Y-135240476D01*
X104207142Y-135288095D01*
X104254761Y-135335714D01*
X104302380Y-135430952D01*
X104302380Y-135811904D01*
X103302380Y-135811904D01*
X103302380Y-135478571D01*
X103350000Y-135383333D01*
X103397619Y-135335714D01*
X103492857Y-135288095D01*
X103588095Y-135288095D01*
X103683333Y-135335714D01*
X103730952Y-135383333D01*
X103778571Y-135478571D01*
X103778571Y-135811904D01*
X93369047Y-106228571D02*
X93702380Y-106228571D01*
X93845238Y-106752380D02*
X93369047Y-106752380D01*
X93369047Y-105752380D01*
X93845238Y-105752380D01*
X94130952Y-105752380D02*
X94464285Y-106752380D01*
X94797619Y-105752380D01*
X95130952Y-106228571D02*
X95464285Y-106228571D01*
X95607142Y-106752380D02*
X95130952Y-106752380D01*
X95130952Y-105752380D01*
X95607142Y-105752380D01*
X96035714Y-106752380D02*
X96035714Y-105752380D01*
X96607142Y-106752380D01*
X96607142Y-105752380D01*
X98416666Y-106657142D02*
X98369047Y-106704761D01*
X98226190Y-106752380D01*
X98130952Y-106752380D01*
X97988095Y-106704761D01*
X97892857Y-106609523D01*
X97845238Y-106514285D01*
X97797619Y-106323809D01*
X97797619Y-106180952D01*
X97845238Y-105990476D01*
X97892857Y-105895238D01*
X97988095Y-105800000D01*
X98130952Y-105752380D01*
X98226190Y-105752380D01*
X98369047Y-105800000D01*
X98416666Y-105847619D01*
X98845238Y-106752380D02*
X98845238Y-105752380D01*
X99273809Y-106466666D02*
X99750000Y-106466666D01*
X99178571Y-106752380D02*
X99511904Y-105752380D01*
X99845238Y-106752380D01*
X101083333Y-106180952D02*
X100988095Y-106133333D01*
X100940476Y-106085714D01*
X100892857Y-105990476D01*
X100892857Y-105942857D01*
X100940476Y-105847619D01*
X100988095Y-105800000D01*
X101083333Y-105752380D01*
X101273809Y-105752380D01*
X101369047Y-105800000D01*
X101416666Y-105847619D01*
X101464285Y-105942857D01*
X101464285Y-105990476D01*
X101416666Y-106085714D01*
X101369047Y-106133333D01*
X101273809Y-106180952D01*
X101083333Y-106180952D01*
X100988095Y-106228571D01*
X100940476Y-106276190D01*
X100892857Y-106371428D01*
X100892857Y-106561904D01*
X100940476Y-106657142D01*
X100988095Y-106704761D01*
X101083333Y-106752380D01*
X101273809Y-106752380D01*
X101369047Y-106704761D01*
X101416666Y-106657142D01*
X101464285Y-106561904D01*
X101464285Y-106371428D01*
X101416666Y-106276190D01*
X101369047Y-106228571D01*
X101273809Y-106180952D01*
X102369047Y-105752380D02*
X101892857Y-105752380D01*
X101845238Y-106228571D01*
X101892857Y-106180952D01*
X101988095Y-106133333D01*
X102226190Y-106133333D01*
X102321428Y-106180952D01*
X102369047Y-106228571D01*
X102416666Y-106323809D01*
X102416666Y-106561904D01*
X102369047Y-106657142D01*
X102321428Y-106704761D01*
X102226190Y-106752380D01*
X101988095Y-106752380D01*
X101892857Y-106704761D01*
X101845238Y-106657142D01*
X102797619Y-105847619D02*
X102845238Y-105800000D01*
X102940476Y-105752380D01*
X103178571Y-105752380D01*
X103273809Y-105800000D01*
X103321428Y-105847619D01*
X103369047Y-105942857D01*
X103369047Y-106038095D01*
X103321428Y-106180952D01*
X102750000Y-106752380D01*
X103369047Y-106752380D01*
X103988095Y-105752380D02*
X104083333Y-105752380D01*
X104178571Y-105800000D01*
X104226190Y-105847619D01*
X104273809Y-105942857D01*
X104321428Y-106133333D01*
X104321428Y-106371428D01*
X104273809Y-106561904D01*
X104226190Y-106657142D01*
X104178571Y-106704761D01*
X104083333Y-106752380D01*
X103988095Y-106752380D01*
X103892857Y-106704761D01*
X103845238Y-106657142D01*
X103797619Y-106561904D01*
X103750000Y-106371428D01*
X103750000Y-106133333D01*
X103797619Y-105942857D01*
X103845238Y-105847619D01*
X103892857Y-105800000D01*
X103988095Y-105752380D01*
X104702380Y-106466666D02*
X105178571Y-106466666D01*
X104607142Y-106752380D02*
X104940476Y-105752380D01*
X105273809Y-106752380D01*
%LPC*%
D14*
X119760000Y-123250000D03*
X122300000Y-123250000D03*
X117220000Y-123250000D03*
D15*
X109600000Y-123250000D03*
D14*
X114680000Y-123250000D03*
X112140000Y-123250000D03*
X122300000Y-133750000D03*
X119760000Y-133750000D03*
X117220000Y-133750000D03*
X114680000Y-133750000D03*
X112140000Y-133750000D03*
D15*
X109600000Y-133750000D03*
D16*
X76420000Y-147980000D03*
X76420000Y-150520000D03*
X78960000Y-150520000D03*
X78960000Y-147980000D03*
X81500000Y-150520000D03*
X81500000Y-147980000D03*
X84040000Y-150520000D03*
X84040000Y-147980000D03*
X86580000Y-150520000D03*
X86580000Y-147980000D03*
X89120000Y-150520000D03*
X89120000Y-147980000D03*
X91660000Y-150520000D03*
X91660000Y-147980000D03*
X94200000Y-150520000D03*
X94200000Y-147980000D03*
X96740000Y-150520000D03*
X96740000Y-147980000D03*
X99280000Y-150520000D03*
X99280000Y-147980000D03*
X76420000Y-125120000D03*
X76420000Y-122580000D03*
X78960000Y-125120000D03*
X78960000Y-122580000D03*
X81500000Y-125120000D03*
X81500000Y-122580000D03*
X84040000Y-125120000D03*
X84040000Y-122580000D03*
X86580000Y-125120000D03*
X86580000Y-122580000D03*
X89120000Y-125120000D03*
X89120000Y-122580000D03*
X91660000Y-125120000D03*
X91660000Y-122580000D03*
X94200000Y-125120000D03*
X94200000Y-122580000D03*
X96740000Y-125120000D03*
X96740000Y-122580000D03*
X99280000Y-125120000D03*
X99280000Y-122580000D03*
D14*
X123510000Y-111540000D03*
X75250000Y-96300000D03*
X120970000Y-111540000D03*
X77790000Y-96300000D03*
X118430000Y-111540000D03*
X80330000Y-96300000D03*
X115890000Y-111540000D03*
X82870000Y-96300000D03*
X113350000Y-111540000D03*
X85410000Y-96300000D03*
X110810000Y-111540000D03*
X87950000Y-96300000D03*
X108270000Y-111540000D03*
X90490000Y-96300000D03*
X105730000Y-111540000D03*
X93030000Y-96300000D03*
X103190000Y-111540000D03*
X95570000Y-96300000D03*
X100650000Y-111540000D03*
X98110000Y-96300000D03*
X98110000Y-111540000D03*
X100650000Y-96300000D03*
X95570000Y-111540000D03*
X103190000Y-96300000D03*
X93030000Y-111540000D03*
X105730000Y-96300000D03*
X90490000Y-111540000D03*
X108270000Y-96300000D03*
X87950000Y-111540000D03*
X110810000Y-96300000D03*
X85410000Y-111540000D03*
X113350000Y-96300000D03*
X82870000Y-111540000D03*
X115890000Y-96300000D03*
X80330000Y-111540000D03*
X118430000Y-96300000D03*
X77790000Y-111540000D03*
X120970000Y-96300000D03*
X75250000Y-111540000D03*
D15*
X123510000Y-96300000D03*
X123500000Y-100300000D03*
D14*
X120960000Y-100300000D03*
X118420000Y-100300000D03*
X115880000Y-100300000D03*
X113340000Y-100300000D03*
X110800000Y-100300000D03*
X108260000Y-100300000D03*
X105720000Y-100300000D03*
X103180000Y-100300000D03*
X100640000Y-100300000D03*
X98100000Y-100300000D03*
X95560000Y-100300000D03*
X93020000Y-100300000D03*
X90480000Y-100300000D03*
X87940000Y-100300000D03*
X85400000Y-100300000D03*
X82860000Y-100300000D03*
X80320000Y-100300000D03*
X77780000Y-100300000D03*
X75240000Y-100300000D03*
X75240000Y-115550000D03*
X77780000Y-115550000D03*
X80320000Y-115550000D03*
X82860000Y-115550000D03*
X85400000Y-115550000D03*
X87940000Y-115550000D03*
X90480000Y-115550000D03*
X93020000Y-115550000D03*
X95560000Y-115550000D03*
X98100000Y-115550000D03*
X100640000Y-115550000D03*
X103180000Y-115550000D03*
X105720000Y-115550000D03*
X108260000Y-115550000D03*
X110800000Y-115550000D03*
X113340000Y-115550000D03*
X115880000Y-115550000D03*
X118420000Y-115550000D03*
X120960000Y-115550000D03*
D15*
X123500000Y-115550000D03*
M02*
