M48
; DRILL file {KiCad (5.1.6)-1} date 12/03/21 11:19:23
; FORMAT={-:-/ absolute / metric / decimal}
; #@! TF.CreationDate,2021-12-03T11:19:23+02:00
; #@! TF.GenerationSoftware,Kicad,Pcbnew,(5.1.6)-1
; #@! TF.FileFunction,Plated,1,2,PTH
FMAT,2
METRIC
T1C1.000
%
G90
G05
T1
X76.42Y-122.58
X76.42Y-125.12
X76.42Y-147.98
X76.42Y-150.52
X78.96Y-122.58
X78.96Y-125.12
X78.96Y-147.98
X78.96Y-150.52
X81.5Y-122.58
X81.5Y-125.12
X81.5Y-147.98
X81.5Y-150.52
X84.04Y-122.58
X84.04Y-125.12
X84.04Y-147.98
X84.04Y-150.52
X86.58Y-122.58
X86.58Y-125.12
X86.58Y-147.98
X86.58Y-150.52
X89.12Y-122.58
X89.12Y-125.12
X89.12Y-147.98
X89.12Y-150.52
X91.66Y-122.58
X91.66Y-125.12
X91.66Y-147.98
X91.66Y-150.52
X94.2Y-122.58
X94.2Y-125.12
X94.2Y-147.98
X94.2Y-150.52
X96.74Y-122.58
X96.74Y-125.12
X96.74Y-147.98
X96.74Y-150.52
X99.28Y-122.58
X99.28Y-125.12
X99.28Y-147.98
X99.28Y-150.52
X75.24Y-115.55
X77.78Y-115.55
X80.32Y-115.55
X82.86Y-115.55
X85.4Y-115.55
X87.94Y-115.55
X90.48Y-115.55
X93.02Y-115.55
X95.56Y-115.55
X98.1Y-115.55
X100.64Y-115.55
X103.18Y-115.55
X105.72Y-115.55
X108.26Y-115.55
X110.8Y-115.55
X113.34Y-115.55
X115.88Y-115.55
X118.42Y-115.55
X120.96Y-115.55
X123.5Y-115.55
X75.25Y-96.3
X75.25Y-111.54
X77.79Y-96.3
X77.79Y-111.54
X80.33Y-96.3
X80.33Y-111.54
X82.87Y-96.3
X82.87Y-111.54
X85.41Y-96.3
X85.41Y-111.54
X87.95Y-96.3
X87.95Y-111.54
X90.49Y-96.3
X90.49Y-111.54
X93.03Y-96.3
X93.03Y-111.54
X95.57Y-96.3
X95.57Y-111.54
X98.11Y-96.3
X98.11Y-111.54
X100.65Y-96.3
X100.65Y-111.54
X103.19Y-96.3
X103.19Y-111.54
X105.73Y-96.3
X105.73Y-111.54
X108.27Y-96.3
X108.27Y-111.54
X110.81Y-96.3
X110.81Y-111.54
X113.35Y-96.3
X113.35Y-111.54
X115.89Y-96.3
X115.89Y-111.54
X118.43Y-96.3
X118.43Y-111.54
X120.97Y-96.3
X120.97Y-111.54
X123.51Y-96.3
X123.51Y-111.54
X109.6Y-123.25
X109.6Y-133.75
X112.14Y-123.25
X112.14Y-133.75
X114.68Y-123.25
X114.68Y-133.75
X117.22Y-123.25
X117.22Y-133.75
X119.76Y-123.25
X119.76Y-133.75
X122.3Y-123.25
X122.3Y-133.75
X75.24Y-100.3
X77.78Y-100.3
X80.32Y-100.3
X82.86Y-100.3
X85.4Y-100.3
X87.94Y-100.3
X90.48Y-100.3
X93.02Y-100.3
X95.56Y-100.3
X98.1Y-100.3
X100.64Y-100.3
X103.18Y-100.3
X105.72Y-100.3
X108.26Y-100.3
X110.8Y-100.3
X113.34Y-100.3
X115.88Y-100.3
X118.42Y-100.3
X120.96Y-100.3
X123.5Y-100.3
T0
M30
