G04 #@! TF.GenerationSoftware,KiCad,Pcbnew,(5.1.6)-1*
G04 #@! TF.CreationDate,2021-10-27T15:33:21+03:00*
G04 #@! TF.ProjectId,df_selector,64665f73-656c-4656-9374-6f722e6b6963,rev?*
G04 #@! TF.SameCoordinates,Original*
G04 #@! TF.FileFunction,Legend,Top*
G04 #@! TF.FilePolarity,Positive*
%FSLAX46Y46*%
G04 Gerber Fmt 4.6, Leading zero omitted, Abs format (unit mm)*
G04 Created by KiCad (PCBNEW (5.1.6)-1) date 2021-10-27 15:33:21*
%MOMM*%
%LPD*%
G01*
G04 APERTURE LIST*
%ADD10C,0.150000*%
%ADD11C,0.120000*%
%ADD12C,0.100000*%
%ADD13C,0.010000*%
%ADD14O,1.700000X1.700000*%
%ADD15R,1.700000X1.700000*%
%ADD16C,1.700000*%
G04 APERTURE END LIST*
D10*
X74702380Y-95440476D02*
X74702380Y-95916666D01*
X75178571Y-95964285D01*
X75130952Y-95916666D01*
X75083333Y-95821428D01*
X75083333Y-95583333D01*
X75130952Y-95488095D01*
X75178571Y-95440476D01*
X75273809Y-95392857D01*
X75511904Y-95392857D01*
X75607142Y-95440476D01*
X75654761Y-95488095D01*
X75702380Y-95583333D01*
X75702380Y-95821428D01*
X75654761Y-95916666D01*
X75607142Y-95964285D01*
X74702380Y-95107142D02*
X75702380Y-94773809D01*
X74702380Y-94440476D01*
X92452380Y-86738095D02*
X92452380Y-86119047D01*
X92833333Y-86452380D01*
X92833333Y-86309523D01*
X92880952Y-86214285D01*
X92928571Y-86166666D01*
X93023809Y-86119047D01*
X93261904Y-86119047D01*
X93357142Y-86166666D01*
X93404761Y-86214285D01*
X93452380Y-86309523D01*
X93452380Y-86595238D01*
X93404761Y-86690476D01*
X93357142Y-86738095D01*
X92452380Y-85833333D02*
X93452380Y-85500000D01*
X92452380Y-85166666D01*
X92452380Y-84928571D02*
X92452380Y-84309523D01*
X92833333Y-84642857D01*
X92833333Y-84500000D01*
X92880952Y-84404761D01*
X92928571Y-84357142D01*
X93023809Y-84309523D01*
X93261904Y-84309523D01*
X93357142Y-84357142D01*
X93404761Y-84404761D01*
X93452380Y-84500000D01*
X93452380Y-84785714D01*
X93404761Y-84880952D01*
X93357142Y-84928571D01*
X92702380Y-67440476D02*
X92702380Y-67916666D01*
X93178571Y-67964285D01*
X93130952Y-67916666D01*
X93083333Y-67821428D01*
X93083333Y-67583333D01*
X93130952Y-67488095D01*
X93178571Y-67440476D01*
X93273809Y-67392857D01*
X93511904Y-67392857D01*
X93607142Y-67440476D01*
X93654761Y-67488095D01*
X93702380Y-67583333D01*
X93702380Y-67821428D01*
X93654761Y-67916666D01*
X93607142Y-67964285D01*
X92702380Y-67107142D02*
X93702380Y-66773809D01*
X92702380Y-66440476D01*
X88404761Y-84321428D02*
X88452380Y-84178571D01*
X88452380Y-83940476D01*
X88404761Y-83845238D01*
X88357142Y-83797619D01*
X88261904Y-83750000D01*
X88166666Y-83750000D01*
X88071428Y-83797619D01*
X88023809Y-83845238D01*
X87976190Y-83940476D01*
X87928571Y-84130952D01*
X87880952Y-84226190D01*
X87833333Y-84273809D01*
X87738095Y-84321428D01*
X87642857Y-84321428D01*
X87547619Y-84273809D01*
X87500000Y-84226190D01*
X87452380Y-84130952D01*
X87452380Y-83892857D01*
X87500000Y-83750000D01*
X88452380Y-82797619D02*
X88452380Y-83369047D01*
X88452380Y-83083333D02*
X87452380Y-83083333D01*
X87595238Y-83178571D01*
X87690476Y-83273809D01*
X87738095Y-83369047D01*
X88547619Y-82607142D02*
X88547619Y-81845238D01*
X87452380Y-81416666D02*
X87452380Y-81226190D01*
X87500000Y-81130952D01*
X87595238Y-81035714D01*
X87785714Y-80988095D01*
X88119047Y-80988095D01*
X88309523Y-81035714D01*
X88404761Y-81130952D01*
X88452380Y-81226190D01*
X88452380Y-81416666D01*
X88404761Y-81511904D01*
X88309523Y-81607142D01*
X88119047Y-81654761D01*
X87785714Y-81654761D01*
X87595238Y-81607142D01*
X87500000Y-81511904D01*
X87452380Y-81416666D01*
X87452380Y-80559523D02*
X88261904Y-80559523D01*
X88357142Y-80511904D01*
X88404761Y-80464285D01*
X88452380Y-80369047D01*
X88452380Y-80178571D01*
X88404761Y-80083333D01*
X88357142Y-80035714D01*
X88261904Y-79988095D01*
X87452380Y-79988095D01*
X87452380Y-79654761D02*
X87452380Y-79083333D01*
X88452380Y-79369047D02*
X87452380Y-79369047D01*
X85904761Y-84321428D02*
X85952380Y-84178571D01*
X85952380Y-83940476D01*
X85904761Y-83845238D01*
X85857142Y-83797619D01*
X85761904Y-83750000D01*
X85666666Y-83750000D01*
X85571428Y-83797619D01*
X85523809Y-83845238D01*
X85476190Y-83940476D01*
X85428571Y-84130952D01*
X85380952Y-84226190D01*
X85333333Y-84273809D01*
X85238095Y-84321428D01*
X85142857Y-84321428D01*
X85047619Y-84273809D01*
X85000000Y-84226190D01*
X84952380Y-84130952D01*
X84952380Y-83892857D01*
X85000000Y-83750000D01*
X84952380Y-83130952D02*
X84952380Y-83035714D01*
X85000000Y-82940476D01*
X85047619Y-82892857D01*
X85142857Y-82845238D01*
X85333333Y-82797619D01*
X85571428Y-82797619D01*
X85761904Y-82845238D01*
X85857142Y-82892857D01*
X85904761Y-82940476D01*
X85952380Y-83035714D01*
X85952380Y-83130952D01*
X85904761Y-83226190D01*
X85857142Y-83273809D01*
X85761904Y-83321428D01*
X85571428Y-83369047D01*
X85333333Y-83369047D01*
X85142857Y-83321428D01*
X85047619Y-83273809D01*
X85000000Y-83226190D01*
X84952380Y-83130952D01*
X86047619Y-82607142D02*
X86047619Y-81845238D01*
X84952380Y-81416666D02*
X84952380Y-81226190D01*
X85000000Y-81130952D01*
X85095238Y-81035714D01*
X85285714Y-80988095D01*
X85619047Y-80988095D01*
X85809523Y-81035714D01*
X85904761Y-81130952D01*
X85952380Y-81226190D01*
X85952380Y-81416666D01*
X85904761Y-81511904D01*
X85809523Y-81607142D01*
X85619047Y-81654761D01*
X85285714Y-81654761D01*
X85095238Y-81607142D01*
X85000000Y-81511904D01*
X84952380Y-81416666D01*
X84952380Y-80559523D02*
X85761904Y-80559523D01*
X85857142Y-80511904D01*
X85904761Y-80464285D01*
X85952380Y-80369047D01*
X85952380Y-80178571D01*
X85904761Y-80083333D01*
X85857142Y-80035714D01*
X85761904Y-79988095D01*
X84952380Y-79988095D01*
X84952380Y-79654761D02*
X84952380Y-79083333D01*
X85952380Y-79369047D02*
X84952380Y-79369047D01*
X83404761Y-84154761D02*
X83452380Y-84011904D01*
X83452380Y-83773809D01*
X83404761Y-83678571D01*
X83357142Y-83630952D01*
X83261904Y-83583333D01*
X83166666Y-83583333D01*
X83071428Y-83630952D01*
X83023809Y-83678571D01*
X82976190Y-83773809D01*
X82928571Y-83964285D01*
X82880952Y-84059523D01*
X82833333Y-84107142D01*
X82738095Y-84154761D01*
X82642857Y-84154761D01*
X82547619Y-84107142D01*
X82500000Y-84059523D01*
X82452380Y-83964285D01*
X82452380Y-83726190D01*
X82500000Y-83583333D01*
X83452380Y-82630952D02*
X83452380Y-83202380D01*
X83452380Y-82916666D02*
X82452380Y-82916666D01*
X82595238Y-83011904D01*
X82690476Y-83107142D01*
X82738095Y-83202380D01*
X83547619Y-82440476D02*
X83547619Y-81678571D01*
X83452380Y-81440476D02*
X82452380Y-81440476D01*
X83452380Y-80964285D02*
X82452380Y-80964285D01*
X83452380Y-80392857D01*
X82452380Y-80392857D01*
X80654761Y-84154761D02*
X80702380Y-84011904D01*
X80702380Y-83773809D01*
X80654761Y-83678571D01*
X80607142Y-83630952D01*
X80511904Y-83583333D01*
X80416666Y-83583333D01*
X80321428Y-83630952D01*
X80273809Y-83678571D01*
X80226190Y-83773809D01*
X80178571Y-83964285D01*
X80130952Y-84059523D01*
X80083333Y-84107142D01*
X79988095Y-84154761D01*
X79892857Y-84154761D01*
X79797619Y-84107142D01*
X79750000Y-84059523D01*
X79702380Y-83964285D01*
X79702380Y-83726190D01*
X79750000Y-83583333D01*
X79702380Y-82964285D02*
X79702380Y-82869047D01*
X79750000Y-82773809D01*
X79797619Y-82726190D01*
X79892857Y-82678571D01*
X80083333Y-82630952D01*
X80321428Y-82630952D01*
X80511904Y-82678571D01*
X80607142Y-82726190D01*
X80654761Y-82773809D01*
X80702380Y-82869047D01*
X80702380Y-82964285D01*
X80654761Y-83059523D01*
X80607142Y-83107142D01*
X80511904Y-83154761D01*
X80321428Y-83202380D01*
X80083333Y-83202380D01*
X79892857Y-83154761D01*
X79797619Y-83107142D01*
X79750000Y-83059523D01*
X79702380Y-82964285D01*
X80797619Y-82440476D02*
X80797619Y-81678571D01*
X80702380Y-81440476D02*
X79702380Y-81440476D01*
X80702380Y-80964285D02*
X79702380Y-80964285D01*
X80702380Y-80392857D01*
X79702380Y-80392857D01*
X115202380Y-76738095D02*
X115202380Y-76119047D01*
X115583333Y-76452380D01*
X115583333Y-76309523D01*
X115630952Y-76214285D01*
X115678571Y-76166666D01*
X115773809Y-76119047D01*
X116011904Y-76119047D01*
X116107142Y-76166666D01*
X116154761Y-76214285D01*
X116202380Y-76309523D01*
X116202380Y-76595238D01*
X116154761Y-76690476D01*
X116107142Y-76738095D01*
X115202380Y-75833333D02*
X116202380Y-75500000D01*
X115202380Y-75166666D01*
X115202380Y-74928571D02*
X115202380Y-74309523D01*
X115583333Y-74642857D01*
X115583333Y-74500000D01*
X115630952Y-74404761D01*
X115678571Y-74357142D01*
X115773809Y-74309523D01*
X116011904Y-74309523D01*
X116107142Y-74357142D01*
X116154761Y-74404761D01*
X116202380Y-74500000D01*
X116202380Y-74785714D01*
X116154761Y-74880952D01*
X116107142Y-74928571D01*
X115452380Y-93190476D02*
X115452380Y-93666666D01*
X115928571Y-93714285D01*
X115880952Y-93666666D01*
X115833333Y-93571428D01*
X115833333Y-93333333D01*
X115880952Y-93238095D01*
X115928571Y-93190476D01*
X116023809Y-93142857D01*
X116261904Y-93142857D01*
X116357142Y-93190476D01*
X116404761Y-93238095D01*
X116452380Y-93333333D01*
X116452380Y-93571428D01*
X116404761Y-93666666D01*
X116357142Y-93714285D01*
X115452380Y-92857142D02*
X116452380Y-92523809D01*
X115452380Y-92190476D01*
X109178571Y-63591666D02*
X109654761Y-63591666D01*
X109083333Y-63877380D02*
X109416666Y-62877380D01*
X109750000Y-63877380D01*
X110559523Y-62877380D02*
X110083333Y-62877380D01*
X110035714Y-63353571D01*
X110083333Y-63305952D01*
X110178571Y-63258333D01*
X110416666Y-63258333D01*
X110511904Y-63305952D01*
X110559523Y-63353571D01*
X110607142Y-63448809D01*
X110607142Y-63686904D01*
X110559523Y-63782142D01*
X110511904Y-63829761D01*
X110416666Y-63877380D01*
X110178571Y-63877380D01*
X110083333Y-63829761D01*
X110035714Y-63782142D01*
X111226190Y-62877380D02*
X111321428Y-62877380D01*
X111416666Y-62925000D01*
X111464285Y-62972619D01*
X111511904Y-63067857D01*
X111559523Y-63258333D01*
X111559523Y-63496428D01*
X111511904Y-63686904D01*
X111464285Y-63782142D01*
X111416666Y-63829761D01*
X111321428Y-63877380D01*
X111226190Y-63877380D01*
X111130952Y-63829761D01*
X111083333Y-63782142D01*
X111035714Y-63686904D01*
X110988095Y-63496428D01*
X110988095Y-63258333D01*
X111035714Y-63067857D01*
X111083333Y-62972619D01*
X111130952Y-62925000D01*
X111226190Y-62877380D01*
X112178571Y-62877380D02*
X112273809Y-62877380D01*
X112369047Y-62925000D01*
X112416666Y-62972619D01*
X112464285Y-63067857D01*
X112511904Y-63258333D01*
X112511904Y-63496428D01*
X112464285Y-63686904D01*
X112416666Y-63782142D01*
X112369047Y-63829761D01*
X112273809Y-63877380D01*
X112178571Y-63877380D01*
X112083333Y-63829761D01*
X112035714Y-63782142D01*
X111988095Y-63686904D01*
X111940476Y-63496428D01*
X111940476Y-63258333D01*
X111988095Y-63067857D01*
X112035714Y-62972619D01*
X112083333Y-62925000D01*
X112178571Y-62877380D01*
X113702380Y-63877380D02*
X113702380Y-62877380D01*
X113702380Y-63258333D02*
X113797619Y-63210714D01*
X113988095Y-63210714D01*
X114083333Y-63258333D01*
X114130952Y-63305952D01*
X114178571Y-63401190D01*
X114178571Y-63686904D01*
X114130952Y-63782142D01*
X114083333Y-63829761D01*
X113988095Y-63877380D01*
X113797619Y-63877380D01*
X113702380Y-63829761D01*
X114750000Y-63877380D02*
X114654761Y-63829761D01*
X114607142Y-63782142D01*
X114559523Y-63686904D01*
X114559523Y-63401190D01*
X114607142Y-63305952D01*
X114654761Y-63258333D01*
X114750000Y-63210714D01*
X114892857Y-63210714D01*
X114988095Y-63258333D01*
X115035714Y-63305952D01*
X115083333Y-63401190D01*
X115083333Y-63686904D01*
X115035714Y-63782142D01*
X114988095Y-63829761D01*
X114892857Y-63877380D01*
X114750000Y-63877380D01*
X115654761Y-63877380D02*
X115559523Y-63829761D01*
X115511904Y-63782142D01*
X115464285Y-63686904D01*
X115464285Y-63401190D01*
X115511904Y-63305952D01*
X115559523Y-63258333D01*
X115654761Y-63210714D01*
X115797619Y-63210714D01*
X115892857Y-63258333D01*
X115940476Y-63305952D01*
X115988095Y-63401190D01*
X115988095Y-63686904D01*
X115940476Y-63782142D01*
X115892857Y-63829761D01*
X115797619Y-63877380D01*
X115654761Y-63877380D01*
X116273809Y-63210714D02*
X116654761Y-63210714D01*
X116416666Y-62877380D02*
X116416666Y-63734523D01*
X116464285Y-63829761D01*
X116559523Y-63877380D01*
X116654761Y-63877380D01*
X118178571Y-63877380D02*
X118178571Y-62877380D01*
X118178571Y-63829761D02*
X118083333Y-63877380D01*
X117892857Y-63877380D01*
X117797619Y-63829761D01*
X117750000Y-63782142D01*
X117702380Y-63686904D01*
X117702380Y-63401190D01*
X117750000Y-63305952D01*
X117797619Y-63258333D01*
X117892857Y-63210714D01*
X118083333Y-63210714D01*
X118178571Y-63258333D01*
X118654761Y-63877380D02*
X118654761Y-63210714D01*
X118654761Y-62877380D02*
X118607142Y-62925000D01*
X118654761Y-62972619D01*
X118702380Y-62925000D01*
X118654761Y-62877380D01*
X118654761Y-62972619D01*
X119083333Y-63829761D02*
X119178571Y-63877380D01*
X119369047Y-63877380D01*
X119464285Y-63829761D01*
X119511904Y-63734523D01*
X119511904Y-63686904D01*
X119464285Y-63591666D01*
X119369047Y-63544047D01*
X119226190Y-63544047D01*
X119130952Y-63496428D01*
X119083333Y-63401190D01*
X119083333Y-63353571D01*
X119130952Y-63258333D01*
X119226190Y-63210714D01*
X119369047Y-63210714D01*
X119464285Y-63258333D01*
X119940476Y-63877380D02*
X119940476Y-62877380D01*
X120035714Y-63496428D02*
X120321428Y-63877380D01*
X120321428Y-63210714D02*
X119940476Y-63591666D01*
X108511904Y-64860714D02*
X108702380Y-65527380D01*
X108892857Y-65051190D01*
X109083333Y-65527380D01*
X109273809Y-64860714D01*
X109654761Y-65527380D02*
X109654761Y-64860714D01*
X109654761Y-64527380D02*
X109607142Y-64575000D01*
X109654761Y-64622619D01*
X109702380Y-64575000D01*
X109654761Y-64527380D01*
X109654761Y-64622619D01*
X110130952Y-65527380D02*
X110130952Y-64860714D01*
X110130952Y-65051190D02*
X110178571Y-64955952D01*
X110226190Y-64908333D01*
X110321428Y-64860714D01*
X110416666Y-64860714D01*
X111130952Y-65479761D02*
X111035714Y-65527380D01*
X110845238Y-65527380D01*
X110750000Y-65479761D01*
X110702380Y-65384523D01*
X110702380Y-65003571D01*
X110750000Y-64908333D01*
X110845238Y-64860714D01*
X111035714Y-64860714D01*
X111130952Y-64908333D01*
X111178571Y-65003571D01*
X111178571Y-65098809D01*
X110702380Y-65194047D01*
X111750000Y-65527380D02*
X111654761Y-65479761D01*
X111607142Y-65384523D01*
X111607142Y-64527380D01*
X112511904Y-65479761D02*
X112416666Y-65527380D01*
X112226190Y-65527380D01*
X112130952Y-65479761D01*
X112083333Y-65384523D01*
X112083333Y-65003571D01*
X112130952Y-64908333D01*
X112226190Y-64860714D01*
X112416666Y-64860714D01*
X112511904Y-64908333D01*
X112559523Y-65003571D01*
X112559523Y-65098809D01*
X112083333Y-65194047D01*
X112940476Y-65479761D02*
X113035714Y-65527380D01*
X113226190Y-65527380D01*
X113321428Y-65479761D01*
X113369047Y-65384523D01*
X113369047Y-65336904D01*
X113321428Y-65241666D01*
X113226190Y-65194047D01*
X113083333Y-65194047D01*
X112988095Y-65146428D01*
X112940476Y-65051190D01*
X112940476Y-65003571D01*
X112988095Y-64908333D01*
X113083333Y-64860714D01*
X113226190Y-64860714D01*
X113321428Y-64908333D01*
X113750000Y-65479761D02*
X113845238Y-65527380D01*
X114035714Y-65527380D01*
X114130952Y-65479761D01*
X114178571Y-65384523D01*
X114178571Y-65336904D01*
X114130952Y-65241666D01*
X114035714Y-65194047D01*
X113892857Y-65194047D01*
X113797619Y-65146428D01*
X113750000Y-65051190D01*
X113750000Y-65003571D01*
X113797619Y-64908333D01*
X113892857Y-64860714D01*
X114035714Y-64860714D01*
X114130952Y-64908333D01*
X115321428Y-65479761D02*
X115416666Y-65527380D01*
X115607142Y-65527380D01*
X115702380Y-65479761D01*
X115750000Y-65384523D01*
X115750000Y-65336904D01*
X115702380Y-65241666D01*
X115607142Y-65194047D01*
X115464285Y-65194047D01*
X115369047Y-65146428D01*
X115321428Y-65051190D01*
X115321428Y-65003571D01*
X115369047Y-64908333D01*
X115464285Y-64860714D01*
X115607142Y-64860714D01*
X115702380Y-64908333D01*
X116559523Y-65479761D02*
X116464285Y-65527380D01*
X116273809Y-65527380D01*
X116178571Y-65479761D01*
X116130952Y-65384523D01*
X116130952Y-65003571D01*
X116178571Y-64908333D01*
X116273809Y-64860714D01*
X116464285Y-64860714D01*
X116559523Y-64908333D01*
X116607142Y-65003571D01*
X116607142Y-65098809D01*
X116130952Y-65194047D01*
X117178571Y-65527380D02*
X117083333Y-65479761D01*
X117035714Y-65384523D01*
X117035714Y-64527380D01*
X117940476Y-65479761D02*
X117845238Y-65527380D01*
X117654761Y-65527380D01*
X117559523Y-65479761D01*
X117511904Y-65384523D01*
X117511904Y-65003571D01*
X117559523Y-64908333D01*
X117654761Y-64860714D01*
X117845238Y-64860714D01*
X117940476Y-64908333D01*
X117988095Y-65003571D01*
X117988095Y-65098809D01*
X117511904Y-65194047D01*
X118845238Y-65479761D02*
X118750000Y-65527380D01*
X118559523Y-65527380D01*
X118464285Y-65479761D01*
X118416666Y-65432142D01*
X118369047Y-65336904D01*
X118369047Y-65051190D01*
X118416666Y-64955952D01*
X118464285Y-64908333D01*
X118559523Y-64860714D01*
X118750000Y-64860714D01*
X118845238Y-64908333D01*
X119130952Y-64860714D02*
X119511904Y-64860714D01*
X119273809Y-64527380D02*
X119273809Y-65384523D01*
X119321428Y-65479761D01*
X119416666Y-65527380D01*
X119511904Y-65527380D01*
X119988095Y-65527380D02*
X119892857Y-65479761D01*
X119845238Y-65432142D01*
X119797619Y-65336904D01*
X119797619Y-65051190D01*
X119845238Y-64955952D01*
X119892857Y-64908333D01*
X119988095Y-64860714D01*
X120130952Y-64860714D01*
X120226190Y-64908333D01*
X120273809Y-64955952D01*
X120321428Y-65051190D01*
X120321428Y-65336904D01*
X120273809Y-65432142D01*
X120226190Y-65479761D01*
X120130952Y-65527380D01*
X119988095Y-65527380D01*
X120750000Y-65527380D02*
X120750000Y-64860714D01*
X120750000Y-65051190D02*
X120797619Y-64955952D01*
X120845238Y-64908333D01*
X120940476Y-64860714D01*
X121035714Y-64860714D01*
X86190476Y-94702380D02*
X86190476Y-93702380D01*
X86619047Y-94702380D02*
X86619047Y-94178571D01*
X86571428Y-94083333D01*
X86476190Y-94035714D01*
X86333333Y-94035714D01*
X86238095Y-94083333D01*
X86190476Y-94130952D01*
X86952380Y-94035714D02*
X87333333Y-94035714D01*
X87095238Y-93702380D02*
X87095238Y-94559523D01*
X87142857Y-94654761D01*
X87238095Y-94702380D01*
X87333333Y-94702380D01*
X87523809Y-94035714D02*
X87904761Y-94035714D01*
X87666666Y-93702380D02*
X87666666Y-94559523D01*
X87714285Y-94654761D01*
X87809523Y-94702380D01*
X87904761Y-94702380D01*
X88238095Y-94035714D02*
X88238095Y-95035714D01*
X88238095Y-94083333D02*
X88333333Y-94035714D01*
X88523809Y-94035714D01*
X88619047Y-94083333D01*
X88666666Y-94130952D01*
X88714285Y-94226190D01*
X88714285Y-94511904D01*
X88666666Y-94607142D01*
X88619047Y-94654761D01*
X88523809Y-94702380D01*
X88333333Y-94702380D01*
X88238095Y-94654761D01*
X89095238Y-94654761D02*
X89190476Y-94702380D01*
X89380952Y-94702380D01*
X89476190Y-94654761D01*
X89523809Y-94559523D01*
X89523809Y-94511904D01*
X89476190Y-94416666D01*
X89380952Y-94369047D01*
X89238095Y-94369047D01*
X89142857Y-94321428D01*
X89095238Y-94226190D01*
X89095238Y-94178571D01*
X89142857Y-94083333D01*
X89238095Y-94035714D01*
X89380952Y-94035714D01*
X89476190Y-94083333D01*
X89952380Y-94607142D02*
X90000000Y-94654761D01*
X89952380Y-94702380D01*
X89904761Y-94654761D01*
X89952380Y-94607142D01*
X89952380Y-94702380D01*
X89952380Y-94083333D02*
X90000000Y-94130952D01*
X89952380Y-94178571D01*
X89904761Y-94130952D01*
X89952380Y-94083333D01*
X89952380Y-94178571D01*
X91142857Y-93654761D02*
X90285714Y-94940476D01*
X92190476Y-93654761D02*
X91333333Y-94940476D01*
X92952380Y-94035714D02*
X92952380Y-94845238D01*
X92904761Y-94940476D01*
X92857142Y-94988095D01*
X92761904Y-95035714D01*
X92619047Y-95035714D01*
X92523809Y-94988095D01*
X92952380Y-94654761D02*
X92857142Y-94702380D01*
X92666666Y-94702380D01*
X92571428Y-94654761D01*
X92523809Y-94607142D01*
X92476190Y-94511904D01*
X92476190Y-94226190D01*
X92523809Y-94130952D01*
X92571428Y-94083333D01*
X92666666Y-94035714D01*
X92857142Y-94035714D01*
X92952380Y-94083333D01*
X93428571Y-94702380D02*
X93428571Y-94035714D01*
X93428571Y-93702380D02*
X93380952Y-93750000D01*
X93428571Y-93797619D01*
X93476190Y-93750000D01*
X93428571Y-93702380D01*
X93428571Y-93797619D01*
X93761904Y-94035714D02*
X94142857Y-94035714D01*
X93904761Y-93702380D02*
X93904761Y-94559523D01*
X93952380Y-94654761D01*
X94047619Y-94702380D01*
X94142857Y-94702380D01*
X94476190Y-94702380D02*
X94476190Y-93702380D01*
X94904761Y-94702380D02*
X94904761Y-94178571D01*
X94857142Y-94083333D01*
X94761904Y-94035714D01*
X94619047Y-94035714D01*
X94523809Y-94083333D01*
X94476190Y-94130952D01*
X95809523Y-94035714D02*
X95809523Y-94702380D01*
X95380952Y-94035714D02*
X95380952Y-94559523D01*
X95428571Y-94654761D01*
X95523809Y-94702380D01*
X95666666Y-94702380D01*
X95761904Y-94654761D01*
X95809523Y-94607142D01*
X96285714Y-94702380D02*
X96285714Y-93702380D01*
X96285714Y-94083333D02*
X96380952Y-94035714D01*
X96571428Y-94035714D01*
X96666666Y-94083333D01*
X96714285Y-94130952D01*
X96761904Y-94226190D01*
X96761904Y-94511904D01*
X96714285Y-94607142D01*
X96666666Y-94654761D01*
X96571428Y-94702380D01*
X96380952Y-94702380D01*
X96285714Y-94654761D01*
X97190476Y-94607142D02*
X97238095Y-94654761D01*
X97190476Y-94702380D01*
X97142857Y-94654761D01*
X97190476Y-94607142D01*
X97190476Y-94702380D01*
X98095238Y-94654761D02*
X98000000Y-94702380D01*
X97809523Y-94702380D01*
X97714285Y-94654761D01*
X97666666Y-94607142D01*
X97619047Y-94511904D01*
X97619047Y-94226190D01*
X97666666Y-94130952D01*
X97714285Y-94083333D01*
X97809523Y-94035714D01*
X98000000Y-94035714D01*
X98095238Y-94083333D01*
X98666666Y-94702380D02*
X98571428Y-94654761D01*
X98523809Y-94607142D01*
X98476190Y-94511904D01*
X98476190Y-94226190D01*
X98523809Y-94130952D01*
X98571428Y-94083333D01*
X98666666Y-94035714D01*
X98809523Y-94035714D01*
X98904761Y-94083333D01*
X98952380Y-94130952D01*
X99000000Y-94226190D01*
X99000000Y-94511904D01*
X98952380Y-94607142D01*
X98904761Y-94654761D01*
X98809523Y-94702380D01*
X98666666Y-94702380D01*
X99428571Y-94702380D02*
X99428571Y-94035714D01*
X99428571Y-94130952D02*
X99476190Y-94083333D01*
X99571428Y-94035714D01*
X99714285Y-94035714D01*
X99809523Y-94083333D01*
X99857142Y-94178571D01*
X99857142Y-94702380D01*
X99857142Y-94178571D02*
X99904761Y-94083333D01*
X100000000Y-94035714D01*
X100142857Y-94035714D01*
X100238095Y-94083333D01*
X100285714Y-94178571D01*
X100285714Y-94702380D01*
X101476190Y-93654761D02*
X100619047Y-94940476D01*
X102238095Y-94702380D02*
X102238095Y-93702380D01*
X102238095Y-94654761D02*
X102142857Y-94702380D01*
X101952380Y-94702380D01*
X101857142Y-94654761D01*
X101809523Y-94607142D01*
X101761904Y-94511904D01*
X101761904Y-94226190D01*
X101809523Y-94130952D01*
X101857142Y-94083333D01*
X101952380Y-94035714D01*
X102142857Y-94035714D01*
X102238095Y-94083333D01*
X102571428Y-94035714D02*
X102952380Y-94035714D01*
X102714285Y-93702380D02*
X102714285Y-94559523D01*
X102761904Y-94654761D01*
X102857142Y-94702380D01*
X102952380Y-94702380D01*
X103285714Y-94702380D02*
X103285714Y-93702380D01*
X103714285Y-94702380D02*
X103714285Y-94178571D01*
X103666666Y-94083333D01*
X103571428Y-94035714D01*
X103428571Y-94035714D01*
X103333333Y-94083333D01*
X103285714Y-94130952D01*
X104571428Y-94654761D02*
X104476190Y-94702380D01*
X104285714Y-94702380D01*
X104190476Y-94654761D01*
X104142857Y-94559523D01*
X104142857Y-94178571D01*
X104190476Y-94083333D01*
X104285714Y-94035714D01*
X104476190Y-94035714D01*
X104571428Y-94083333D01*
X104619047Y-94178571D01*
X104619047Y-94273809D01*
X104142857Y-94369047D01*
X105190476Y-94702380D02*
X105095238Y-94654761D01*
X105047619Y-94607142D01*
X105000000Y-94511904D01*
X105000000Y-94226190D01*
X105047619Y-94130952D01*
X105095238Y-94083333D01*
X105190476Y-94035714D01*
X105333333Y-94035714D01*
X105428571Y-94083333D01*
X105476190Y-94130952D01*
X105523809Y-94226190D01*
X105523809Y-94511904D01*
X105476190Y-94607142D01*
X105428571Y-94654761D01*
X105333333Y-94702380D01*
X105190476Y-94702380D01*
X106380952Y-94702380D02*
X106380952Y-93702380D01*
X106380952Y-94654761D02*
X106285714Y-94702380D01*
X106095238Y-94702380D01*
X106000000Y-94654761D01*
X105952380Y-94607142D01*
X105904761Y-94511904D01*
X105904761Y-94226190D01*
X105952380Y-94130952D01*
X106000000Y-94083333D01*
X106095238Y-94035714D01*
X106285714Y-94035714D01*
X106380952Y-94083333D01*
X107000000Y-94702380D02*
X106904761Y-94654761D01*
X106857142Y-94607142D01*
X106809523Y-94511904D01*
X106809523Y-94226190D01*
X106857142Y-94130952D01*
X106904761Y-94083333D01*
X107000000Y-94035714D01*
X107142857Y-94035714D01*
X107238095Y-94083333D01*
X107285714Y-94130952D01*
X107333333Y-94226190D01*
X107333333Y-94511904D01*
X107285714Y-94607142D01*
X107238095Y-94654761D01*
X107142857Y-94702380D01*
X107000000Y-94702380D01*
X107761904Y-94702380D02*
X107761904Y-94035714D01*
X107761904Y-94226190D02*
X107809523Y-94130952D01*
X107857142Y-94083333D01*
X107952380Y-94035714D01*
X108047619Y-94035714D01*
X108285714Y-93702380D02*
X108952380Y-93702380D01*
X108523809Y-94702380D01*
X109380952Y-94702380D02*
X109571428Y-94702380D01*
X109666666Y-94654761D01*
X109714285Y-94607142D01*
X109809523Y-94464285D01*
X109857142Y-94273809D01*
X109857142Y-93892857D01*
X109809523Y-93797619D01*
X109761904Y-93750000D01*
X109666666Y-93702380D01*
X109476190Y-93702380D01*
X109380952Y-93750000D01*
X109333333Y-93797619D01*
X109285714Y-93892857D01*
X109285714Y-94130952D01*
X109333333Y-94226190D01*
X109380952Y-94273809D01*
X109476190Y-94321428D01*
X109666666Y-94321428D01*
X109761904Y-94273809D01*
X109809523Y-94226190D01*
X109857142Y-94130952D01*
X106250000Y-91750000D02*
X106250000Y-77250000D01*
X122750000Y-91750000D02*
X106250000Y-91750000D01*
X122750000Y-77250000D02*
X122750000Y-91750000D01*
X106250000Y-77250000D02*
X122750000Y-77250000D01*
D11*
X119730000Y-91080000D02*
X106970000Y-91080000D01*
X106970000Y-88420000D02*
X106970000Y-91080000D01*
X119730000Y-88420000D02*
X106970000Y-88420000D01*
X119730000Y-88420000D02*
X119730000Y-91080000D01*
X121000000Y-88420000D02*
X122330000Y-88420000D01*
X122330000Y-88420000D02*
X122330000Y-89750000D01*
X122330000Y-77920000D02*
X122330000Y-79250000D01*
X121000000Y-77920000D02*
X122330000Y-77920000D01*
X119730000Y-77920000D02*
X119730000Y-80580000D01*
X119730000Y-80580000D02*
X106970000Y-80580000D01*
X119730000Y-77920000D02*
X106970000Y-77920000D01*
X106970000Y-77920000D02*
X106970000Y-80580000D01*
X104530000Y-89450000D02*
X104530000Y-61510000D01*
D12*
G36*
X103260000Y-90720000D02*
G01*
X100720000Y-90720000D01*
X100720000Y-89450000D01*
X103260000Y-89450000D01*
X103260000Y-90720000D01*
G37*
X103260000Y-90720000D02*
X100720000Y-90720000D01*
X100720000Y-89450000D01*
X103260000Y-89450000D01*
X103260000Y-90720000D01*
D11*
X99450000Y-91990000D02*
X99450000Y-89450000D01*
X74250000Y-91990000D02*
X99450000Y-91990000D01*
X74250000Y-61510000D02*
X104530000Y-61510000D01*
X99450000Y-89450000D02*
X104530000Y-89450000D01*
X74250000Y-91990000D02*
X74250000Y-61510000D01*
X124840000Y-104120000D02*
X124840000Y-98660000D01*
X124840000Y-98660000D02*
X73920000Y-98660000D01*
X73920000Y-98660000D02*
X73920000Y-111580000D01*
X73920000Y-111580000D02*
X124840000Y-111580000D01*
X124840000Y-111580000D02*
X124840000Y-106120000D01*
X124840000Y-106120000D02*
G75*
G02*
X124840000Y-104120000I0J1000000D01*
G01*
D13*
G36*
X87820083Y-86813301D02*
G01*
X87817967Y-86072446D01*
X87815850Y-85331590D01*
X87648633Y-85496509D01*
X87617072Y-85527562D01*
X87587001Y-85557004D01*
X87559015Y-85584262D01*
X87533709Y-85608764D01*
X87511679Y-85629936D01*
X87493521Y-85647206D01*
X87479830Y-85659998D01*
X87471200Y-85667742D01*
X87468717Y-85669715D01*
X87461893Y-85673996D01*
X87455719Y-85676902D01*
X87449508Y-85677974D01*
X87442574Y-85676748D01*
X87434230Y-85672763D01*
X87423791Y-85665557D01*
X87410569Y-85654669D01*
X87393879Y-85639637D01*
X87373035Y-85619999D01*
X87347349Y-85595294D01*
X87322928Y-85571644D01*
X87297417Y-85546715D01*
X87273720Y-85523171D01*
X87252565Y-85501767D01*
X87234681Y-85483254D01*
X87220796Y-85468388D01*
X87211639Y-85457919D01*
X87208018Y-85452824D01*
X87205051Y-85441531D01*
X87207477Y-85430902D01*
X87208793Y-85428002D01*
X87212297Y-85423986D01*
X87221426Y-85414504D01*
X87235734Y-85399991D01*
X87254776Y-85380885D01*
X87278107Y-85357622D01*
X87305282Y-85330638D01*
X87335855Y-85300370D01*
X87369382Y-85267254D01*
X87405417Y-85231725D01*
X87443514Y-85194222D01*
X87483230Y-85155180D01*
X87524118Y-85115036D01*
X87565734Y-85074226D01*
X87607632Y-85033186D01*
X87649366Y-84992353D01*
X87690493Y-84952163D01*
X87730566Y-84913053D01*
X87769141Y-84875458D01*
X87805772Y-84839817D01*
X87840014Y-84806564D01*
X87871422Y-84776136D01*
X87899551Y-84748970D01*
X87923955Y-84725502D01*
X87944189Y-84706169D01*
X87959809Y-84691407D01*
X87967505Y-84684258D01*
X87983019Y-84671876D01*
X87996278Y-84666440D01*
X88009129Y-84668008D01*
X88023418Y-84676639D01*
X88034689Y-84686375D01*
X88049100Y-84699925D01*
X88068238Y-84718158D01*
X88091659Y-84740636D01*
X88118918Y-84766926D01*
X88149571Y-84796589D01*
X88183173Y-84829192D01*
X88219280Y-84864298D01*
X88257447Y-84901472D01*
X88297230Y-84940277D01*
X88338184Y-84980278D01*
X88379865Y-85021039D01*
X88421828Y-85062124D01*
X88463629Y-85103098D01*
X88504824Y-85143525D01*
X88544967Y-85182968D01*
X88583614Y-85220993D01*
X88620322Y-85257164D01*
X88654644Y-85291044D01*
X88686138Y-85322198D01*
X88714358Y-85350191D01*
X88738860Y-85374585D01*
X88759199Y-85394947D01*
X88774931Y-85410839D01*
X88785611Y-85421826D01*
X88790795Y-85427473D01*
X88791207Y-85428049D01*
X88794880Y-85439395D01*
X88793042Y-85450135D01*
X88792068Y-85452618D01*
X88787663Y-85458869D01*
X88777973Y-85469934D01*
X88763856Y-85484984D01*
X88746169Y-85503188D01*
X88725768Y-85523717D01*
X88703511Y-85545741D01*
X88680254Y-85568429D01*
X88656855Y-85590952D01*
X88634170Y-85612480D01*
X88613056Y-85632183D01*
X88594371Y-85649231D01*
X88578971Y-85662794D01*
X88567713Y-85672041D01*
X88561454Y-85676144D01*
X88561182Y-85676229D01*
X88548993Y-85676602D01*
X88538610Y-85673999D01*
X88533512Y-85670162D01*
X88522988Y-85660913D01*
X88507617Y-85646804D01*
X88487981Y-85628386D01*
X88464661Y-85606211D01*
X88438240Y-85580831D01*
X88409298Y-85552799D01*
X88378417Y-85522666D01*
X88355600Y-85500266D01*
X88184150Y-85331527D01*
X88182034Y-86072414D01*
X88179917Y-86813301D01*
X88156161Y-86833733D01*
X87843839Y-86833733D01*
X87820083Y-86813301D01*
G37*
X87820083Y-86813301D02*
X87817967Y-86072446D01*
X87815850Y-85331590D01*
X87648633Y-85496509D01*
X87617072Y-85527562D01*
X87587001Y-85557004D01*
X87559015Y-85584262D01*
X87533709Y-85608764D01*
X87511679Y-85629936D01*
X87493521Y-85647206D01*
X87479830Y-85659998D01*
X87471200Y-85667742D01*
X87468717Y-85669715D01*
X87461893Y-85673996D01*
X87455719Y-85676902D01*
X87449508Y-85677974D01*
X87442574Y-85676748D01*
X87434230Y-85672763D01*
X87423791Y-85665557D01*
X87410569Y-85654669D01*
X87393879Y-85639637D01*
X87373035Y-85619999D01*
X87347349Y-85595294D01*
X87322928Y-85571644D01*
X87297417Y-85546715D01*
X87273720Y-85523171D01*
X87252565Y-85501767D01*
X87234681Y-85483254D01*
X87220796Y-85468388D01*
X87211639Y-85457919D01*
X87208018Y-85452824D01*
X87205051Y-85441531D01*
X87207477Y-85430902D01*
X87208793Y-85428002D01*
X87212297Y-85423986D01*
X87221426Y-85414504D01*
X87235734Y-85399991D01*
X87254776Y-85380885D01*
X87278107Y-85357622D01*
X87305282Y-85330638D01*
X87335855Y-85300370D01*
X87369382Y-85267254D01*
X87405417Y-85231725D01*
X87443514Y-85194222D01*
X87483230Y-85155180D01*
X87524118Y-85115036D01*
X87565734Y-85074226D01*
X87607632Y-85033186D01*
X87649366Y-84992353D01*
X87690493Y-84952163D01*
X87730566Y-84913053D01*
X87769141Y-84875458D01*
X87805772Y-84839817D01*
X87840014Y-84806564D01*
X87871422Y-84776136D01*
X87899551Y-84748970D01*
X87923955Y-84725502D01*
X87944189Y-84706169D01*
X87959809Y-84691407D01*
X87967505Y-84684258D01*
X87983019Y-84671876D01*
X87996278Y-84666440D01*
X88009129Y-84668008D01*
X88023418Y-84676639D01*
X88034689Y-84686375D01*
X88049100Y-84699925D01*
X88068238Y-84718158D01*
X88091659Y-84740636D01*
X88118918Y-84766926D01*
X88149571Y-84796589D01*
X88183173Y-84829192D01*
X88219280Y-84864298D01*
X88257447Y-84901472D01*
X88297230Y-84940277D01*
X88338184Y-84980278D01*
X88379865Y-85021039D01*
X88421828Y-85062124D01*
X88463629Y-85103098D01*
X88504824Y-85143525D01*
X88544967Y-85182968D01*
X88583614Y-85220993D01*
X88620322Y-85257164D01*
X88654644Y-85291044D01*
X88686138Y-85322198D01*
X88714358Y-85350191D01*
X88738860Y-85374585D01*
X88759199Y-85394947D01*
X88774931Y-85410839D01*
X88785611Y-85421826D01*
X88790795Y-85427473D01*
X88791207Y-85428049D01*
X88794880Y-85439395D01*
X88793042Y-85450135D01*
X88792068Y-85452618D01*
X88787663Y-85458869D01*
X88777973Y-85469934D01*
X88763856Y-85484984D01*
X88746169Y-85503188D01*
X88725768Y-85523717D01*
X88703511Y-85545741D01*
X88680254Y-85568429D01*
X88656855Y-85590952D01*
X88634170Y-85612480D01*
X88613056Y-85632183D01*
X88594371Y-85649231D01*
X88578971Y-85662794D01*
X88567713Y-85672041D01*
X88561454Y-85676144D01*
X88561182Y-85676229D01*
X88548993Y-85676602D01*
X88538610Y-85673999D01*
X88533512Y-85670162D01*
X88522988Y-85660913D01*
X88507617Y-85646804D01*
X88487981Y-85628386D01*
X88464661Y-85606211D01*
X88438240Y-85580831D01*
X88409298Y-85552799D01*
X88378417Y-85522666D01*
X88355600Y-85500266D01*
X88184150Y-85331527D01*
X88182034Y-86072414D01*
X88179917Y-86813301D01*
X88156161Y-86833733D01*
X87843839Y-86833733D01*
X87820083Y-86813301D01*
G36*
X85320083Y-86813301D02*
G01*
X85317967Y-86072446D01*
X85315850Y-85331590D01*
X85148633Y-85496509D01*
X85117072Y-85527562D01*
X85087001Y-85557004D01*
X85059015Y-85584262D01*
X85033709Y-85608764D01*
X85011679Y-85629936D01*
X84993521Y-85647206D01*
X84979830Y-85659998D01*
X84971200Y-85667742D01*
X84968717Y-85669715D01*
X84961893Y-85673996D01*
X84955719Y-85676902D01*
X84949508Y-85677974D01*
X84942574Y-85676748D01*
X84934230Y-85672763D01*
X84923791Y-85665557D01*
X84910569Y-85654669D01*
X84893879Y-85639637D01*
X84873035Y-85619999D01*
X84847349Y-85595294D01*
X84822928Y-85571644D01*
X84797417Y-85546715D01*
X84773720Y-85523171D01*
X84752565Y-85501767D01*
X84734681Y-85483254D01*
X84720796Y-85468388D01*
X84711639Y-85457919D01*
X84708018Y-85452824D01*
X84705051Y-85441531D01*
X84707477Y-85430902D01*
X84708793Y-85428002D01*
X84712297Y-85423986D01*
X84721426Y-85414504D01*
X84735734Y-85399991D01*
X84754776Y-85380885D01*
X84778107Y-85357622D01*
X84805282Y-85330638D01*
X84835855Y-85300370D01*
X84869382Y-85267254D01*
X84905417Y-85231725D01*
X84943514Y-85194222D01*
X84983230Y-85155180D01*
X85024118Y-85115036D01*
X85065734Y-85074226D01*
X85107632Y-85033186D01*
X85149366Y-84992353D01*
X85190493Y-84952163D01*
X85230566Y-84913053D01*
X85269141Y-84875458D01*
X85305772Y-84839817D01*
X85340014Y-84806564D01*
X85371422Y-84776136D01*
X85399551Y-84748970D01*
X85423955Y-84725502D01*
X85444189Y-84706169D01*
X85459809Y-84691407D01*
X85467505Y-84684258D01*
X85483019Y-84671876D01*
X85496278Y-84666440D01*
X85509129Y-84668008D01*
X85523418Y-84676639D01*
X85534689Y-84686375D01*
X85549100Y-84699925D01*
X85568238Y-84718158D01*
X85591659Y-84740636D01*
X85618918Y-84766926D01*
X85649571Y-84796589D01*
X85683173Y-84829192D01*
X85719280Y-84864298D01*
X85757447Y-84901472D01*
X85797230Y-84940277D01*
X85838184Y-84980278D01*
X85879865Y-85021039D01*
X85921828Y-85062124D01*
X85963629Y-85103098D01*
X86004824Y-85143525D01*
X86044967Y-85182968D01*
X86083614Y-85220993D01*
X86120322Y-85257164D01*
X86154644Y-85291044D01*
X86186138Y-85322198D01*
X86214358Y-85350191D01*
X86238860Y-85374585D01*
X86259199Y-85394947D01*
X86274931Y-85410839D01*
X86285611Y-85421826D01*
X86290795Y-85427473D01*
X86291207Y-85428049D01*
X86294880Y-85439395D01*
X86293042Y-85450135D01*
X86292068Y-85452618D01*
X86287663Y-85458869D01*
X86277973Y-85469934D01*
X86263856Y-85484984D01*
X86246169Y-85503188D01*
X86225768Y-85523717D01*
X86203511Y-85545741D01*
X86180254Y-85568429D01*
X86156855Y-85590952D01*
X86134170Y-85612480D01*
X86113056Y-85632183D01*
X86094371Y-85649231D01*
X86078971Y-85662794D01*
X86067713Y-85672041D01*
X86061454Y-85676144D01*
X86061182Y-85676229D01*
X86048993Y-85676602D01*
X86038610Y-85673999D01*
X86033512Y-85670162D01*
X86022988Y-85660913D01*
X86007617Y-85646804D01*
X85987981Y-85628386D01*
X85964661Y-85606211D01*
X85938240Y-85580831D01*
X85909298Y-85552799D01*
X85878417Y-85522666D01*
X85855600Y-85500266D01*
X85684150Y-85331527D01*
X85682034Y-86072414D01*
X85679917Y-86813301D01*
X85656161Y-86833733D01*
X85343839Y-86833733D01*
X85320083Y-86813301D01*
G37*
X85320083Y-86813301D02*
X85317967Y-86072446D01*
X85315850Y-85331590D01*
X85148633Y-85496509D01*
X85117072Y-85527562D01*
X85087001Y-85557004D01*
X85059015Y-85584262D01*
X85033709Y-85608764D01*
X85011679Y-85629936D01*
X84993521Y-85647206D01*
X84979830Y-85659998D01*
X84971200Y-85667742D01*
X84968717Y-85669715D01*
X84961893Y-85673996D01*
X84955719Y-85676902D01*
X84949508Y-85677974D01*
X84942574Y-85676748D01*
X84934230Y-85672763D01*
X84923791Y-85665557D01*
X84910569Y-85654669D01*
X84893879Y-85639637D01*
X84873035Y-85619999D01*
X84847349Y-85595294D01*
X84822928Y-85571644D01*
X84797417Y-85546715D01*
X84773720Y-85523171D01*
X84752565Y-85501767D01*
X84734681Y-85483254D01*
X84720796Y-85468388D01*
X84711639Y-85457919D01*
X84708018Y-85452824D01*
X84705051Y-85441531D01*
X84707477Y-85430902D01*
X84708793Y-85428002D01*
X84712297Y-85423986D01*
X84721426Y-85414504D01*
X84735734Y-85399991D01*
X84754776Y-85380885D01*
X84778107Y-85357622D01*
X84805282Y-85330638D01*
X84835855Y-85300370D01*
X84869382Y-85267254D01*
X84905417Y-85231725D01*
X84943514Y-85194222D01*
X84983230Y-85155180D01*
X85024118Y-85115036D01*
X85065734Y-85074226D01*
X85107632Y-85033186D01*
X85149366Y-84992353D01*
X85190493Y-84952163D01*
X85230566Y-84913053D01*
X85269141Y-84875458D01*
X85305772Y-84839817D01*
X85340014Y-84806564D01*
X85371422Y-84776136D01*
X85399551Y-84748970D01*
X85423955Y-84725502D01*
X85444189Y-84706169D01*
X85459809Y-84691407D01*
X85467505Y-84684258D01*
X85483019Y-84671876D01*
X85496278Y-84666440D01*
X85509129Y-84668008D01*
X85523418Y-84676639D01*
X85534689Y-84686375D01*
X85549100Y-84699925D01*
X85568238Y-84718158D01*
X85591659Y-84740636D01*
X85618918Y-84766926D01*
X85649571Y-84796589D01*
X85683173Y-84829192D01*
X85719280Y-84864298D01*
X85757447Y-84901472D01*
X85797230Y-84940277D01*
X85838184Y-84980278D01*
X85879865Y-85021039D01*
X85921828Y-85062124D01*
X85963629Y-85103098D01*
X86004824Y-85143525D01*
X86044967Y-85182968D01*
X86083614Y-85220993D01*
X86120322Y-85257164D01*
X86154644Y-85291044D01*
X86186138Y-85322198D01*
X86214358Y-85350191D01*
X86238860Y-85374585D01*
X86259199Y-85394947D01*
X86274931Y-85410839D01*
X86285611Y-85421826D01*
X86290795Y-85427473D01*
X86291207Y-85428049D01*
X86294880Y-85439395D01*
X86293042Y-85450135D01*
X86292068Y-85452618D01*
X86287663Y-85458869D01*
X86277973Y-85469934D01*
X86263856Y-85484984D01*
X86246169Y-85503188D01*
X86225768Y-85523717D01*
X86203511Y-85545741D01*
X86180254Y-85568429D01*
X86156855Y-85590952D01*
X86134170Y-85612480D01*
X86113056Y-85632183D01*
X86094371Y-85649231D01*
X86078971Y-85662794D01*
X86067713Y-85672041D01*
X86061454Y-85676144D01*
X86061182Y-85676229D01*
X86048993Y-85676602D01*
X86038610Y-85673999D01*
X86033512Y-85670162D01*
X86022988Y-85660913D01*
X86007617Y-85646804D01*
X85987981Y-85628386D01*
X85964661Y-85606211D01*
X85938240Y-85580831D01*
X85909298Y-85552799D01*
X85878417Y-85522666D01*
X85855600Y-85500266D01*
X85684150Y-85331527D01*
X85682034Y-86072414D01*
X85679917Y-86813301D01*
X85656161Y-86833733D01*
X85343839Y-86833733D01*
X85320083Y-86813301D01*
G36*
X83179917Y-84686699D02*
G01*
X83182033Y-85427554D01*
X83184150Y-86168410D01*
X83351367Y-86003491D01*
X83382928Y-85972438D01*
X83412999Y-85942996D01*
X83440985Y-85915738D01*
X83466291Y-85891236D01*
X83488321Y-85870064D01*
X83506479Y-85852794D01*
X83520170Y-85840002D01*
X83528800Y-85832258D01*
X83531283Y-85830285D01*
X83538107Y-85826004D01*
X83544281Y-85823098D01*
X83550492Y-85822026D01*
X83557426Y-85823252D01*
X83565770Y-85827237D01*
X83576209Y-85834443D01*
X83589431Y-85845331D01*
X83606121Y-85860363D01*
X83626965Y-85880001D01*
X83652651Y-85904706D01*
X83677072Y-85928356D01*
X83702583Y-85953285D01*
X83726280Y-85976829D01*
X83747435Y-85998233D01*
X83765319Y-86016746D01*
X83779204Y-86031612D01*
X83788361Y-86042081D01*
X83791982Y-86047176D01*
X83794949Y-86058469D01*
X83792523Y-86069098D01*
X83791207Y-86071998D01*
X83787703Y-86076014D01*
X83778574Y-86085496D01*
X83764266Y-86100009D01*
X83745224Y-86119115D01*
X83721893Y-86142378D01*
X83694718Y-86169362D01*
X83664145Y-86199630D01*
X83630618Y-86232746D01*
X83594583Y-86268275D01*
X83556486Y-86305778D01*
X83516770Y-86344820D01*
X83475882Y-86384964D01*
X83434266Y-86425774D01*
X83392368Y-86466814D01*
X83350634Y-86507647D01*
X83309507Y-86547837D01*
X83269434Y-86586947D01*
X83230859Y-86624542D01*
X83194228Y-86660183D01*
X83159986Y-86693436D01*
X83128578Y-86723864D01*
X83100449Y-86751030D01*
X83076045Y-86774498D01*
X83055811Y-86793831D01*
X83040191Y-86808593D01*
X83032495Y-86815742D01*
X83016981Y-86828124D01*
X83003722Y-86833560D01*
X82990871Y-86831992D01*
X82976582Y-86823361D01*
X82965311Y-86813625D01*
X82950900Y-86800075D01*
X82931762Y-86781842D01*
X82908341Y-86759364D01*
X82881082Y-86733074D01*
X82850429Y-86703411D01*
X82816827Y-86670808D01*
X82780720Y-86635702D01*
X82742553Y-86598528D01*
X82702770Y-86559723D01*
X82661816Y-86519722D01*
X82620135Y-86478961D01*
X82578172Y-86437876D01*
X82536371Y-86396902D01*
X82495176Y-86356475D01*
X82455033Y-86317032D01*
X82416386Y-86279007D01*
X82379678Y-86242836D01*
X82345356Y-86208956D01*
X82313862Y-86177802D01*
X82285642Y-86149809D01*
X82261140Y-86125415D01*
X82240801Y-86105053D01*
X82225069Y-86089161D01*
X82214389Y-86078174D01*
X82209205Y-86072527D01*
X82208793Y-86071951D01*
X82205120Y-86060605D01*
X82206958Y-86049865D01*
X82207932Y-86047382D01*
X82212337Y-86041131D01*
X82222027Y-86030066D01*
X82236144Y-86015016D01*
X82253831Y-85996812D01*
X82274232Y-85976283D01*
X82296489Y-85954259D01*
X82319746Y-85931571D01*
X82343145Y-85909048D01*
X82365830Y-85887520D01*
X82386944Y-85867817D01*
X82405629Y-85850769D01*
X82421029Y-85837206D01*
X82432287Y-85827959D01*
X82438546Y-85823856D01*
X82438818Y-85823771D01*
X82451007Y-85823398D01*
X82461390Y-85826001D01*
X82466488Y-85829838D01*
X82477012Y-85839087D01*
X82492383Y-85853196D01*
X82512019Y-85871614D01*
X82535339Y-85893789D01*
X82561760Y-85919169D01*
X82590702Y-85947201D01*
X82621583Y-85977334D01*
X82644400Y-85999734D01*
X82815850Y-86168473D01*
X82817966Y-85427586D01*
X82820083Y-84686699D01*
X82843839Y-84666267D01*
X83156161Y-84666267D01*
X83179917Y-84686699D01*
G37*
X83179917Y-84686699D02*
X83182033Y-85427554D01*
X83184150Y-86168410D01*
X83351367Y-86003491D01*
X83382928Y-85972438D01*
X83412999Y-85942996D01*
X83440985Y-85915738D01*
X83466291Y-85891236D01*
X83488321Y-85870064D01*
X83506479Y-85852794D01*
X83520170Y-85840002D01*
X83528800Y-85832258D01*
X83531283Y-85830285D01*
X83538107Y-85826004D01*
X83544281Y-85823098D01*
X83550492Y-85822026D01*
X83557426Y-85823252D01*
X83565770Y-85827237D01*
X83576209Y-85834443D01*
X83589431Y-85845331D01*
X83606121Y-85860363D01*
X83626965Y-85880001D01*
X83652651Y-85904706D01*
X83677072Y-85928356D01*
X83702583Y-85953285D01*
X83726280Y-85976829D01*
X83747435Y-85998233D01*
X83765319Y-86016746D01*
X83779204Y-86031612D01*
X83788361Y-86042081D01*
X83791982Y-86047176D01*
X83794949Y-86058469D01*
X83792523Y-86069098D01*
X83791207Y-86071998D01*
X83787703Y-86076014D01*
X83778574Y-86085496D01*
X83764266Y-86100009D01*
X83745224Y-86119115D01*
X83721893Y-86142378D01*
X83694718Y-86169362D01*
X83664145Y-86199630D01*
X83630618Y-86232746D01*
X83594583Y-86268275D01*
X83556486Y-86305778D01*
X83516770Y-86344820D01*
X83475882Y-86384964D01*
X83434266Y-86425774D01*
X83392368Y-86466814D01*
X83350634Y-86507647D01*
X83309507Y-86547837D01*
X83269434Y-86586947D01*
X83230859Y-86624542D01*
X83194228Y-86660183D01*
X83159986Y-86693436D01*
X83128578Y-86723864D01*
X83100449Y-86751030D01*
X83076045Y-86774498D01*
X83055811Y-86793831D01*
X83040191Y-86808593D01*
X83032495Y-86815742D01*
X83016981Y-86828124D01*
X83003722Y-86833560D01*
X82990871Y-86831992D01*
X82976582Y-86823361D01*
X82965311Y-86813625D01*
X82950900Y-86800075D01*
X82931762Y-86781842D01*
X82908341Y-86759364D01*
X82881082Y-86733074D01*
X82850429Y-86703411D01*
X82816827Y-86670808D01*
X82780720Y-86635702D01*
X82742553Y-86598528D01*
X82702770Y-86559723D01*
X82661816Y-86519722D01*
X82620135Y-86478961D01*
X82578172Y-86437876D01*
X82536371Y-86396902D01*
X82495176Y-86356475D01*
X82455033Y-86317032D01*
X82416386Y-86279007D01*
X82379678Y-86242836D01*
X82345356Y-86208956D01*
X82313862Y-86177802D01*
X82285642Y-86149809D01*
X82261140Y-86125415D01*
X82240801Y-86105053D01*
X82225069Y-86089161D01*
X82214389Y-86078174D01*
X82209205Y-86072527D01*
X82208793Y-86071951D01*
X82205120Y-86060605D01*
X82206958Y-86049865D01*
X82207932Y-86047382D01*
X82212337Y-86041131D01*
X82222027Y-86030066D01*
X82236144Y-86015016D01*
X82253831Y-85996812D01*
X82274232Y-85976283D01*
X82296489Y-85954259D01*
X82319746Y-85931571D01*
X82343145Y-85909048D01*
X82365830Y-85887520D01*
X82386944Y-85867817D01*
X82405629Y-85850769D01*
X82421029Y-85837206D01*
X82432287Y-85827959D01*
X82438546Y-85823856D01*
X82438818Y-85823771D01*
X82451007Y-85823398D01*
X82461390Y-85826001D01*
X82466488Y-85829838D01*
X82477012Y-85839087D01*
X82492383Y-85853196D01*
X82512019Y-85871614D01*
X82535339Y-85893789D01*
X82561760Y-85919169D01*
X82590702Y-85947201D01*
X82621583Y-85977334D01*
X82644400Y-85999734D01*
X82815850Y-86168473D01*
X82817966Y-85427586D01*
X82820083Y-84686699D01*
X82843839Y-84666267D01*
X83156161Y-84666267D01*
X83179917Y-84686699D01*
G36*
X80679917Y-84686699D02*
G01*
X80682033Y-85427554D01*
X80684150Y-86168410D01*
X80851367Y-86003491D01*
X80882928Y-85972438D01*
X80912999Y-85942996D01*
X80940985Y-85915738D01*
X80966291Y-85891236D01*
X80988321Y-85870064D01*
X81006479Y-85852794D01*
X81020170Y-85840002D01*
X81028800Y-85832258D01*
X81031283Y-85830285D01*
X81038107Y-85826004D01*
X81044281Y-85823098D01*
X81050492Y-85822026D01*
X81057426Y-85823252D01*
X81065770Y-85827237D01*
X81076209Y-85834443D01*
X81089431Y-85845331D01*
X81106121Y-85860363D01*
X81126965Y-85880001D01*
X81152651Y-85904706D01*
X81177072Y-85928356D01*
X81202583Y-85953285D01*
X81226280Y-85976829D01*
X81247435Y-85998233D01*
X81265319Y-86016746D01*
X81279204Y-86031612D01*
X81288361Y-86042081D01*
X81291982Y-86047176D01*
X81294949Y-86058469D01*
X81292523Y-86069098D01*
X81291207Y-86071998D01*
X81287703Y-86076014D01*
X81278574Y-86085496D01*
X81264266Y-86100009D01*
X81245224Y-86119115D01*
X81221893Y-86142378D01*
X81194718Y-86169362D01*
X81164145Y-86199630D01*
X81130618Y-86232746D01*
X81094583Y-86268275D01*
X81056486Y-86305778D01*
X81016770Y-86344820D01*
X80975882Y-86384964D01*
X80934266Y-86425774D01*
X80892368Y-86466814D01*
X80850634Y-86507647D01*
X80809507Y-86547837D01*
X80769434Y-86586947D01*
X80730859Y-86624542D01*
X80694228Y-86660183D01*
X80659986Y-86693436D01*
X80628578Y-86723864D01*
X80600449Y-86751030D01*
X80576045Y-86774498D01*
X80555811Y-86793831D01*
X80540191Y-86808593D01*
X80532495Y-86815742D01*
X80516981Y-86828124D01*
X80503722Y-86833560D01*
X80490871Y-86831992D01*
X80476582Y-86823361D01*
X80465311Y-86813625D01*
X80450900Y-86800075D01*
X80431762Y-86781842D01*
X80408341Y-86759364D01*
X80381082Y-86733074D01*
X80350429Y-86703411D01*
X80316827Y-86670808D01*
X80280720Y-86635702D01*
X80242553Y-86598528D01*
X80202770Y-86559723D01*
X80161816Y-86519722D01*
X80120135Y-86478961D01*
X80078172Y-86437876D01*
X80036371Y-86396902D01*
X79995176Y-86356475D01*
X79955033Y-86317032D01*
X79916386Y-86279007D01*
X79879678Y-86242836D01*
X79845356Y-86208956D01*
X79813862Y-86177802D01*
X79785642Y-86149809D01*
X79761140Y-86125415D01*
X79740801Y-86105053D01*
X79725069Y-86089161D01*
X79714389Y-86078174D01*
X79709205Y-86072527D01*
X79708793Y-86071951D01*
X79705120Y-86060605D01*
X79706958Y-86049865D01*
X79707932Y-86047382D01*
X79712337Y-86041131D01*
X79722027Y-86030066D01*
X79736144Y-86015016D01*
X79753831Y-85996812D01*
X79774232Y-85976283D01*
X79796489Y-85954259D01*
X79819746Y-85931571D01*
X79843145Y-85909048D01*
X79865830Y-85887520D01*
X79886944Y-85867817D01*
X79905629Y-85850769D01*
X79921029Y-85837206D01*
X79932287Y-85827959D01*
X79938546Y-85823856D01*
X79938818Y-85823771D01*
X79951007Y-85823398D01*
X79961390Y-85826001D01*
X79966488Y-85829838D01*
X79977012Y-85839087D01*
X79992383Y-85853196D01*
X80012019Y-85871614D01*
X80035339Y-85893789D01*
X80061760Y-85919169D01*
X80090702Y-85947201D01*
X80121583Y-85977334D01*
X80144400Y-85999734D01*
X80315850Y-86168473D01*
X80317966Y-85427586D01*
X80320083Y-84686699D01*
X80343839Y-84666267D01*
X80656161Y-84666267D01*
X80679917Y-84686699D01*
G37*
X80679917Y-84686699D02*
X80682033Y-85427554D01*
X80684150Y-86168410D01*
X80851367Y-86003491D01*
X80882928Y-85972438D01*
X80912999Y-85942996D01*
X80940985Y-85915738D01*
X80966291Y-85891236D01*
X80988321Y-85870064D01*
X81006479Y-85852794D01*
X81020170Y-85840002D01*
X81028800Y-85832258D01*
X81031283Y-85830285D01*
X81038107Y-85826004D01*
X81044281Y-85823098D01*
X81050492Y-85822026D01*
X81057426Y-85823252D01*
X81065770Y-85827237D01*
X81076209Y-85834443D01*
X81089431Y-85845331D01*
X81106121Y-85860363D01*
X81126965Y-85880001D01*
X81152651Y-85904706D01*
X81177072Y-85928356D01*
X81202583Y-85953285D01*
X81226280Y-85976829D01*
X81247435Y-85998233D01*
X81265319Y-86016746D01*
X81279204Y-86031612D01*
X81288361Y-86042081D01*
X81291982Y-86047176D01*
X81294949Y-86058469D01*
X81292523Y-86069098D01*
X81291207Y-86071998D01*
X81287703Y-86076014D01*
X81278574Y-86085496D01*
X81264266Y-86100009D01*
X81245224Y-86119115D01*
X81221893Y-86142378D01*
X81194718Y-86169362D01*
X81164145Y-86199630D01*
X81130618Y-86232746D01*
X81094583Y-86268275D01*
X81056486Y-86305778D01*
X81016770Y-86344820D01*
X80975882Y-86384964D01*
X80934266Y-86425774D01*
X80892368Y-86466814D01*
X80850634Y-86507647D01*
X80809507Y-86547837D01*
X80769434Y-86586947D01*
X80730859Y-86624542D01*
X80694228Y-86660183D01*
X80659986Y-86693436D01*
X80628578Y-86723864D01*
X80600449Y-86751030D01*
X80576045Y-86774498D01*
X80555811Y-86793831D01*
X80540191Y-86808593D01*
X80532495Y-86815742D01*
X80516981Y-86828124D01*
X80503722Y-86833560D01*
X80490871Y-86831992D01*
X80476582Y-86823361D01*
X80465311Y-86813625D01*
X80450900Y-86800075D01*
X80431762Y-86781842D01*
X80408341Y-86759364D01*
X80381082Y-86733074D01*
X80350429Y-86703411D01*
X80316827Y-86670808D01*
X80280720Y-86635702D01*
X80242553Y-86598528D01*
X80202770Y-86559723D01*
X80161816Y-86519722D01*
X80120135Y-86478961D01*
X80078172Y-86437876D01*
X80036371Y-86396902D01*
X79995176Y-86356475D01*
X79955033Y-86317032D01*
X79916386Y-86279007D01*
X79879678Y-86242836D01*
X79845356Y-86208956D01*
X79813862Y-86177802D01*
X79785642Y-86149809D01*
X79761140Y-86125415D01*
X79740801Y-86105053D01*
X79725069Y-86089161D01*
X79714389Y-86078174D01*
X79709205Y-86072527D01*
X79708793Y-86071951D01*
X79705120Y-86060605D01*
X79706958Y-86049865D01*
X79707932Y-86047382D01*
X79712337Y-86041131D01*
X79722027Y-86030066D01*
X79736144Y-86015016D01*
X79753831Y-85996812D01*
X79774232Y-85976283D01*
X79796489Y-85954259D01*
X79819746Y-85931571D01*
X79843145Y-85909048D01*
X79865830Y-85887520D01*
X79886944Y-85867817D01*
X79905629Y-85850769D01*
X79921029Y-85837206D01*
X79932287Y-85827959D01*
X79938546Y-85823856D01*
X79938818Y-85823771D01*
X79951007Y-85823398D01*
X79961390Y-85826001D01*
X79966488Y-85829838D01*
X79977012Y-85839087D01*
X79992383Y-85853196D01*
X80012019Y-85871614D01*
X80035339Y-85893789D01*
X80061760Y-85919169D01*
X80090702Y-85947201D01*
X80121583Y-85977334D01*
X80144400Y-85999734D01*
X80315850Y-86168473D01*
X80317966Y-85427586D01*
X80320083Y-84686699D01*
X80343839Y-84666267D01*
X80656161Y-84666267D01*
X80679917Y-84686699D01*
D10*
X-1333333Y-952380D02*
X-1666666Y-476190D01*
X-1904761Y-952380D02*
X-1904761Y47619D01*
X-1523809Y47619D01*
X-1428571Y0D01*
X-1380952Y-47619D01*
X-1333333Y-142857D01*
X-1333333Y-285714D01*
X-1380952Y-380952D01*
X-1428571Y-428571D01*
X-1523809Y-476190D01*
X-1904761Y-476190D01*
X-904761Y-428571D02*
X-571428Y-428571D01*
X-428571Y-952380D02*
X-904761Y-952380D01*
X-904761Y47619D01*
X-428571Y47619D01*
X333333Y-428571D02*
X0Y-428571D01*
X0Y-952380D02*
X0Y47619D01*
X476190Y47619D01*
X999999Y47619D02*
X999999Y-190476D01*
X761904Y-95238D02*
X999999Y-190476D01*
X1238095Y-95238D01*
X857142Y-380952D02*
X999999Y-190476D01*
X1142857Y-380952D01*
X1761904Y47619D02*
X1761904Y-190476D01*
X1523809Y-95238D02*
X1761904Y-190476D01*
X1999999Y-95238D01*
X1619047Y-380952D02*
X1761904Y-190476D01*
X1904761Y-380952D01*
X84114761Y-77682380D02*
X84114761Y-76682380D01*
X84448095Y-77396666D01*
X84781428Y-76682380D01*
X84781428Y-77682380D01*
X85257619Y-77682380D02*
X85257619Y-76682380D01*
X85733809Y-77682380D02*
X85733809Y-76682380D01*
X86305238Y-77682380D01*
X86305238Y-76682380D01*
X86781428Y-77682380D02*
X86781428Y-76682380D01*
X88019523Y-77158571D02*
X88352857Y-77158571D01*
X88495714Y-77682380D02*
X88019523Y-77682380D01*
X88019523Y-76682380D01*
X88495714Y-76682380D01*
X88876666Y-77634761D02*
X89019523Y-77682380D01*
X89257619Y-77682380D01*
X89352857Y-77634761D01*
X89400476Y-77587142D01*
X89448095Y-77491904D01*
X89448095Y-77396666D01*
X89400476Y-77301428D01*
X89352857Y-77253809D01*
X89257619Y-77206190D01*
X89067142Y-77158571D01*
X88971904Y-77110952D01*
X88924285Y-77063333D01*
X88876666Y-76968095D01*
X88876666Y-76872857D01*
X88924285Y-76777619D01*
X88971904Y-76730000D01*
X89067142Y-76682380D01*
X89305238Y-76682380D01*
X89448095Y-76730000D01*
X89876666Y-77682380D02*
X89876666Y-76682380D01*
X90257619Y-76682380D01*
X90352857Y-76730000D01*
X90400476Y-76777619D01*
X90448095Y-76872857D01*
X90448095Y-77015714D01*
X90400476Y-77110952D01*
X90352857Y-77158571D01*
X90257619Y-77206190D01*
X89876666Y-77206190D01*
X90781428Y-76682380D02*
X91400476Y-76682380D01*
X91067142Y-77063333D01*
X91210000Y-77063333D01*
X91305238Y-77110952D01*
X91352857Y-77158571D01*
X91400476Y-77253809D01*
X91400476Y-77491904D01*
X91352857Y-77587142D01*
X91305238Y-77634761D01*
X91210000Y-77682380D01*
X90924285Y-77682380D01*
X90829047Y-77634761D01*
X90781428Y-77587142D01*
X91781428Y-76777619D02*
X91829047Y-76730000D01*
X91924285Y-76682380D01*
X92162380Y-76682380D01*
X92257619Y-76730000D01*
X92305238Y-76777619D01*
X92352857Y-76872857D01*
X92352857Y-76968095D01*
X92305238Y-77110952D01*
X91733809Y-77682380D01*
X92352857Y-77682380D01*
X102442380Y-88727619D02*
X101966190Y-89060952D01*
X102442380Y-89299047D02*
X101442380Y-89299047D01*
X101442380Y-88918095D01*
X101490000Y-88822857D01*
X101537619Y-88775238D01*
X101632857Y-88727619D01*
X101775714Y-88727619D01*
X101870952Y-88775238D01*
X101918571Y-88822857D01*
X101966190Y-88918095D01*
X101966190Y-89299047D01*
X102394761Y-88346666D02*
X102442380Y-88203809D01*
X102442380Y-87965714D01*
X102394761Y-87870476D01*
X102347142Y-87822857D01*
X102251904Y-87775238D01*
X102156666Y-87775238D01*
X102061428Y-87822857D01*
X102013809Y-87870476D01*
X101966190Y-87965714D01*
X101918571Y-88156190D01*
X101870952Y-88251428D01*
X101823333Y-88299047D01*
X101728095Y-88346666D01*
X101632857Y-88346666D01*
X101537619Y-88299047D01*
X101490000Y-88251428D01*
X101442380Y-88156190D01*
X101442380Y-87918095D01*
X101490000Y-87775238D01*
X101442380Y-87489523D02*
X101442380Y-86918095D01*
X102442380Y-87203809D02*
X101442380Y-87203809D01*
X102202380Y-78011904D02*
X103011904Y-78011904D01*
X103107142Y-77964285D01*
X103154761Y-77916666D01*
X103202380Y-77821428D01*
X103202380Y-77630952D01*
X103154761Y-77535714D01*
X103107142Y-77488095D01*
X103011904Y-77440476D01*
X102202380Y-77440476D01*
X103154761Y-77011904D02*
X103202380Y-76869047D01*
X103202380Y-76630952D01*
X103154761Y-76535714D01*
X103107142Y-76488095D01*
X103011904Y-76440476D01*
X102916666Y-76440476D01*
X102821428Y-76488095D01*
X102773809Y-76535714D01*
X102726190Y-76630952D01*
X102678571Y-76821428D01*
X102630952Y-76916666D01*
X102583333Y-76964285D01*
X102488095Y-77011904D01*
X102392857Y-77011904D01*
X102297619Y-76964285D01*
X102250000Y-76916666D01*
X102202380Y-76821428D01*
X102202380Y-76583333D01*
X102250000Y-76440476D01*
X102678571Y-75678571D02*
X102726190Y-75535714D01*
X102773809Y-75488095D01*
X102869047Y-75440476D01*
X103011904Y-75440476D01*
X103107142Y-75488095D01*
X103154761Y-75535714D01*
X103202380Y-75630952D01*
X103202380Y-76011904D01*
X102202380Y-76011904D01*
X102202380Y-75678571D01*
X102250000Y-75583333D01*
X102297619Y-75535714D01*
X102392857Y-75488095D01*
X102488095Y-75488095D01*
X102583333Y-75535714D01*
X102630952Y-75583333D01*
X102678571Y-75678571D01*
X102678571Y-76011904D01*
X93369047Y-107428571D02*
X93702380Y-107428571D01*
X93845238Y-107952380D02*
X93369047Y-107952380D01*
X93369047Y-106952380D01*
X93845238Y-106952380D01*
X94130952Y-106952380D02*
X94464285Y-107952380D01*
X94797619Y-106952380D01*
X95130952Y-107428571D02*
X95464285Y-107428571D01*
X95607142Y-107952380D02*
X95130952Y-107952380D01*
X95130952Y-106952380D01*
X95607142Y-106952380D01*
X96035714Y-107952380D02*
X96035714Y-106952380D01*
X96607142Y-107952380D01*
X96607142Y-106952380D01*
X98416666Y-107857142D02*
X98369047Y-107904761D01*
X98226190Y-107952380D01*
X98130952Y-107952380D01*
X97988095Y-107904761D01*
X97892857Y-107809523D01*
X97845238Y-107714285D01*
X97797619Y-107523809D01*
X97797619Y-107380952D01*
X97845238Y-107190476D01*
X97892857Y-107095238D01*
X97988095Y-107000000D01*
X98130952Y-106952380D01*
X98226190Y-106952380D01*
X98369047Y-107000000D01*
X98416666Y-107047619D01*
X98845238Y-107952380D02*
X98845238Y-106952380D01*
X99273809Y-107666666D02*
X99750000Y-107666666D01*
X99178571Y-107952380D02*
X99511904Y-106952380D01*
X99845238Y-107952380D01*
X101083333Y-107380952D02*
X100988095Y-107333333D01*
X100940476Y-107285714D01*
X100892857Y-107190476D01*
X100892857Y-107142857D01*
X100940476Y-107047619D01*
X100988095Y-107000000D01*
X101083333Y-106952380D01*
X101273809Y-106952380D01*
X101369047Y-107000000D01*
X101416666Y-107047619D01*
X101464285Y-107142857D01*
X101464285Y-107190476D01*
X101416666Y-107285714D01*
X101369047Y-107333333D01*
X101273809Y-107380952D01*
X101083333Y-107380952D01*
X100988095Y-107428571D01*
X100940476Y-107476190D01*
X100892857Y-107571428D01*
X100892857Y-107761904D01*
X100940476Y-107857142D01*
X100988095Y-107904761D01*
X101083333Y-107952380D01*
X101273809Y-107952380D01*
X101369047Y-107904761D01*
X101416666Y-107857142D01*
X101464285Y-107761904D01*
X101464285Y-107571428D01*
X101416666Y-107476190D01*
X101369047Y-107428571D01*
X101273809Y-107380952D01*
X102369047Y-106952380D02*
X101892857Y-106952380D01*
X101845238Y-107428571D01*
X101892857Y-107380952D01*
X101988095Y-107333333D01*
X102226190Y-107333333D01*
X102321428Y-107380952D01*
X102369047Y-107428571D01*
X102416666Y-107523809D01*
X102416666Y-107761904D01*
X102369047Y-107857142D01*
X102321428Y-107904761D01*
X102226190Y-107952380D01*
X101988095Y-107952380D01*
X101892857Y-107904761D01*
X101845238Y-107857142D01*
X102797619Y-107047619D02*
X102845238Y-107000000D01*
X102940476Y-106952380D01*
X103178571Y-106952380D01*
X103273809Y-107000000D01*
X103321428Y-107047619D01*
X103369047Y-107142857D01*
X103369047Y-107238095D01*
X103321428Y-107380952D01*
X102750000Y-107952380D01*
X103369047Y-107952380D01*
X103988095Y-106952380D02*
X104083333Y-106952380D01*
X104178571Y-107000000D01*
X104226190Y-107047619D01*
X104273809Y-107142857D01*
X104321428Y-107333333D01*
X104321428Y-107571428D01*
X104273809Y-107761904D01*
X104226190Y-107857142D01*
X104178571Y-107904761D01*
X104083333Y-107952380D01*
X103988095Y-107952380D01*
X103892857Y-107904761D01*
X103845238Y-107857142D01*
X103797619Y-107761904D01*
X103750000Y-107571428D01*
X103750000Y-107333333D01*
X103797619Y-107142857D01*
X103845238Y-107047619D01*
X103892857Y-107000000D01*
X103988095Y-106952380D01*
X104702380Y-107666666D02*
X105178571Y-107666666D01*
X104607142Y-107952380D02*
X104940476Y-106952380D01*
X105273809Y-107952380D01*
%LPC*%
D14*
X110840000Y-89750000D03*
X108300000Y-89750000D03*
X113380000Y-89750000D03*
D15*
X121000000Y-89750000D03*
D14*
X115920000Y-89750000D03*
X118460000Y-89750000D03*
X108300000Y-79250000D03*
X110840000Y-79250000D03*
X113380000Y-79250000D03*
X115920000Y-79250000D03*
X118460000Y-79250000D03*
D15*
X121000000Y-79250000D03*
D16*
X75320000Y-88180000D03*
X75320000Y-90720000D03*
X77860000Y-90720000D03*
X77860000Y-88180000D03*
X80400000Y-90720000D03*
X80400000Y-88180000D03*
X82940000Y-90720000D03*
X82940000Y-88180000D03*
X85480000Y-90720000D03*
X85480000Y-88180000D03*
X88020000Y-90720000D03*
X88020000Y-88180000D03*
X90560000Y-90720000D03*
X90560000Y-88180000D03*
X93100000Y-90720000D03*
X93100000Y-88180000D03*
X95640000Y-90720000D03*
X95640000Y-88180000D03*
X98180000Y-90720000D03*
X98180000Y-88180000D03*
X75320000Y-65320000D03*
X75320000Y-62780000D03*
X77860000Y-65320000D03*
X77860000Y-62780000D03*
X80400000Y-65320000D03*
X80400000Y-62780000D03*
X82940000Y-65320000D03*
X82940000Y-62780000D03*
X85480000Y-65320000D03*
X85480000Y-62780000D03*
X88020000Y-65320000D03*
X88020000Y-62780000D03*
X90560000Y-65320000D03*
X90560000Y-62780000D03*
X93100000Y-65320000D03*
X93100000Y-62780000D03*
X95640000Y-65320000D03*
X95640000Y-62780000D03*
X98180000Y-65320000D03*
X98180000Y-62780000D03*
D14*
X123510000Y-112740000D03*
X75250000Y-97500000D03*
X120970000Y-112740000D03*
X77790000Y-97500000D03*
X118430000Y-112740000D03*
X80330000Y-97500000D03*
X115890000Y-112740000D03*
X82870000Y-97500000D03*
X113350000Y-112740000D03*
X85410000Y-97500000D03*
X110810000Y-112740000D03*
X87950000Y-97500000D03*
X108270000Y-112740000D03*
X90490000Y-97500000D03*
X105730000Y-112740000D03*
X93030000Y-97500000D03*
X103190000Y-112740000D03*
X95570000Y-97500000D03*
X100650000Y-112740000D03*
X98110000Y-97500000D03*
X98110000Y-112740000D03*
X100650000Y-97500000D03*
X95570000Y-112740000D03*
X103190000Y-97500000D03*
X93030000Y-112740000D03*
X105730000Y-97500000D03*
X90490000Y-112740000D03*
X108270000Y-97500000D03*
X87950000Y-112740000D03*
X110810000Y-97500000D03*
X85410000Y-112740000D03*
X113350000Y-97500000D03*
X82870000Y-112740000D03*
X115890000Y-97500000D03*
X80330000Y-112740000D03*
X118430000Y-97500000D03*
X77790000Y-112740000D03*
X120970000Y-97500000D03*
X75250000Y-112740000D03*
D15*
X123510000Y-97500000D03*
X123500000Y-101500000D03*
D14*
X120960000Y-101500000D03*
X118420000Y-101500000D03*
X115880000Y-101500000D03*
X113340000Y-101500000D03*
X110800000Y-101500000D03*
X108260000Y-101500000D03*
X105720000Y-101500000D03*
X103180000Y-101500000D03*
X100640000Y-101500000D03*
X98100000Y-101500000D03*
X95560000Y-101500000D03*
X93020000Y-101500000D03*
X90480000Y-101500000D03*
X87940000Y-101500000D03*
X85400000Y-101500000D03*
X82860000Y-101500000D03*
X80320000Y-101500000D03*
X77780000Y-101500000D03*
X75240000Y-101500000D03*
X75240000Y-116750000D03*
X77780000Y-116750000D03*
X80320000Y-116750000D03*
X82860000Y-116750000D03*
X85400000Y-116750000D03*
X87940000Y-116750000D03*
X90480000Y-116750000D03*
X93020000Y-116750000D03*
X95560000Y-116750000D03*
X98100000Y-116750000D03*
X100640000Y-116750000D03*
X103180000Y-116750000D03*
X105720000Y-116750000D03*
X108260000Y-116750000D03*
X110800000Y-116750000D03*
X113340000Y-116750000D03*
X115880000Y-116750000D03*
X118420000Y-116750000D03*
X120960000Y-116750000D03*
D15*
X123500000Y-116750000D03*
M02*
