%FSLAX45Y45*%
G04 Gerber Fmt 4.5, Leading zero omitted, Abs format (unit mm)*
G04 Created by KiCad (PCBNEW (5.1.6)-1) date 2021-10-27 15:34:51*
%MOMM*%
%LPD*%
G01*
G04 APERTURE LIST*
%TA.AperFunction,Profile*%
%ADD10C,0.100000*%
%TD*%
%ADD11C,0.200000*%
%ADD12C,0.300000*%
G04 APERTURE END LIST*
D10*
X7400000Y-11925000D02*
G75*
G02*
X7300000Y-11825000I0J100000D01*
G01*
X7300000Y-6150000D02*
X7300000Y-11825000D01*
X7400000Y-11925000D02*
X12450000Y-11925000D01*
X12550000Y-11825000D02*
G75*
G02*
X12450000Y-11925000I-100000J0D01*
G01*
X12550000Y-6150000D02*
X12550000Y-11825000D01*
X12450000Y-6050000D02*
G75*
G02*
X12550000Y-6150000I0J-100000D01*
G01*
X7400000Y-6050000D02*
X12450000Y-6050000D01*
X7300000Y-6150000D02*
G75*
G02*
X7400000Y-6050000I100000J0D01*
G01*
D11*
D12*
X7581428Y-12395714D02*
X7581428Y-12095714D01*
X7652857Y-12095714D01*
X7695714Y-12110000D01*
X7724286Y-12138571D01*
X7738571Y-12167143D01*
X7752857Y-12224286D01*
X7752857Y-12267143D01*
X7738571Y-12324286D01*
X7724286Y-12352857D01*
X7695714Y-12381429D01*
X7652857Y-12395714D01*
X7581428Y-12395714D01*
X7881428Y-12395714D02*
X7881428Y-12195714D01*
X7881428Y-12252857D02*
X7895714Y-12224286D01*
X7910000Y-12210000D01*
X7938571Y-12195714D01*
X7967143Y-12195714D01*
X8067143Y-12395714D02*
X8067143Y-12195714D01*
X8067143Y-12095714D02*
X8052857Y-12110000D01*
X8067143Y-12124286D01*
X8081428Y-12110000D01*
X8067143Y-12095714D01*
X8067143Y-12124286D01*
X8252857Y-12395714D02*
X8224286Y-12381429D01*
X8210000Y-12352857D01*
X8210000Y-12095714D01*
X8410000Y-12395714D02*
X8381428Y-12381429D01*
X8367143Y-12352857D01*
X8367143Y-12095714D01*
X8752857Y-12395714D02*
X8752857Y-12095714D01*
X8852857Y-12310000D01*
X8952857Y-12095714D01*
X8952857Y-12395714D01*
X9224286Y-12395714D02*
X9224286Y-12238571D01*
X9210000Y-12210000D01*
X9181428Y-12195714D01*
X9124286Y-12195714D01*
X9095714Y-12210000D01*
X9224286Y-12381429D02*
X9195714Y-12395714D01*
X9124286Y-12395714D01*
X9095714Y-12381429D01*
X9081428Y-12352857D01*
X9081428Y-12324286D01*
X9095714Y-12295714D01*
X9124286Y-12281429D01*
X9195714Y-12281429D01*
X9224286Y-12267143D01*
X9367143Y-12195714D02*
X9367143Y-12495714D01*
X9367143Y-12210000D02*
X9395714Y-12195714D01*
X9452857Y-12195714D01*
X9481428Y-12210000D01*
X9495714Y-12224286D01*
X9510000Y-12252857D01*
X9510000Y-12338571D01*
X9495714Y-12367143D01*
X9481428Y-12381429D01*
X9452857Y-12395714D01*
X9395714Y-12395714D01*
X9367143Y-12381429D01*
X9638571Y-12367143D02*
X9652857Y-12381429D01*
X9638571Y-12395714D01*
X9624286Y-12381429D01*
X9638571Y-12367143D01*
X9638571Y-12395714D01*
X9638571Y-12210000D02*
X9652857Y-12224286D01*
X9638571Y-12238571D01*
X9624286Y-12224286D01*
X9638571Y-12210000D01*
X9638571Y-12238571D01*
M02*
